<?xml version="1.0" encoding="utf-8"?>
<!-- Generator: Adobe Illustrator 27.5.0, SVG Export Plug-In . SVG Version: 6.00 Build 0)  -->
<svg version="1.1" id="Layer_1" xmlns="http://www.w3.org/2000/svg" xmlns:xlink="http://www.w3.org/1999/xlink" x="0px" y="0px"
	 viewBox="0 0 241.247 243.447" style="enable-background:new 0 0 241.247 243.447;" xml:space="preserve">
<g>
	<g>
		<path style="fill:#464547;" d="M161.908,137.941c-13.552-14.976-12.739-44.939-12.739-44.939l-22.616-0.335l-0.012-0.282
			l-9.506,0.141l-9.506-0.141l-0.012,0.282l-22.616,0.335c0,0,0.813,29.964-12.739,44.939
			c-13.552,14.975-24.589,26.956-18.622,52.714c5.967,25.758,27.906,30.251,53.116,28.454c4.09-0.292,7.507-0.535,10.378-0.74
			c2.871,0.205,6.288,0.448,10.378,0.74c25.21,1.797,47.15-2.696,53.117-28.454C186.496,164.897,175.46,152.917,161.908,137.941z"/>
	</g>
	<g>
		<path style="fill:#464547;" d="M166.422,142.972c-2.563,3.834-5.447,7.456-8.659,10.762c-4.126,4.246-8.814,7.984-14.007,10.846
			c-5.168,2.848-10.772,4.733-16.616,5.55c-6.454,0.902-13.054,0.973-19.486-0.148c-6.337-1.104-12.518-3.434-17.707-7.284
			c-5.308-3.938-9.125-9.363-12.319-15.079c-1.856-3.323-3.487-6.777-4.906-10.316c-0.184,0.216-0.37,0.429-0.561,0.639
			c-13.552,14.975-24.589,26.956-18.622,52.714c5.967,25.758,27.906,30.251,53.116,28.453c4.09-0.292,7.507-0.535,10.378-0.74
			c2.871,0.205,6.288,0.448,10.378,0.74c25.21,1.797,47.15-2.696,53.117-28.453C185.816,167.835,177.753,155.828,166.422,142.972z"
			/>
	</g>
	<g>
		<path style="fill:#313032;" d="M76.584,178.129c-3.144-4.817-6.943-9.227-11.37-12.905c-4.272-3.549-9.174-6.467-14.505-8.082
			c-3.204-0.971-6.615-1.481-9.948-1.085c-3.544,0.989-6.915,2.718-9.603,5.492c-6.302,6.504-7.607,17.454-5.907,26.952
			c1.72,9.611,4.884,18.891,8.831,27.587c1.469,3.237,6.385,15.141,11.038,19.874c1.189-1.848,2.307-3.747,3.465-5.611
			c0.92-1.48,1.841-2.96,2.784-4.426c0.728-1.133,1.458-2.266,2.314-3.308c1.448-1.764,3.215-3.303,5.291-4.276
			c2.061-0.966,4.333-1.342,6.599-1.228c1.356,0.068,2.694,0.325,4.035,0.527c1.355,0.204,2.712,0.397,4.073,0.555
			c2.375,0.275,4.768,0.446,7.159,0.349c2.028-0.082,4.005-0.399,5.936-0.887c1.168-7.529-1.053-17.838-3.878-27.224
			C81.217,186.131,79.107,181.995,76.584,178.129z"/>
		<path style="fill:#79706F;" d="M25.615,183.485c0.155-4.076,0.618-8.221,2.029-12.072c1.427-3.896,3.848-7.201,7.246-9.595
			c3.169-2.232,6.846-3.653,10.718-3.963c3.964-0.317,7.85,0.497,11.523,1.946c-2.058-1.077-4.201-1.987-6.423-2.66
			c-3.204-0.971-6.615-1.481-9.948-1.085c-3.544,0.989-6.915,2.718-9.603,5.492c-6.302,6.504-7.607,17.454-5.907,26.952
			c0.153,0.855,0.331,1.704,0.506,2.553C25.571,188.537,25.519,186.016,25.615,183.485z"/>
	</g>
	<g>
		<path style="fill:#464547;" d="M48.243,196.376c-1.099-4.096-2.27-8.137-4.009-12.106c-2.417-5.513-6.027-10.382-11.161-13.61
			c-5.101-3.207-12.457-2.427-17.721,0.238c-5.291,2.679-9.364,7.67-10.932,13.397c-1.452,5.304-0.798,11.008,0.883,16.243
			c1.681,5.236,4.344,10.09,6.979,14.915c4.457,8.161,8.659,18.796,17.682,22.902c6.551,2.98,14.164,1.178,19.099-3.935
			c8.771-9.086,3.738-21.411,0.837-31.855C49.325,200.489,48.793,198.425,48.243,196.376z"/>
		<g>
			<g>
				<path style="fill:#79706F;" d="M12.384,194.796c-0.257-1.463-0.859-2.865-1.753-4.051c-0.51-0.675-1.132-1.295-1.911-1.622
					c-0.779-0.327-1.737-0.316-2.415,0.189c-0.972,0.725-1.161,2.13-1.178,3.257c-0.038,2.583,0.772,5.123,2.993,6.636
					c0.786,0.535,1.787,0.904,2.682,0.585c1.241-0.443,1.709-1.967,1.723-3.286C12.531,195.932,12.483,195.36,12.384,194.796z"/>
				<path style="fill:#79706F;" d="M17.046,187.018c-0.268-1.421-0.817-2.799-1.503-4.067c-0.64-1.183-1.81-3.218-3.26-3.509
					c-4.497-0.904-3.835,7.342-2.308,9.462c1.26,1.75,5.143,4.113,6.74,1.492C17.326,189.392,17.255,188.129,17.046,187.018z"/>
				<path style="fill:#79706F;" d="M19.971,174.189c-1.046-0.895-2.544-1.386-3.577-0.189c-0.08,0.092-0.145,0.193-0.212,0.293
					c-0.572,0.469-0.811,1.269-0.87,2.004c-0.094,1.156,0.144,2.333,0.436,3.446c0.499,1.899,1.46,4.397,2.98,5.709
					c2.285,1.971,5.211,0.419,5.533-1.605C24.721,180.96,22.194,176.091,19.971,174.189z"/>
				<path style="fill:#79706F;" d="M31.317,177.557c-0.21-3.084-1.733-6.499-5.449-4.948c-1.05,0.438-1.472,1.702-1.592,2.836
					c-0.23,2.188,2.148,12.178,5.76,7.996C31.35,181.919,31.448,179.473,31.317,177.557z"/>
				<path style="fill:#79706F;" d="M38.218,181.014c-0.069-1.507-0.393-3.042-1.009-4.423c-1.254-2.811-3.663-2.962-4.243,0.362
					c-0.338,1.942-0.042,3.991,0.835,5.757c0.585,1.179,2.126,3.197,3.49,1.795C38.167,183.604,38.272,182.203,38.218,181.014z"/>
			</g>
			<path style="fill:#79706F;" d="M49.117,217.25c-1.203-6.954-4.116-14.131-5.648-18.732c-2.015-6.049-5.282-11.51-12.374-11.306
				c-5.174,0.149-10.057,3.36-13.546,7c-1.811,1.889-3.43,4.069-4.113,6.728c-0.639,2.486-0.394,5.111,0.391,7.535
				c0.451,1.394,1.062,2.737,1.649,4.07c2.807,6.378,6.536,12.603,11.367,17.454c4.385,4.404,11.039,8.607,16.893,5.131
				C49.761,231.553,50.375,224.524,49.117,217.25z"/>
		</g>
	</g>
	<g>
		<path style="fill:#313032;" d="M164.664,178.129c3.144-4.817,6.942-9.227,11.37-12.905c4.272-3.549,9.174-6.467,14.505-8.082
			c3.204-0.971,6.615-1.481,9.948-1.085c3.544,0.989,6.915,2.718,9.603,5.492c6.302,6.504,7.607,17.454,5.908,26.952
			c-1.72,9.611-4.884,18.891-8.831,27.587c-1.469,3.237-6.385,15.141-11.038,19.874c-1.189-1.848-2.307-3.747-3.465-5.611
			c-0.92-1.48-1.842-2.96-2.784-4.426c-0.728-1.133-1.458-2.266-2.314-3.308c-1.448-1.764-3.215-3.303-5.291-4.276
			c-2.061-0.966-4.333-1.342-6.599-1.228c-1.356,0.068-2.694,0.325-4.035,0.527c-1.355,0.204-2.711,0.397-4.073,0.555
			c-2.375,0.275-4.768,0.446-7.159,0.349c-2.028-0.082-4.005-0.399-5.936-0.887c-1.168-7.529,1.053-17.838,3.878-27.224
			C160.031,186.131,162.14,181.995,164.664,178.129z"/>
		<path style="fill:#79706F;" d="M215.632,183.485c-0.155-4.076-0.619-8.221-2.029-12.072c-1.427-3.896-3.848-7.201-7.246-9.595
			c-3.169-2.232-6.846-3.653-10.718-3.963c-3.964-0.317-7.85,0.497-11.523,1.946c2.059-1.077,4.201-1.987,6.423-2.66
			c3.204-0.971,6.615-1.481,9.948-1.085c3.544,0.989,6.915,2.718,9.603,5.492c6.302,6.504,7.607,17.454,5.908,26.952
			c-0.153,0.855-0.331,1.704-0.506,2.553C215.676,188.537,215.728,186.016,215.632,183.485z"/>
	</g>
	<g>
		<path style="fill:#464547;" d="M191.346,202.564c-2.901,10.444-7.934,22.77,0.837,31.855c4.936,5.113,12.549,6.915,19.099,3.935
			c9.023-4.106,13.225-14.741,17.682-22.902c2.635-4.825,5.299-9.68,6.979-14.915c1.681-5.235,2.334-10.94,0.882-16.243
			c-1.568-5.727-5.64-10.718-10.932-13.397c-5.263-2.664-12.619-3.445-17.721-0.238c-5.134,3.228-8.744,8.097-11.161,13.61
			c-1.739,3.97-2.909,8.01-4.008,12.106C192.454,198.425,191.922,200.489,191.346,202.564z"/>
		<g>
			<g>
				<path style="fill:#79706F;" d="M228.722,196.505c0.014,1.319,0.482,2.843,1.723,3.286c0.895,0.319,1.896-0.05,2.682-0.585
					c2.221-1.513,3.031-4.053,2.993-6.636c-0.017-1.126-0.206-2.532-1.178-3.257c-0.677-0.506-1.635-0.517-2.415-0.189
					c-0.779,0.327-1.401,0.947-1.911,1.622c-0.895,1.185-1.496,2.588-1.754,4.051C228.764,195.36,228.716,195.932,228.722,196.505z"
					/>
				<path style="fill:#79706F;" d="M224.533,190.396c1.596,2.621,5.48,0.258,6.74-1.492c1.527-2.12,2.189-10.367-2.308-9.462
					c-1.45,0.291-2.62,2.326-3.26,3.509c-0.686,1.268-1.235,2.646-1.503,4.067C223.992,188.129,223.922,189.392,224.533,190.396z"/>
				<path style="fill:#79706F;" d="M216.986,183.847c0.322,2.024,3.248,3.576,5.533,1.605c1.521-1.312,2.482-3.81,2.98-5.709
					c0.292-1.113,0.529-2.29,0.436-3.446c-0.059-0.734-0.298-1.534-0.87-2.004c-0.067-0.1-0.132-0.201-0.212-0.293
					c-1.033-1.196-2.531-0.706-3.577,0.189C219.054,176.091,216.527,180.96,216.986,183.847z"/>
				<path style="fill:#79706F;" d="M211.211,183.441c3.612,4.183,5.99-5.807,5.76-7.996c-0.119-1.134-0.541-2.398-1.592-2.836
					c-3.716-1.551-5.239,1.864-5.449,4.948C209.799,179.473,209.897,181.919,211.211,183.441z"/>
				<path style="fill:#79706F;" d="M203.957,184.504c1.364,1.403,2.905-0.616,3.49-1.795c0.876-1.766,1.173-3.814,0.835-5.757
					c-0.579-3.324-2.988-3.173-4.242-0.362c-0.616,1.381-0.941,2.916-1.01,4.423C202.975,182.203,203.081,183.604,203.957,184.504z"
					/>
			</g>
			<path style="fill:#79706F;" d="M192.13,217.25c1.202-6.954,4.116-14.131,5.648-18.732c2.015-6.049,5.282-11.51,12.374-11.306
				c5.174,0.149,10.057,3.36,13.546,7c1.811,1.889,3.43,4.069,4.113,6.728c0.639,2.486,0.394,5.111-0.391,7.535
				c-0.451,1.394-1.062,2.737-1.649,4.07c-2.807,6.378-6.536,12.603-11.367,17.454c-4.385,4.404-11.039,8.607-16.893,5.131
				C191.487,231.553,190.873,224.524,192.13,217.25z"/>
		</g>
	</g>
	<path style="fill:#FFFFFF;" d="M111.441,128.058c2.247,3.422,4.631,6.763,7.211,9.935c1.315-1.385,2.555-2.843,3.726-4.346
		c2.414-3.097,4.562-6.397,6.587-9.76c2.001-3.322,3.931-6.691,5.864-10.052c2.531-4.401,5.049-8.929,7.026-13.656
		c-1.594,0.903-3.159,1.856-4.68,2.882c-4.047,2.729-7.658,5.93-10.724,9.74c-2.933,3.646-5.341,7.676-7.779,11.66
		c-0.142,0.233-0.468,0.226-0.611,0c-2.163-3.393-4.034-6.97-6.303-10.296c-3.484-5.107-8.18-9.204-13.528-12.267
		c-1.832-1.049-3.944-2.086-6.144-2.789c1.793,2.152,3.495,4.381,5.108,6.671C102.272,112.992,106.602,120.69,111.441,128.058z"/>
	<g>
		<g>
			<path style="fill:#A56640;" d="M135.962,119.18c-2.295-0.475-4.644,0.422-6.862,0.931c-4.526,1.037-9.234,1.764-13.658,3.179
				c-0.678,0.217-1.337,0.478-2.009,0.698c0.496-0.553,1.177-1.003,1.718-1.396c1.145-0.832,2.293-1.647,3.505-2.379
				c1.352-0.817,2.742-1.568,4.099-2.377c0.934-0.556,2.003-1.124,2.554-2.109c1.32-2.359-1.973-2.549-3.357-2.005
				c-8.649,3.397-16.699,8.588-22.804,15.642c-8.776,10.142-14.503,23.845-17.061,36.937c-0.201,1.03-0.374,2.095-0.167,3.124
				c0.587,2.903,2.999,3.502,5.516,2.621c2.948-1.032,4.531-3.705,5.576-6.511c3.044-8.168,3.435-17.288,8.172-24.805
				c6.75-10.711,19.939-14.287,31.72-16.069c1.465-0.222,3.887-0.489,4.818-1.844C138.701,121.393,137.584,119.516,135.962,119.18z"
				/>
			<path style="fill:#A56640;" d="M123.866,113.488c-0.761,0.393-1.496,0.839-2.205,1.314c-2.394,1.603-4.569,3.514-6.677,5.469
				c-1.911,1.772-4.205,3.333-5.548,5.612c1.498-0.72,2.955-1.522,4.42-2.308c0.421-0.371,0.896-0.693,1.296-0.984
				c1.145-0.832,2.293-1.647,3.505-2.379c1.352-0.817,2.742-1.568,4.099-2.377c0.934-0.557,2.003-1.124,2.554-2.109
				C126.158,114.209,125.098,113.592,123.866,113.488z"/>
			<path style="fill:#A56640;" d="M137.954,121.697c-6.275-0.093-12.521,1.37-18.425,3.386c-2.71,0.925-5.425,1.86-7.994,3.136
				c-2.617,1.3-4.951,2.958-7.067,4.969c-4.275,4.061-7.639,8.985-10.151,14.306c-2.543,5.387-4.228,11.153-5.315,17.001
				c-0.453,2.435-0.796,4.887-1.054,7.349c2.623-1.149,4.083-3.67,5.066-6.309c3.044-8.168,3.435-17.288,8.172-24.806
				c6.75-10.711,19.939-14.286,31.72-16.069c1.465-0.221,3.887-0.489,4.818-1.844c0.243-0.354,0.356-0.735,0.365-1.114
				C138.043,121.7,137.999,121.698,137.954,121.697z"/>
			<path style="fill:#94CA63;" d="M127.989,128.757c0.608,1.344,1.672,2.36,2.935,3.101c1.248,0.608,2.628,1.066,3.906,1.4
				c0.394,0.072,0.784,0.125,1.167,0.162c2.589,0.248,5.434-0.195,7.609-1.67c-0.263-0.518-0.559-1.021-0.894-1.501
				c-1.017-1.458-2.373-2.645-3.941-3.48c-1.401-0.746-2.966-1.246-4.499-1.642c-1.979-0.511-4.48-0.918-6.533-0.252
				C127.419,126.161,127.425,127.51,127.989,128.757z"/>
			<path style="fill:#56BB68;" d="M129.608,127.292c1.295,0.706,2.757,0.875,4.212,0.705c1.362-0.267,2.739-0.734,3.96-1.237
				c0.357-0.18,0.701-0.373,1.029-0.574c2.215-1.362,4.219-3.431,5.065-5.919c-0.522-0.255-1.061-0.477-1.618-0.659
				c-1.69-0.551-3.487-0.68-5.242-0.402c-1.568,0.249-3.117,0.793-4.58,1.401c-1.887,0.785-4.128,1.968-5.364,3.737
				C127.589,125.565,128.407,126.637,129.608,127.292z"/>
		</g>
		<g>
			<g>
				<path style="fill:#FDB714;" d="M149.205,168.319c0.347-2.336,0.334-4.715-0.092-7.04c-0.352-1.921-0.881-4.694-2.589-5.9
					c-1.485-1.049-3.324-0.208-4.701,0.6c-2.152,1.263-4.299,2.508-6.483,3.719c-4.922,2.727-9.831,5.477-14.753,8.204
					c-4.205,2.33-8.713,4.89-11.754,8.714c-2.144,2.695-2.275,6.898,0.065,9.526c0.234,0.263,0.499,0.497,0.776,0.715
					c0.83,0.99,1.949,1.793,3.162,2.394c2.812,1.393,6.058,2.125,9.195,2.14c8.35,0.039,16.586-3.942,21.72-10.504
					C146.592,177.257,148.527,172.881,149.205,168.319z"/>
				<path style="opacity:0.56;fill:#FDB714;" d="M149.205,168.319c0.347-2.336,0.334-4.715-0.092-7.04
					c-0.352-1.921-0.881-4.694-2.589-5.9c-1.485-1.049-3.324-0.208-4.701,0.6c-2.152,1.263-4.299,2.508-6.483,3.719
					c-4.922,2.727-9.831,5.477-14.753,8.204c-4.205,2.33-8.713,4.89-11.754,8.714c-1.88,2.364-2.211,5.886-0.686,8.49
					c2.626,1.474,6.006,1.646,8.939,1.405c2.24-0.184,4.455-0.622,6.622-1.208c2.034-0.55,4.096-1.198,6.004-2.099
					c2.474-1.17,4.663-2.824,6.868-4.425c1.094-0.794,2.198-1.576,3.35-2.284c0.792-0.487,1.624-1.022,2.523-1.292
					c0.893-0.268,1.814-0.059,2.008,0.961c0.213,1.113-0.216,2.357-0.578,3.393c-0.271,0.775-0.586,1.536-0.926,2.286
					c0.27-0.313,0.539-0.628,0.794-0.955C146.592,177.257,148.527,172.881,149.205,168.319z"/>
				<path style="fill:#FDB714;" d="M145.916,146.943c-1.102-1.889-2.838-3.552-5.02-4.061c-2.434-0.568-4.875,0.286-7.016,1.407
					c-2.417,1.266-4.678,2.907-6.883,4.505c-2.597,1.882-5.126,3.856-7.761,5.686c-2.551,1.771-5.202,3.327-8.015,4.645
					c-2.714,1.271-5.483,2.437-8.104,3.897c-2.122,1.183-4.395,2.485-5.451,4.774c-0.566,1.227-0.809,2.662-0.643,4.031
					c-0.673,3.366,1.544,7.457,4.021,9.528c3.8,3.178,9.284,4.138,14.109,3.994c5.036-0.15,10.019-1.874,14.445-4.21
					c4.5-2.375,8.403-5.736,11.482-9.781c2.727-3.583,4.758-7.615,5.775-12.013C147.781,155.334,148.069,150.633,145.916,146.943z"
					/>
				<path style="opacity:0.56;fill:#FDB714;" d="M96.91,172.885c2.779,2.857,6.665,4.259,10.66,4.531
					c4.701,0.32,9.45-0.638,13.896-2.108c2.453-0.811,4.823-1.795,7.028-3.154c2.397-1.477,4.574-3.268,6.75-5.045
					c1.076-0.879,2.155-1.755,3.262-2.595c0.561-0.426,1.13-0.842,1.7-1.257c0.47-0.341,0.956-0.679,1.499-0.895
					c2.278-0.903,2.754,2.233,2.588,3.9c1.123-2.187,2-4.494,2.56-6.917c0.928-4.012,1.215-8.712-0.937-12.402
					c-1.102-1.889-2.838-3.552-5.02-4.061c-2.434-0.568-4.875,0.286-7.016,1.407c-2.417,1.266-4.678,2.907-6.883,4.505
					c-2.597,1.882-5.126,3.856-7.761,5.686c-2.551,1.771-5.202,3.327-8.015,4.645c-2.714,1.271-5.483,2.437-8.104,3.897
					c-2.122,1.183-4.395,2.485-5.451,4.774c-0.566,1.227-0.809,2.662-0.643,4.031C96.953,172.173,96.921,172.527,96.91,172.885z"/>
				<path style="fill:#FDB714;" d="M144.096,145.197c-0.137-4.367-2.594-8.188-6.43-10.268c-4.952-2.686-10.885-1.52-15.879,0.412
					c-4.871,1.885-9.44,4.609-13.848,7.388c-2.34,1.476-4.627,3.066-6.699,4.905c-1.933,1.716-3.748,3.702-4.821,6.08
					c-0.463,1.025-0.715,2.058-0.723,3.178c-1.453,2.648-2.671,5.415-2.599,8.461c0.121,5.181,4.86,8.905,9.467,10.3
					c5.061,1.532,10.577,0.643,15.476-1.053c5.053-1.749,9.812-4.459,13.995-7.779c3.316-2.632,6.12-5.837,8.296-9.471
					C142.504,153.726,144.231,149.493,144.096,145.197z"/>
				<path style="opacity:0.56;fill:#FDB714;" d="M94.193,159.993c0.346,2.603,2.981,4.587,5.477,5.442
					c2.159,0.74,4.565,0.963,6.834,1.008c2.553,0.051,5.108-0.239,7.582-0.871c5.174-1.32,9.713-4.113,13.779-7.51
					c2.018-1.686,3.944-3.478,5.915-5.219c0.929-0.82,1.843-1.711,2.863-2.417c0.825-0.571,1.873-1.034,2.874-0.661
					c2.066,0.77,2.221,3.446,1.813,5.258c-0.09,0.398-0.206,0.786-0.335,1.17c1.848-3.355,3.222-7.15,3.101-10.997
					c-0.137-4.367-2.594-8.188-6.43-10.268c-4.952-2.686-10.885-1.52-15.879,0.412c-4.871,1.885-9.44,4.609-13.848,7.388
					c-2.34,1.476-4.627,3.066-6.699,4.905c-1.933,1.716-3.748,3.702-4.821,6.08c-0.463,1.025-0.715,2.058-0.723,3.178
					C95.141,157.906,94.621,158.937,94.193,159.993z"/>
				<path style="fill:#FDB714;" d="M136.651,139.622c-0.335-9.634-12.929-9.44-19.688-8.056c-4.315,0.883-8.461,2.682-12.075,5.199
					c-3.612,2.516-6.897,6-8.195,10.285c-1.38,1.776-2.328,3.912-2.738,6.088c-0.618,3.282-0.074,6.981,2.651,9.195
					c3.552,2.886,8.946,2.91,13.201,2.035c4.897-1.006,9.534-3.239,13.711-5.942c3.294-2.132,6.174-4.765,8.597-7.856
					C134.511,147.512,136.79,143.645,136.651,139.622z"/>
				<path style="opacity:0.56;fill:#FDB714;" d="M95.132,150.44c0.406,1.105,1.322,1.908,2.338,2.45
					c1.264,0.675,2.695,1.009,4.104,1.212c1.644,0.237,3.316,0.276,4.974,0.215c3.092-0.113,6.246-0.541,9.205-1.468
					c1.993-0.624,3.836-1.667,5.535-2.871c1.255-0.889,2.431-1.885,3.553-2.936c1.113-1.042,2.219-2.125,3.221-3.275
					c0.804-0.922,1.521-1.956,2.573-2.62c1.018-0.642,2.322-0.758,3.454-0.351c1.162,0.418,1.816,1.325,2.095,2.383
					c0.331-1.161,0.51-2.352,0.468-3.559c-0.335-9.634-12.929-9.44-19.688-8.056c-4.315,0.883-8.461,2.682-12.075,5.199
					c-3.612,2.516-6.897,6-8.195,10.285c-0.682,0.877-1.257,1.842-1.715,2.857C95.017,150.086,95.067,150.264,95.132,150.44z"/>
				<path style="fill:#FDB714;" d="M127.48,133.877c-3.899-6.801-12.849-6.772-19.477-4.799c-3.754,1.118-6.954,3.402-9.275,6.548
					c-0.059,0.026-0.114,0.058-0.155,0.103c-3.424,3.748-5.37,11.105-1.811,15.38c2.23,2.679,6.287,3.209,9.553,2.976
					c4.191-0.299,8.107-2.016,11.796-3.918C123.519,147.377,131.388,140.693,127.48,133.877z"/>
				<path style="opacity:0.56;fill:#FDB714;" d="M127.48,133.877c-3.899-6.801-12.849-6.772-19.477-4.799
					c-1.475,0.439-2.861,1.065-4.146,1.846c3.248-1.468,6.826-2.244,10.371-2.119c4.166,0.147,9.031,1.589,10.943,5.675
					c0.94,2.01,0.905,4.276,0.249,6.368c-0.735,2.345-2.247,4.327-4.114,5.895c-1.848,1.553-3.962,2.691-6.098,3.792
					c-2.1,1.082-4.22,2.127-6.409,3.018c-0.286,0.117-0.577,0.232-0.87,0.345c3.586-0.562,6.97-2.075,10.181-3.731
					C123.519,147.377,131.388,140.693,127.48,133.877z"/>
			</g>
			<g>
				<path style="fill:#FDB714;" d="M104.009,136.456c-0.03-0.617-0.199-1.323-0.799-1.619c-0.501-0.247-1.078-0.141-1.576,0.096
					c-0.029-0.008-0.057-0.017-0.096-0.017c-1.483-0.009-2.365,1.559-2.901,2.726c-0.356,0.775-0.634,1.589-0.823,2.421
					c-0.154,0.677-0.289,1.407-0.22,2.104c0.055,0.563,0.287,1.155,0.786,1.469c0.577,0.363,1.322,0.183,1.866-0.149
					c1.194-0.727,1.981-2.175,2.582-3.388c0.335-0.676,0.644-1.368,0.881-2.086C103.87,137.521,104.034,136.979,104.009,136.456z"/>
				<path style="fill:#FDB714;" d="M99.107,146.633c-0.001-0.047-0.012-0.093-0.024-0.139c-0.002-0.032-0.005-0.064-0.001-0.094
					c-0.003,0.018-0.006,0.037-0.009,0.055c0-0.001,0-0.002-0.001-0.002c0.015-0.057,0.025-0.115,0.008-0.172
					c-0.005-0.073-0.034-0.137-0.088-0.191c-0.038-0.031-0.076-0.061-0.113-0.091c-0.071-0.042-0.146-0.066-0.227-0.071
					c-0.057-0.014-0.115-0.016-0.173-0.006c-0.095,0.001-0.188,0.02-0.276,0.058c-0.058,0.029-0.115,0.058-0.173,0.087
					c-0.1,0.063-0.184,0.143-0.249,0.242c-0.054,0.073-0.096,0.159-0.124,0.244c-0.02,0.061-0.031,0.125-0.022,0.188
					c0.008,0.058,0.017,0.12,0.036,0.177c0.009,0.027,0.022,0.052,0.033,0.079c0.014,0.035,0.037,0.066,0.057,0.098
					c0.005,0.024,0.005,0.049,0.015,0.071c0.006,0.013,0.012,0.025,0.018,0.038c0.021,0.034,0.041,0.067,0.062,0.1
					c0.031,0.025,0.063,0.05,0.094,0.076c0.04,0.016,0.079,0.032,0.119,0.049c0.07,0.02,0.141,0.025,0.212,0.015
					c0.052,0.001,0.103-0.008,0.152-0.027c0.053-0.009,0.103-0.029,0.148-0.057c0.105-0.053,0.219-0.131,0.278-0.236
					c0.003-0.006,0.005-0.012,0.009-0.018C99.002,146.987,99.112,146.818,99.107,146.633z"/>
				<path style="fill:#FDB714;" d="M97.564,157.587c-0.015-0.027-0.029-0.045-0.042-0.068c0.009-0.056,0.029-0.11,0.031-0.168
					c0.008-0.211-0.04-0.445-0.142-0.631c-0.146-0.266-0.325-0.456-0.578-0.626c-0.146-0.098-0.401-0.115-0.566-0.081
					c-0.209,0.042-0.43,0.13-0.578,0.289c-0.191,0.205-0.388,0.457-0.449,0.739c-0.051,0.239-0.059,0.493,0.058,0.716
					c0.023,0.044,0.056,0.076,0.082,0.116c0.022,0.101,0.033,0.203,0.065,0.3c0.064,0.191,0.153,0.38,0.278,0.539
					c0.087,0.11,0.279,0.168,0.412,0.169c0.191,0.001,0.357-0.056,0.524-0.147c0.144-0.078,0.272-0.182,0.389-0.297
					c0.167-0.071,0.355-0.207,0.443-0.36C97.57,157.939,97.646,157.742,97.564,157.587z"/>
				<path style="fill:#FDB714;" d="M97.675,166.887c0.007-0.048,0.015-0.096,0.023-0.143c-0.009-0.049-0.019-0.099-0.028-0.148
					c-0.026-0.043-0.052-0.086-0.079-0.128c-0.054-0.062-0.119-0.105-0.196-0.128c-0.051-0.028-0.106-0.043-0.164-0.044
					c-0.061-0.015-0.122-0.017-0.183-0.006c-0.067-0.002-0.132,0.01-0.194,0.034c-0.101,0.021-0.195,0.061-0.281,0.119
					c-0.045,0.031-0.085,0.069-0.128,0.104c-0.004,0.004-0.01,0.005-0.014,0.008c-0.006,0.004-0.009,0.011-0.014,0.015
					c-0.023,0.02-0.05,0.034-0.07,0.057c-0.109,0.124-0.158,0.182-0.217,0.335c-0.048,0.126-0.042,0.288,0.025,0.413
					c-0.002,0.031-0.005,0.063,0,0.095l0.025,0.131c0.024,0.067,0.064,0.119,0.122,0.156c0.033,0.035,0.073,0.058,0.12,0.07
					c0.069,0.034,0.143,0.051,0.222,0.05c0.056-0.004,0.112-0.008,0.168-0.012c0.058-0.016,0.116-0.032,0.174-0.048
					c0.085-0.029,0.161-0.074,0.228-0.133c0.006-0.004,0.009-0.011,0.015-0.016c0.067-0.032,0.108-0.053,0.109-0.056
					c0.051-0.033,0.099-0.071,0.14-0.11c0.097-0.095,0.153-0.188,0.2-0.314C97.714,167.094,97.712,166.981,97.675,166.887z"/>
				<g>
					<path style="fill:#FDB714;" d="M103.749,179.236c0.007-0.06,0.009-0.12,0.003-0.181c-0.01-0.109-0.03-0.22-0.062-0.325
						c-0.032-0.104-0.092-0.194-0.151-0.286c-0.119-0.184-0.318-0.294-0.521-0.361c-0.181-0.06-0.386-0.053-0.572-0.029
						c-0.168,0.021-0.319,0.083-0.467,0.154c-0.036-0.01-0.073-0.015-0.111-0.018c-0.001,0-0.002,0-0.002,0
						c-0.027-0.002-0.054-0.002-0.081-0.001c-0.033,0-0.066,0-0.099,0.006c-0.003,0-0.005,0-0.007,0c0.001,0,0.002,0,0.004,0
						c-0.056,0.01-0.109,0.026-0.159,0.048c-0.186,0.085-0.352,0.212-0.456,0.391c-0.092,0.159-0.131,0.311-0.157,0.488
						c-0.005,0.041-0.007,0.08-0.003,0.126c0.008,0.075,0.023,0.152,0.039,0.225c0.015,0.072,0.037,0.142,0.067,0.209
						c0.047,0.107,0.111,0.211,0.182,0.304c0.074,0.097,0.171,0.172,0.268,0.245c0.214,0.16,0.494,0.228,0.756,0.253
						c0.314,0.029,0.663-0.069,0.925-0.242c0.252-0.167,0.435-0.398,0.54-0.68C103.722,179.46,103.736,179.344,103.749,179.236z"/>
					<path style="fill:#FDB714;" d="M100.904,179.156c0.002-0.011,0.005-0.021,0.006-0.032c0.004-0.029,0.008-0.058,0.013-0.093
						C100.917,179.073,100.911,179.114,100.904,179.156z"/>
					<path style="fill:#FDB714;" d="M101.452,178.279c0.022-0.013,0.047-0.023,0.071-0.034c0.007-0.003,0.012-0.008,0.019-0.011
						C101.512,178.249,101.482,178.264,101.452,178.279z"/>
					<path style="fill:#FDB714;" d="M101.424,178.293c0.009-0.004,0.018-0.009,0.027-0.014c-0.007,0.004-0.015,0.006-0.022,0.011
						C101.428,178.291,101.426,178.292,101.424,178.293z"/>
				</g>
				<g>
					<polygon style="fill:#FDB714;" points="106.792,179.527 106.787,179.533 106.787,179.535 					"/>
					<path style="fill:#FDB714;" d="M106.778,179.545c0.003-0.004,0.006-0.007,0.009-0.011c0.002-0.004,0.004-0.008,0.006-0.012
						c-0.003,0.004-0.006,0.008-0.009,0.011C106.782,179.537,106.78,179.541,106.778,179.545z"/>
					<path style="fill:#FDB714;" d="M106.961,179.193c0.013-0.039,0.012-0.077-0.001-0.116c-0.004-0.06-0.028-0.111-0.072-0.156
						c-0.03-0.03-0.063-0.057-0.098-0.08c-0.078-0.043-0.161-0.065-0.251-0.067c-0.006-0.001-0.011-0.001-0.017-0.002
						c-0.007,0-0.013-0.001-0.019-0.001c-0.072-0.003-0.133,0.007-0.2,0.026c-0.105,0.029-0.204,0.077-0.281,0.157
						c-0.004,0.004-0.009,0.009-0.013,0.014c-0.068,0.069-0.14,0.147-0.162,0.245c-0.006,0.039-0.012,0.078-0.019,0.117
						c-0.002,0.062,0.015,0.117,0.052,0.163c0.013,0.032,0.037,0.053,0.064,0.073c-0.01,0.016-0.019,0.034-0.031,0.049
						c-0.012,0.024-0.023,0.048-0.035,0.073c-0.015,0.037-0.016,0.074-0.005,0.111c0,0.026,0.009,0.049,0.026,0.068
						c0.017,0.035,0.043,0.061,0.078,0.079c0.137,0.073,0.314,0.047,0.442-0.035c0.052-0.033,0.1-0.072,0.148-0.111
						c0.025-0.02,0.049-0.042,0.071-0.065c0.04-0.042,0.077-0.087,0.11-0.135c0.012-0.018,0.02-0.038,0.029-0.056
						c-0.018,0.021-0.035,0.043-0.053,0.064c0.021-0.024,0.039-0.051,0.06-0.077c0.014-0.028,0.03-0.054,0.043-0.082c0,0,0,0,0,0
						c-0.011,0.024-0.023,0.048-0.034,0.071c0.017-0.021,0.036-0.04,0.049-0.063c0.012-0.02,0.019-0.041,0.03-0.062
						c0.008-0.01,0.017-0.02,0.025-0.03C106.935,179.313,106.957,179.256,106.961,179.193z"/>
				</g>
				<path style="fill:#FDB714;" d="M117.31,188.02c-0.001-0.057-0.02-0.108-0.058-0.151c-0.037-0.077-0.094-0.136-0.174-0.175
					c-0.098-0.047-0.197-0.09-0.298-0.131c-0.098-0.04-0.205-0.095-0.311-0.12c-0.003-0.001-0.006-0.001-0.009-0.002
					c-0.041-0.008-0.162-0.027-0.204-0.029c-0.002,0-0.005,0-0.007,0c-0.023-0.001-0.196,0.012-0.218,0.016
					c-0.015,0.003-0.21,0.057-0.225,0.062c-0.009,0.003-0.2,0.099-0.208,0.104c-0.011,0.007-0.162,0.126-0.171,0.135
					c-0.001,0-0.127,0.154-0.128,0.154c-0.018,0.028-0.004,0.007-0.041,0.085c-0.034,0.071-0.054,0.123-0.062,0.193
					c-0.02,0.023-0.043,0.044-0.061,0.068c-0.059,0.079-0.099,0.173-0.14,0.261c-0.015,0.031-0.03,0.062-0.042,0.094
					c-0.016,0.04-0.023,0.086-0.032,0.128c-0.007,0.047-0.015,0.094-0.022,0.14c-0.003,0.074,0.018,0.14,0.062,0.196
					c0.019,0.045,0.049,0.08,0.092,0.104c0.054,0.052,0.12,0.086,0.196,0.102c0.362,0.072,0.748,0.076,1.09-0.083
					c0.098-0.045,0.206-0.095,0.297-0.157c0.091-0.063,0.178-0.131,0.26-0.206c0.123-0.112,0.228-0.247,0.325-0.381
					c0.026-0.054,0.052-0.108,0.078-0.162C117.331,188.184,117.335,188.101,117.31,188.02z"/>
			</g>
		</g>
	</g>
	<g>
		<path style="fill:#464547;" d="M179.98,117.196c-3.583-11.487-8.969-23.658-19.636-30.249c-4.578-2.829-10.363-4.573-15.696-3.033
			c-2.534,0.732-4.773,2.17-6.334,4.316c-1.789,2.46-2.385,5.661-2.489,8.643c-0.246,7.083,2.433,13.942,5.135,20.357
			c2.553,6.061,5.293,12.084,6.634,18.561c0.666,3.216,0.977,6.527,0.569,9.798c-0.203,1.626-0.601,3.221-1.214,4.742
			c-0.626,1.554-1.531,2.904-2.47,4.28c-1.985,2.91-3.891,5.957-6.565,8.299c-1.94,1.699-5.487,3.577-5.406,6.596
			c0.035,1.279,0.875,2.243,1.833,2.995c-1.188,2.102-1.546,4.771,0.128,6.745c1.472,1.736,3.674,2.151,5.781,1.771
			c-0.478,1.204-1.181,2.418-0.991,3.691c0.263,1.766,2.34,1.984,3.771,1.766c1.866-0.284,3.647-1.166,5.315-2.006
			c1.692-0.851,3.405-1.668,5.072-2.568c7.652-4.133,14.645-9.72,19.919-16.668c2.3-3.03,4.245-6.36,5.621-9.912
			c0.74-1.438,1.469-2.881,2.118-4.364c1.391-3.175,2.325-6.506,2.648-9.963C184.484,132.891,182.371,124.862,179.98,117.196z"/>
		<path style="opacity:0.27;fill:#464547;" d="M141.277,183.544c-0.027-1.486,0.749-2.838,1.647-3.965
			c0.461-0.578,0.971-1.112,1.504-1.623c-0.787,0.32-1.591,0.597-2.417,0.79c-1.378,0.323-2.989,0.471-4.259-0.285
			c-1.279-0.762-1.909-2.32-1.59-3.76c0.34-1.534,1.566-2.764,2.695-3.776c0.106-0.095,0.218-0.185,0.327-0.277
			c-0.971,0.365-2,0.501-3.09,0.195c-0.15-0.042-0.265-0.187-0.263-0.344c0.006-0.455,0.121-0.891,0.294-1.309
			c0.472-1.14,1.289-2.127,2.108-3.035c1.027-1.14,2.15-2.191,3.28-3.226c2.016-1.848,4.196-3.589,5.76-5.857
			c2.363-3.428,3.809-7.37,4.229-11.511c0.398-3.937-0.026-7.903-0.688-11.787c-0.689-4.042-1.628-8.037-2.32-12.078
			c-0.532-3.107-0.822-6.254,0.25-9.288c2.003-5.668,7.891-8.462,13.336-9.909c3.842-1.021,9.118-1.583,12.442,0.868
			c-3.343-6.571-7.816-12.49-14.177-16.421c-4.578-2.829-10.363-4.573-15.696-3.033c-2.534,0.732-4.773,2.17-6.334,4.316
			c-1.789,2.46-2.385,5.661-2.489,8.643c-0.246,7.083,2.433,13.942,5.135,20.357c2.553,6.061,5.293,12.084,6.634,18.561
			c0.666,3.216,0.977,6.527,0.569,9.798c-0.203,1.626-0.601,3.221-1.214,4.742c-0.626,1.554-1.531,2.904-2.47,4.28
			c-1.985,2.91-3.891,5.957-6.565,8.299c-1.94,1.699-5.487,3.577-5.406,6.596c0.035,1.279,0.875,2.243,1.833,2.995
			c-1.188,2.102-1.546,4.771,0.128,6.745c1.472,1.736,3.674,2.151,5.781,1.771c-0.478,1.204-1.181,2.418-0.991,3.691
			c0.236,1.585,1.932,1.922,3.312,1.817C141.769,185.765,141.296,184.646,141.277,183.544z"/>
	</g>
	<g>
		<path style="fill:#464547;" d="M106.386,171.269c-0.886-2.043-2.36-3.776-3.638-5.579c-1.557-2.198-3.226-4.313-4.864-6.45
			c-3.344-4.363-6.622-8.881-8.446-14.12c-1.792-5.148-2.244-10.632-1.829-16.045c0.428-5.591,1.727-11.077,3.381-16.422
			c1.485-4.798,3.196-9.566,5.13-14.202c1.49-3.572,3.192-7.277,3.467-11.19c0.222-3.154-1.132-6.479-4.631-6.846
			c-3.188-0.334-6.39,1.723-8.826,3.535c-2.35,1.749-4.551,3.796-6.478,6.022c-3.438,3.356-6.455,6.989-9.065,11.051
			c-2.874,4.474-5.674,9.105-7.592,14.08c-1.939,5.029-3.127,10.324-3.962,15.638c-1.579,10.041-2.135,20.723,1.904,30.296
			c3.979,9.432,12.389,15.486,21.212,20.046c2.407,1.243,4.788,2.555,7.31,3.556c1.912,0.759,4.063,1.528,6.151,1.314
			c1.411-0.144,2.878-0.506,4.133-1.182c0.858-0.462,1.887-1.304,1.744-2.351c0.842-0.153,1.633-0.508,2.315-1.158
			c1.341-1.275,1.215-2.967,0.46-4.432c0.383-0.089,0.762-0.245,1.122-0.488C107.115,175.174,107.147,173.022,106.386,171.269z"/>
		<path style="opacity:0.27;fill:#464547;" d="M106.386,171.269c-0.886-2.043-2.36-3.776-3.638-5.579
			c-1.557-2.198-3.226-4.313-4.864-6.45c-3.344-4.363-6.622-8.881-8.446-14.12c-1.792-5.148-2.244-10.632-1.829-16.045
			c0.428-5.591,1.727-11.077,3.381-16.422c1.485-4.798,3.196-9.566,5.13-14.202c1.49-3.572,3.192-7.277,3.467-11.19
			c0.222-3.154-1.132-6.479-4.631-6.846c-3.188-0.334-6.39,1.723-8.826,3.535c-1.454,1.082-2.839,2.288-4.149,3.569
			c0.298,0.085,0.592,0.18,0.879,0.291c1.913,0.739,3.639,2.07,4.919,3.666c1.381,1.723,2.019,3.806,1.871,6.01
			c-0.149,2.22-0.908,4.403-1.719,6.459c-3.413,8.649-6.105,17.696-5.642,27.092c0.439,8.895,3.761,17.656,8.57,25.089
			c2.597,4.014,5.698,7.659,8.955,11.148c1.099,1.177,2.487,2.195,3.269,3.633c0.494,0.909,0.598,2.193-0.434,2.774
			c-0.78,0.439-1.778,0.149-2.548-0.162c-0.968-0.391-1.87-0.932-2.739-1.511c1.038,0.954,2.034,1.961,2.855,3.105
			c0.826,1.15,1.569,2.674,0.944,4.082c-0.845,1.901-3.123,2.112-4.924,1.801c-0.492-0.085-0.973-0.206-1.447-0.346
			c1.165,0.555,2.281,1.18,3.142,2.171c0.138,0.159,0.15,0.457-0.072,0.562c-3.539,1.669-7.776,0.727-11.347-0.348
			c-0.552-0.166-1.096-0.354-1.641-0.538c1.502,0.773,3.017,1.52,4.587,2.143c1.912,0.759,4.063,1.528,6.151,1.314
			c1.411-0.144,2.878-0.506,4.133-1.182c0.858-0.462,1.887-1.304,1.744-2.351c0.842-0.153,1.633-0.508,2.315-1.158
			c1.341-1.275,1.215-2.967,0.46-4.432c0.383-0.089,0.762-0.245,1.122-0.488C107.115,175.174,107.147,173.022,106.386,171.269z"/>
	</g>
	<g>
		<g>
			<g>
				<g>
					<path style="fill:#313032;" d="M90.57,25.479c0,0-13.998,3.693-25.883-0.955c-17.511-6.847-17.197,31.18,7.04,30.515
						L90.57,25.479z"/>
				</g>
				<g>
					<path style="fill:#F9A66C;" d="M60.201,29.462c-2.403,2.977-2.4,7.031-1.211,10.515c0.707,2.072,1.685,4.066,3.104,5.745
						c1.315,1.556,2.966,2.797,4.8,3.675c2.06,0.987,4.363,1.674,6.653,1.749c0.222,0.007,0.443,0.002,0.664-0.003l16.36-25.664
						c0,0-10.442,2.75-20.946,0.507C66.164,25.729,62.459,26.665,60.201,29.462z"/>
				</g>
				<g>
					<path style="fill:#464547;" d="M57.024,25.439c0.833,0.233,1.516,0.835,2.044,1.5c1.176,1.481,1.832,3.315,2.647,5.003
						c1.749,3.625,3.914,7.083,6.471,10.193c2.104,2.558,4.589,5.03,7.52,6.662L90.57,25.479c0,0-13.998,3.693-25.883-0.955
						c-3.649-1.427-6.521-0.901-8.566,0.813C56.417,25.327,56.718,25.353,57.024,25.439z"/>
				</g>
			</g>
			<g>
				<g>
					<path style="fill:#313032;" d="M131.728,17.294c0,0,14.345-1.944,23.548-10.786c13.558-13.026,27.818,22.227,5.172,30.886
						L131.728,17.294z"/>
				</g>
				<g>
					<path style="fill:#F9A66C;" d="M161.31,9.354c3.359,1.831,4.908,5.578,5.143,9.251c0.14,2.185-0.001,4.401-0.669,6.495
						c-0.62,1.94-1.671,3.719-3.028,5.232c-1.525,1.701-3.391,3.216-5.478,4.161c-0.202,0.092-0.408,0.172-0.615,0.251
						l-24.934-17.451c0,0,10.7-1.454,19.546-7.546C154.373,8.186,158.153,7.633,161.31,9.354z"/>
				</g>
				<g>
					<path style="fill:#464547;" d="M162.706,4.421c-0.681,0.534-1.081,1.352-1.315,2.168c-0.52,1.818-0.424,3.764-0.531,5.635
						c-0.229,4.018-0.906,8.042-2.079,11.893c-0.965,3.169-2.315,6.403-4.399,9.032l-22.654-15.855c0,0,14.345-1.944,23.548-10.786
						c2.825-2.714,5.68-3.327,8.226-2.526C163.224,4.086,162.956,4.225,162.706,4.421z"/>
				</g>
			</g>
		</g>
		
			<ellipse transform="matrix(0.9808 -0.1951 0.1951 0.9808 -9.8461 24.4601)" style="fill:#181719;" cx="119.27" cy="62.223" rx="54.325" ry="45.909"/>
		
			<ellipse transform="matrix(0.9808 -0.1951 0.1951 0.9808 -9.4273 24.3333)" style="fill:#464547;" cx="118.835" cy="60.033" rx="51.683" ry="43.676"/>
		<path style="fill:#272628;" d="M150.198,71.118c-0.306,0.061-0.631,0.051-0.952-0.042c-30.505-8.886-54.008,10.564-54.242,10.762
			c-0.848,0.716-2.117,0.61-2.834-0.24c-0.717-0.849-0.612-2.119,0.235-2.837c0.257-0.218,6.405-5.379,16.626-9.408
			c9.442-3.723,24.278-7.116,41.337-2.147c1.067,0.311,1.681,1.429,1.371,2.497C151.522,70.451,150.911,70.977,150.198,71.118z"/>
		<path style="fill:#F9A66C;" d="M134.927,68.062c-6.062-7.389-13.592-6.307-15.657-5.835c-2.088,0.354-9.459,2.236-12.233,11.382
			c-3.214,10.598-5.633,36.835,16.344,37.418c0,0-0.001,0.003-0.001,0.003s4.121,0.606,10.154-1.875
			C154.479,100.412,142.022,76.71,134.927,68.062z"/>
		<g>
			<g>
				<path style="fill:#674238;" d="M126.782,99.993c-0.311,0.062-0.614-0.141-0.676-0.452l-2.301-11.569
					c-0.062-0.312,0.14-0.615,0.451-0.677c0.311-0.062,0.614,0.141,0.676,0.453l2.301,11.569
					C127.296,99.628,127.093,99.932,126.782,99.993z"/>
				<path style="fill:#674238;" d="M120.769,107.702c-1.499,0.298-3.036,0.147-4.375-0.487c-5.108-2.418-3.394-7.229-3.376-7.278
					c0.11-0.298,0.441-0.449,0.739-0.339c0.297,0.111,0.449,0.441,0.339,0.739l0,0c-0.057,0.158-1.352,3.877,2.788,5.837
					c2.036,0.964,4.636,0.582,6.624-0.973c2.018-1.578,2.937-3.956,2.458-6.362c-0.062-0.312,0.14-0.615,0.451-0.677
					c0.311-0.062,0.614,0.141,0.676,0.453c0.565,2.842-0.511,5.644-2.878,7.494C123.174,106.923,121.984,107.46,120.769,107.702z"/>
				<path style="fill:#674238;" d="M135.288,104.814c-1.215,0.242-2.521,0.201-3.795-0.153c-2.895-0.804-4.961-2.981-5.526-5.823
					c-0.062-0.312,0.14-0.615,0.451-0.677c0.311-0.062,0.614,0.141,0.676,0.453c0.479,2.406,2.238,4.252,4.706,4.938
					c2.432,0.676,4.98,0.034,6.492-1.636c3.094-3.415,0.458-6.336,0.344-6.458c-0.216-0.233-0.203-0.597,0.03-0.814
					c0.232-0.216,0.596-0.203,0.812,0.031c0.035,0.038,3.46,3.826-0.334,8.015C138.148,103.788,136.786,104.516,135.288,104.814z"/>
			</g>
			<path style="fill:#3B2920;" d="M135.232,84.805c-0.896-3.372-8.241-1.944-11.685-1.075c-3.515,0.515-10.847,2.006-10.385,5.464
				c0.591,4.424,2.659,10.077,12.861,8.86l0.016,0.051c0.133-0.033,0.645-0.135,0.78-0.155l-0.005-0.054
				C136.701,95.118,136.379,89.118,135.232,84.805z"/>
		</g>
		<g>
			<g>
				<g>
					<g>
						<path style="fill:#FFFFFF;" d="M108.842,62.485c1.132,5.691-2.556,11.22-8.237,12.35c-5.681,1.13-11.204-2.567-12.336-8.258
							c-1.132-5.691,2.556-11.22,8.237-12.35C102.187,53.097,107.71,56.794,108.842,62.485z"/>
						<g>
							<path style="fill:#62493E;" d="M106.238,63.003c0.845,4.25-1.909,8.379-6.152,9.223c-4.243,0.844-8.367-1.917-9.213-6.167
								c-0.845-4.25,1.909-8.379,6.152-9.223C101.268,55.991,105.392,58.753,106.238,63.003z"/>
							<g>
								<path style="fill:#312017;" d="M104.92,63.248c0.701,3.523-1.582,6.946-5.099,7.645c-3.517,0.699-6.936-1.59-7.636-5.112
									c-0.701-3.523,1.582-6.946,5.099-7.645C100.8,57.436,104.219,59.725,104.92,63.248z"/>
								<path style="fill:#FFFFFF;" d="M96.731,61.642c0.129,0.649-0.291,1.279-0.939,1.407c-0.647,0.129-1.277-0.293-1.406-0.941
									c-0.129-0.648,0.291-1.279,0.939-1.407C95.973,60.572,96.602,60.993,96.731,61.642z"/>
								<path style="fill:#FFFFFF;" d="M94.731,65.009c0.081,0.408-0.183,0.805-0.591,0.886c-0.408,0.081-0.803-0.184-0.885-0.592
									c-0.081-0.408,0.183-0.805,0.591-0.886C94.254,64.336,94.65,64.601,94.731,65.009z"/>
							</g>
						</g>
					</g>
				</g>
				<g>
					<g>
						<path style="fill:#FFFFFF;" d="M149.579,54.383c1.132,5.691-2.556,11.22-8.237,12.35c-5.681,1.13-11.204-2.568-12.336-8.258
							c-1.132-5.691,2.556-11.22,8.237-12.35C142.924,44.995,148.447,48.692,149.579,54.383z"/>
						<g>
							<path style="fill:#62493E;" d="M146.975,54.901c0.845,4.25-1.909,8.379-6.152,9.223c-4.243,0.844-8.367-1.918-9.213-6.167
								c-0.845-4.25,1.909-8.379,6.152-9.223S146.129,50.651,146.975,54.901z"/>
							<g>
								<path style="fill:#312017;" d="M145.657,55.146c0.701,3.523-1.582,6.946-5.099,7.645c-3.517,0.7-6.936-1.589-7.636-5.112
									c-0.701-3.523,1.582-6.946,5.099-7.645C141.537,49.335,144.956,51.624,145.657,55.146z"/>
								<path style="fill:#FFFFFF;" d="M137.468,53.54c0.129,0.648-0.291,1.279-0.939,1.407c-0.647,0.129-1.277-0.293-1.406-0.941
									c-0.129-0.649,0.291-1.279,0.939-1.408C136.71,52.47,137.339,52.892,137.468,53.54z"/>
								<path style="fill:#FFFFFF;" d="M135.468,56.907c0.081,0.408-0.183,0.805-0.591,0.886c-0.408,0.081-0.804-0.184-0.885-0.592
									c-0.081-0.408,0.183-0.805,0.591-0.886C134.99,56.234,135.387,56.499,135.468,56.907z"/>
							</g>
						</g>
					</g>
				</g>
			</g>
			<g>
				<path style="fill:#272628;" d="M93.075,53.885c0,0,10.473,1.082,15.276,6.943C109.434,62.149,102.71,44.13,93.075,53.885z"/>
				<path style="fill:#272628;" d="M140.019,44.549c0,0-9.262,5.007-11.457,12.26C128.067,58.443,127.385,39.223,140.019,44.549z"/>
			</g>
		</g>
	</g>
</g>
</svg>
