<?xml version="1.0" encoding="utf-8"?>
<!-- Generator: Adobe Illustrator 27.5.0, SVG Export Plug-In . SVG Version: 6.00 Build 0)  -->
<svg version="1.1" id="Layer_1" xmlns="http://www.w3.org/2000/svg" xmlns:xlink="http://www.w3.org/1999/xlink" x="0px" y="0px"
	 viewBox="0 0 369.717 313.02" style="enable-background:new 0 0 369.717 313.02;" xml:space="preserve">
<g>
	<path style="fill:#EEECDD;" d="M244.156,213.492c-1.168-1.822-3.057-3.047-4.862-4.161c-1.882-1.161-3.597-2.354-5.069-4.021
		c-7.023-7.956-7.104-19.609-6.013-29.577c0.602-5.498,1.609-10.94,2.368-16.417c0.712-5.141,1.167-10.335,1.223-15.526
		c0.105-9.569-1.387-19.131-5.868-27.68c-2.176-4.152-5.041-8.014-8.177-11.493c-2.89-3.207-6.39-6.158-10.843-6.622
		c-4.443-0.462-8.851,1.696-12.193,4.453c-3.455,2.85-6.254,6.38-8.686,10.122c-5.397,6.234-8.684,13.818-11.05,21.683
		c-2.974,9.887-4.383,20.263-4.186,30.584c0.374,19.489,6.228,39.797,20.715,53.515c3.425,3.243,7.248,5.89,11.415,8.085
		c3.583,1.887,7.188,3.799,10.416,6.263c3.101,2.366,5.868,5.356,7.255,9.06c1.693,4.522,1.679,9.831,1.228,14.573
		c-0.464,4.883-1.657,9.903-3.89,14.297c-1.611,3.172-4.935,5.103-6.684,8.215c-0.466,0.829-0.785,1.755-0.94,2.698
		c0.201,0.513,0.465,1.006,0.817,1.462c1.381,1.79,3.615,2.687,5.76,3.159c2.699,0.594,5.523,0.59,8.264,0.336
		c2.582-0.24,5.145-0.745,7.634-1.475c2.657-1.733,4.581-4.341,5.683-7.313c2.436-6.569,1.443-13.939,1.353-20.779
		c-0.061-4.631,0.55-9.214,1.396-13.761c1.009-5.418,2.16-10.835,3.369-16.212C245.567,222.635,246.731,217.508,244.156,213.492z"/>
	<path style="fill:#DD6C33;" d="M244.156,213.492c-1.168-1.822-3.057-3.047-4.862-4.161c-1.882-1.161-3.597-2.354-5.069-4.021
		c-7.023-7.956-7.104-19.609-6.013-29.577c0.602-5.498,1.609-10.94,2.368-16.417c0.712-5.141,1.167-10.335,1.223-15.526
		c0.105-9.569-1.387-19.131-5.868-27.68c-2.176-4.152-5.041-8.014-8.177-11.493c-2.89-3.207-6.39-6.158-10.843-6.622
		c-4.443-0.462-8.851,1.696-12.193,4.453c-3.455,2.85-6.254,6.38-8.686,10.122c-5.397,6.234-8.684,13.818-11.05,21.683
		c-2.974,9.887-4.383,20.263-4.186,30.584c0.374,19.489,6.228,39.797,20.715,53.515c3.425,3.243,7.248,5.89,11.415,8.085
		c3.583,1.887,7.188,3.799,10.416,6.263c3.101,2.366,5.868,5.356,7.255,9.06c1.693,4.522,1.679,9.831,1.228,14.573
		c-0.464,4.883-1.657,9.903-3.89,14.297c-1.611,3.172-4.935,5.103-6.684,8.215c-0.466,0.829-0.785,1.755-0.94,2.698
		c0.201,0.513,0.465,1.006,0.817,1.462c1.381,1.79,3.615,2.687,5.76,3.159c2.699,0.594,5.523,0.59,8.264,0.336
		c2.582-0.24,5.145-0.745,7.634-1.475c2.657-1.733,4.581-4.341,5.683-7.313c2.436-6.569,1.443-13.939,1.353-20.779
		c-0.061-4.631,0.55-9.214,1.396-13.761c1.009-5.418,2.16-10.835,3.369-16.212C245.567,222.635,246.731,217.508,244.156,213.492z"/>
	<path style="fill:#4A4B4C;" d="M239.94,252.916c-1.269,2.059-2.489,4.148-3.624,6.289c-0.158,0.299-0.546,0.176-0.653-0.085
		c-1.472-3.595-1.331-7.552-2.013-11.328c-1.533,3.255-2.13,6.841-2.675,10.379c-0.059,0.383-0.583,0.294-0.689,0
		c-1.038-2.877-1.68-5.903-2.854-8.729c-0.185,4.414-0.037,8.951-1.517,13.158c-0.112,0.318-0.596,0.36-0.689,0
		c-0.47-1.81-0.838-3.645-1.233-5.471c-0.552-2.55-1.138-5.119-1.951-7.607c0.104,2.303-0.001,4.618-0.209,6.812
		c-0.464,4.883-1.657,9.903-3.89,14.297c-1.611,3.172-4.935,5.103-6.684,8.215c-0.466,0.829-0.785,1.755-0.94,2.698
		c0.201,0.513,0.465,1.006,0.817,1.462c1.381,1.79,3.615,2.687,5.76,3.159c2.699,0.594,5.523,0.59,8.264,0.336
		c2.582-0.24,5.145-0.745,7.634-1.475c2.657-1.733,4.581-4.341,5.683-7.313c2.436-6.569,1.443-13.939,1.353-20.779
		C239.811,255.591,239.855,254.252,239.94,252.916z"/>
	<path style="opacity:0.37;fill:#828589;" d="M244.156,213.492c-1.168-1.822-3.057-3.047-4.862-4.161
		c-1.882-1.161-3.597-2.354-5.069-4.021c-7.023-7.956-7.104-19.609-6.013-29.577c0.602-5.498,1.609-10.94,2.368-16.417
		c0.712-5.141,1.167-10.335,1.223-15.526c0.105-9.569-1.387-19.131-5.868-27.68c-2.176-4.152-5.041-8.014-8.177-11.493
		c-2.89-3.207-6.39-6.158-10.843-6.622c-4.443-0.462-8.851,1.696-12.193,4.453c-3.455,2.85-6.254,6.38-8.686,10.122
		c-2.746,3.172-4.944,6.694-6.754,10.425c0.906-1.546,1.842-3.07,2.817-4.557c3.083-4.705,6.824-9.279,11.787-12.088
		c4.265-2.413,9.61-3.473,14.265-1.549c4.083,1.687,6.97,5.301,8.894,9.165c2.102,4.223,3.272,8.904,3.789,13.579
		c1.718,15.542-1.016,31.038-2.215,46.507c-0.307,3.959-0.513,7.927-0.513,11.899c-0.001,3.278,0.235,6.558,1.204,9.708
		c1.632,5.306,5.359,9.487,8.827,13.682c0.188,0.227,0.08,0.614-0.253,0.61c-2.772-0.033-5.561-0.901-8.32-0.592
		c0.4,0.135,0.797,0.277,1.188,0.434c6.136,2.464,10.378,7.56,12.675,13.657c2.49,6.608,2.925,13.911,2.56,20.903
		c-0.347,6.641-1.447,13.28-3.227,19.687c-0.617,2.222-1.216,4.483-1.966,6.663c-0.697,2.03-1.646,3.884-3.145,5.438
		c-2.011,2.085-5.012,3.164-7.784,3.757c-2.553,0.546-6.14,0.791-9.073-0.055c-0.216,0.549-0.38,1.12-0.476,1.701
		c0.201,0.513,0.465,1.006,0.817,1.462c1.381,1.79,3.615,2.687,5.76,3.159c2.699,0.594,5.523,0.59,8.264,0.336
		c2.582-0.24,5.145-0.745,7.634-1.475c2.657-1.733,4.581-4.341,5.683-7.313c2.436-6.569,1.443-13.939,1.353-20.779
		c-0.061-4.631,0.55-9.214,1.396-13.761c1.009-5.418,2.16-10.835,3.369-16.212C245.567,222.635,246.731,217.508,244.156,213.492z"/>
	<path style="fill:#998B81;" d="M216.958,276.682c-0.833,0.212-1.601,0.688-2.248,1.265c-0.867,0.773-1.581,1.709-2.169,2.708
		c-0.553,0.939-0.753,1.968-0.806,3.021c0.158,0.155,0.326,0.3,0.497,0.44C212.632,281.1,214.411,278.344,216.958,276.682z"/>
	<path style="fill:#998B81;" d="M220.77,281.979c-0.764,1.425-1.203,2.976-1.38,4.565c0.751,0.071,1.506,0.108,2.262,0.113
		c-0.32-2.571,0.086-5.374,1.36-7.644C222.128,279.884,221.363,280.872,220.77,281.979z"/>
	<g>
		<path style="fill:#DD6C33;" d="M103.237,308.257c3.132-0.223,6.248-0.739,9.242-1.699c0.667-0.214,1.333-0.45,1.989-0.711
			c3.84-1.531,5.396-5.724,5.852-9.487c1.23-10.155-0.04-20.491,0.96-30.699c0.824-8.413,1.94-16.799,2.933-25.193
			c0.991-8.38,1.899-16.775,2.4-25.2c0.472-7.923,0.538-15.824-0.429-23.715c-0.946-7.718-2.765-15.35-5.557-22.612
			c-2.99-7.777-13.59-26.826-24.511-20.323c-2.417,1.439-4.143,3.787-5.651,6.162c-8.815,13.872-11.849,30.999-9.489,47.172
			c1.251,8.569,5.005,16.863,8.234,24.995c6.518,16.413,9.614,34.114,8.98,51.767c-0.194,5.418-1.318,10.92-5.064,15.01
			c-1.57,1.714-3.294,3.397-4.114,5.572C85.832,307.73,98.059,308.626,103.237,308.257z"/>
		<path style="fill:#4A4B4C;" d="M123.38,247.352c-1.676,2.635-2.86,5.612-3.744,8.605c-0.107,0.362-0.565,0.315-0.689,0
			c-1.061-2.688-1.45-5.56-1.557-8.434c-1.93,5.411-1.976,11.338-2.814,16.974c-0.045,0.304-0.525,0.344-0.654,0.085
			c-2.628-5.287-3.923-11.053-5.376-16.74c-0.721,3.253-0.957,6.604-1.233,9.917c-0.035,0.421-0.549,0.463-0.702,0.095
			c-1.415-3.404-2.675-7.007-4.763-10.078c0.765,4.973,1.034,10.015,1.037,15.043c0,0.415-0.581,0.471-0.702,0.095
			c-0.629-1.956-1.281-3.905-1.969-5.841c-1.632-4.594-3.477-9.131-5.683-13.483c2.828,11.462,4.084,23.302,3.66,35.122
			c-0.194,5.418-1.318,10.92-5.064,15.01c-1.57,1.714-3.294,3.397-4.114,5.572c-3.181,8.434,9.046,9.33,14.224,8.961
			c3.132-0.223,6.248-0.739,9.242-1.699c0.668-0.214,1.333-0.449,1.989-0.711c3.84-1.531,5.396-5.724,5.852-9.487
			c1.23-10.155-0.04-20.491,0.96-30.699C121.879,259.549,122.632,253.45,123.38,247.352z"/>
		<path style="opacity:0.37;fill:#828589;" d="M126.185,191.553c-0.946-7.718-2.765-15.35-5.557-22.612
			c-2.99-7.777-13.59-26.826-24.511-20.323c-2.417,1.439-4.143,3.787-5.652,6.161c-8.814,13.872-11.849,30.999-9.489,47.172
			c0.21,1.44,0.496,2.872,0.833,4.297c0.946,0.043,1.889,0.136,2.824,0.287c4.87,0.786,9.541,2.82,13.743,5.357
			c4.374,2.641,8.438,5.962,11.654,9.949c1.442,1.787,2.724,3.717,3.678,5.811c1.083,2.377,1.745,4.97,2.248,7.525
			c1.185,6.03,1.255,12.232,0.896,18.348c-0.18,3.069-0.474,6.129-0.818,9.184c-0.328,2.906-0.808,5.81-1.057,8.723
			c-0.393,4.607,0.193,9.202,0.469,13.797c0.239,3.987,0.252,8.214-1.573,11.872c-0.925,1.855-2.304,3.436-3.938,4.701
			c-1.942,1.503-4.254,2.73-6.639,3.345c-4.124,1.064-8.58,0.128-11.848-2.625c-1.012-0.852-1.852-1.842-2.535-2.922
			c-2.767,8.146,9.211,9.02,14.325,8.656c3.132-0.223,6.248-0.739,9.242-1.699c0.667-0.214,1.333-0.45,1.989-0.711
			c3.84-1.531,5.396-5.724,5.852-9.487c1.23-10.155-0.04-20.491,0.96-30.699c0.824-8.413,1.94-16.799,2.933-25.193
			c0.991-8.38,1.899-16.775,2.4-25.2C127.086,207.346,127.152,199.444,126.185,191.553z"/>
		<path style="fill:#998B81;" d="M94.495,296.9c-0.353,0.235-0.696,0.484-1.016,0.763c-2.121,1.853-3.461,4.513-3.822,7.294
			c0.397,0.453,0.88,0.85,1.43,1.196C90.915,302.849,92.273,299.404,94.495,296.9z"/>
		<path style="fill:#998B81;" d="M101.004,308.051c-0.804-3.675-0.016-8.096,2.524-10.983c-0.267,0.19-0.525,0.394-0.771,0.613
			c-2.839,2.514-4.502,6.669-4.216,10.531c0.883,0.075,1.739,0.107,2.535,0.111C101.054,308.231,101.024,308.142,101.004,308.051z"
			/>
	</g>
	<g>
		<path style="fill:#AF5D30;" d="M357.414,224.97c-4.94-5.559-8.472-12.364-10.937-19.344c-3.171-8.982-3.959-18.377-4.051-27.851
			c-0.113-11.634,0.708-23.455-1.72-34.924c-2.204-10.411-7.12-19.93-14.224-27.835c-6.817-7.585-15.303-13.74-24.55-18.022
			c-7.476-3.462-15.46-5.13-23.624-5.936c-7.958-0.785-15.963-0.862-23.935-1.457c-3.74-0.279-7.497-0.679-11.201-1.337
			c-0.875,0.826-1.649,1.755-2.294,2.733c-2.312,3.505-3.135,7.636-2.988,11.785c0.291,8.213,4.849,15.032,10.465,20.693
			c5.908,5.956,12.689,10.943,17.891,17.588c11.229,14.344,16.351,32.257,24.556,48.286c7.172,14.009,18.037,25.859,31.991,33.304
			c12.629,6.738,27.16,9.414,41.378,8.198C361.67,229.229,359.402,227.207,357.414,224.97z"/>
		<path style="fill:#97908A;" d="M348.996,227.197c-6.074-3.65-11.325-8.633-15.84-14.061c-4.276-5.141-7.769-10.737-10.732-16.719
			c-4.12-8.319-7.093-17.155-9.547-26.092c-2.161-7.869-3.669-15.908-6.493-23.582c-2.347-6.378-5.369-12.517-9.081-18.214
			c-3.562-5.466-7.772-10.521-12.618-14.896c-4.748-4.286-10.113-7.894-15.939-10.547c-5.978-2.722-12.421-4.396-18.965-4.948
			c-3.881-0.327-7.774-0.251-11.636,0.149c-0.229,1.477-0.308,2.985-0.255,4.496c0.291,8.213,4.849,15.031,10.465,20.693
			c5.908,5.956,12.689,10.943,17.891,17.588c11.229,14.344,16.351,32.257,24.556,48.286c7.172,14.009,18.037,25.859,31.991,33.304
			c10.78,5.752,22.947,8.533,35.121,8.471C354.781,230.252,351.772,228.865,348.996,227.197z"/>
		<path style="fill:#4A4B4C;" d="M335.762,128.669c1.883,5.64,2.811,11.573,2.924,17.512c0.112,5.837-0.578,11.705-2.184,17.323
			c-0.101,0.352-0.631,0.266-0.687-0.065c-0.66-3.905-0.922-7.935-2.117-11.729c-0.643,1.262-1.132,2.601-1.508,3.965
			c-1.69,6.115-1.435,12.539-2.449,18.763c-0.068,0.414-0.603,0.408-0.708,0.024c-1.127-4.091-0.625-8.385-1.394-12.524
			c-1.076,1.272-1.661,2.938-2.071,4.526c-0.931,3.604-1.015,7.369-1.257,11.063c-0.157,2.405-0.223,4.782-0.045,7.19
			c0.203,2.747,0.606,5.474,0.94,8.206c0.046,0.378-0.374,0.524-0.626,0.29c-3.84-3.552-4.959-8.877-7.79-13.111
			c0.044,5.036,2.116,9.81,3.197,14.674c0.083,0.375-0.396,0.521-0.627,0.29c-1.216-1.219-2.201-2.636-3.162-4.059
			c-0.883-1.308-1.753-2.629-2.765-3.843c-1.002-1.201-2.188-2.255-3.327-3.325c-2.248-2.114-4.745-4.097-7.503-5.519
			c1.895,6.063,5.23,11.598,6.781,17.783c0.094,0.375-0.4,0.517-0.626,0.29c-1.763-1.768-3.411-3.644-5.121-5.462
			c-1.451-1.542-2.963-3.028-4.645-4.32c-1.894-1.456-3.972-2.516-6.086-3.607c-2.226-1.149-4.447-2.342-6.715-3.423
			c1.463,3.302,2.975,6.574,4.611,9.769c7.171,14.009,18.037,25.859,31.991,33.304c12.629,6.738,27.16,9.414,41.378,8.198
			c-2.501-1.624-4.769-3.646-6.757-5.883c-4.939-5.559-8.472-12.364-10.937-19.344c-3.171-8.982-3.959-18.377-4.051-27.851
			c-0.113-11.634,0.708-23.455-1.72-34.924c-1.05-4.962-2.723-9.717-4.949-14.196C335.759,128.66,335.761,128.664,335.762,128.669z"
			/>
		<path style="opacity:0.25;fill:#312017;" d="M300.105,200.394c-6.13-10.619-10.04-22.336-11.781-34.463
			c-0.862-6.006-1.065-12.016-1.286-18.068c-0.183-5.011-0.528-10.018-1.115-14.998c-1.244-10.563-3.504-21.306-8.316-30.866
			c-2.132-4.235-4.81-8.218-8.16-11.584c-5.025-0.27-10.056-0.44-15.074-0.814c-3.74-0.279-7.497-0.679-11.202-1.337
			c-0.875,0.826-1.649,1.755-2.294,2.733c-2.312,3.505-3.135,7.636-2.988,11.785c0.291,8.213,4.849,15.031,10.465,20.693
			c5.908,5.956,12.689,10.943,17.891,17.588c11.229,14.344,16.351,32.257,24.556,48.286c4.401,8.597,10.199,16.374,17.242,22.826
			C305.149,208.427,302.479,204.507,300.105,200.394z"/>
	</g>
	<path style="fill:#AF5D30;" d="M272.55,117.937c-2.22-9.243-5.961-18.37-11.781-25.947c-5.702-7.424-13.525-13.126-22.726-15.26
		c-11.255-2.61-23.028-0.566-34.072,2.079c-11.288,2.705-22.536,6.38-34.188,7.123c-11.012,0.703-21.967-1.756-30.803-8.58
		c-7.433-5.74-13.053-13.391-19.641-20.008c-6.658-6.689-14.402-12.126-24.058-12.993c-4.612-0.414-9.35,0.068-13.883,0.944
		c-5.037,0.974-10.061,2.546-14.548,5.065c-4.517,2.536-8.26,6.042-9.929,11.069c-0.926,2.79-1.359,5.865-1.161,8.801
		c0.231,3.415,1.361,6.658,1.86,10.029c0.088,0.593,0.152,1.19,0.222,1.786c-0.937,5.574-2.233,11.086-3.464,16.6
		c-1.448,6.484-2.585,13.018-3.754,19.557c-1.168,6.53-2.275,13.107-2.405,19.755c-0.131,6.698,0.798,13.395,3.088,19.706
		c2.028,5.589,4.933,10.873,8.46,15.654c6.79,9.201,15.847,16.558,25.679,22.298c10.607,6.193,22.331,11.222,34.324,13.952
		c19.598,4.461,37.094-3.605,55.613-8.764c19.204-5.35,39.52-0.954,58.837-5.643c11.648-2.827,22.502-9.241,29.599-19.041
		c6.103-8.428,9.442-18.638,10.649-28.907C275.612,137.467,274.839,127.464,272.55,117.937z M59.17,69.702
		c-0.021-0.259-0.048-0.517-0.057-0.777c-0.04-1.133,0.009-2.278,0.144-3.413c-0.005,1.162-0.022,2.323-0.055,3.479
		C59.195,69.228,59.18,69.465,59.17,69.702z"/>
	<path style="opacity:0.57;fill:#AF5D30;" d="M270.669,111.291c-2.111-1.036-4.386-1.761-6.665-2.241
		c-3.878-0.818-7.954-0.984-11.877-0.389c-4.161,0.631-8.183,2.145-11.715,4.431c-3.852,2.493-7.13,5.824-9.837,9.513
		c-1.373,1.871-2.608,3.841-3.715,5.881c-0.791,1.458-1.604,2.95-2.126,4.531c-0.66,2.001-1.036,4.096-1.377,6.17
		c-0.914,5.562-1.475,11.175-2.379,16.739c-0.893,5.493-1.981,11.147-4.401,16.201c-1.851,3.867-4.836,7.464-9.344,7.992
		c-2.525,0.296-5.116-0.376-7.418-1.379c-2.95-1.285-5.262-3.563-6.977-6.25c-3.74-5.859-4.998-12.905-8.018-19.109
		c-1.493-3.068-3.447-5.992-6.225-8.04c-1.499-1.105-3.234-1.551-4.963-2.176c-1.406-0.508-3.211-1.208-3.589-2.85
		c-0.189-0.82,0.449-1.451,0.388-2.237c-0.046-0.6-0.576-1.228-0.862-1.749c-0.255-0.464-0.502-0.932-0.743-1.402
		c-0.974-1.902-1.843-3.854-2.807-5.761c-0.96-1.9-2.03-3.756-3.366-5.419c-1.533-1.909-3.381-3.513-5.428-4.85
		c-0.342-0.224-0.122-0.744,0.275-0.653c3.349,0.761,6.382,2.229,9.233,4.066c-0.937-1.171-1.937-2.289-3.002-3.347
		c-5.58-5.542-12.666-9.618-20.18-11.891c-0.296-0.09-0.351-0.491-0.085-0.654c3.156-1.932,6.369-3.77,9.575-5.618
		c5.493-3.167,10.994-6.381,16.01-10.279c2.031-1.579,3.959-3.277,5.769-5.088c-1.671,0.219-3.348,0.394-5.035,0.501
		c-11.012,0.702-21.967-1.756-30.803-8.58c-7.433-5.741-13.053-13.391-19.641-20.009c-6.658-6.689-14.402-12.126-24.058-12.993
		c-4.612-0.414-9.35,0.068-13.883,0.944c-5.037,0.974-10.061,2.546-14.548,5.065c-4.517,2.536-8.26,6.042-9.929,11.069
		c-0.926,2.79-1.359,5.864-1.161,8.801c0.231,3.414,1.361,6.658,1.86,10.029c0.088,0.593,0.152,1.19,0.222,1.786
		c-0.938,5.574-2.233,11.086-3.464,16.6c-1.448,6.484-2.585,13.018-3.754,19.557c-1.168,6.529-2.275,13.107-2.405,19.754
		c-0.131,6.698,0.798,13.395,3.088,19.706c2.028,5.589,4.933,10.873,8.46,15.654c6.79,9.201,15.847,16.558,25.679,22.298
		c10.607,6.192,22.331,11.222,34.324,13.952c19.598,4.461,37.094-3.604,55.613-8.763c19.204-5.35,39.52-0.954,58.837-5.643
		c11.648-2.827,22.502-9.241,29.599-19.041c6.103-8.428,9.442-18.638,10.649-28.907c1.145-9.744,0.371-19.746-1.917-29.274
		C272.015,115.708,271.389,113.486,270.669,111.291z M59.202,68.991c-0.007,0.237-0.023,0.474-0.032,0.712
		c-0.022-0.259-0.048-0.517-0.057-0.777c-0.04-1.133,0.009-2.278,0.144-3.413C59.253,66.674,59.235,67.835,59.202,68.991z"/>
	<g>
		<path style="fill:#DD6C33;" d="M171.927,308.257c3.132-0.223,6.248-0.739,9.242-1.699c0.667-0.214,1.333-0.45,1.989-0.711
			c3.84-1.531,5.396-5.724,5.852-9.487c1.23-10.155-0.04-20.491,0.96-30.699c0.824-8.413,1.94-16.799,2.933-25.193
			c0.991-8.38,1.899-16.775,2.4-25.2c0.472-7.923,0.538-15.824-0.429-23.715c-0.946-7.718-2.765-15.35-5.557-22.612
			c-2.99-7.777-13.59-26.826-24.511-20.323c-2.417,1.439-4.143,3.787-5.651,6.162c-8.814,13.872-11.849,30.999-9.489,47.172
			c1.251,8.569,5.005,16.863,8.234,24.995c6.518,16.413,9.614,34.114,8.98,51.767c-0.195,5.418-1.318,10.92-5.064,15.01
			c-1.57,1.714-3.294,3.397-4.114,5.572C154.522,307.73,166.749,308.626,171.927,308.257z"/>
		<path style="fill:#4A4B4C;" d="M191.845,249.192c-0.725,0.844-1.412,1.722-2.026,2.659c-1.552,2.369-2.733,4.953-3.76,7.585
			c-0.115,0.295-0.615,0.382-0.689,0c-0.582-2.982-0.443-6.094-0.174-9.131c-2.062,4.012-3.485,8.309-4.83,12.61
			c-0.107,0.344-0.579,0.335-0.689,0c-1.532-4.642-1.846-9.603-3.457-14.218c-1.146,3.481-1.037,7.248-2.18,10.739
			c-0.115,0.352-0.565,0.325-0.689,0c-1.456-3.808-2.261-8.185-4.906-11.398c0.377,4.413,1.194,8.779,1.496,13.201
			c0.029,0.426-0.577,0.452-0.702,0.095c-0.5-1.425-1.025-2.84-1.594-4.239c-0.824-2.026-1.747-4.045-2.808-5.986
			c1.673,9.087,2.376,18.352,2.044,27.605c-0.195,5.418-1.318,10.92-5.064,15.01c-1.57,1.714-3.294,3.397-4.114,5.572
			c-3.181,8.434,9.046,9.33,14.224,8.961c3.132-0.223,6.248-0.739,9.242-1.699c0.667-0.214,1.333-0.449,1.989-0.711
			c3.84-1.531,5.396-5.724,5.852-9.487c1.23-10.155-0.04-20.491,0.96-30.699C190.508,260.163,191.173,254.677,191.845,249.192z"/>
		<path style="opacity:0.37;fill:#828589;" d="M194.874,191.553c-0.946-7.718-2.765-15.35-5.557-22.612
			c-2.99-7.777-13.59-26.826-24.511-20.323c-2.064,1.229-3.622,3.122-4.973,5.127c1.234-1.203,2.634-2.225,4.241-2.873
			c2.308-0.931,4.914-0.985,7.155,0.155c2.202,1.12,3.835,3.143,5.099,5.214c2.876,4.715,4.383,10.271,5.872,15.547
			c2.37,8.395,3.568,17.092,3.973,25.796c0.417,8.935,0.006,17.893-0.845,26.791c-0.855,8.939-2.317,17.799-3.312,26.72
			c-1.009,9.041-1.487,18.166-0.596,27.238c0.234,2.384,0.519,4.785,0.993,7.135c0.35,1.737,0.742,3.465,0.942,5.229
			c0.344,3.023-0.012,6.083-2.088,8.448c-3.574,4.072-9.634,5.619-14.862,5.363c-3.26-0.16-6.622-1.102-9.21-3.028
			c-0.437,6.407,10.04,7.111,14.731,6.777c3.132-0.223,6.248-0.739,9.242-1.699c0.667-0.214,1.333-0.45,1.989-0.711
			c3.84-1.531,5.396-5.724,5.852-9.487c1.23-10.155-0.04-20.491,0.96-30.699c0.824-8.413,1.94-16.799,2.933-25.193
			c0.991-8.38,1.899-16.775,2.4-25.2C195.775,207.346,195.841,199.444,194.874,191.553z"/>
		<path style="fill:#998B81;" d="M163.184,296.9c-0.353,0.235-0.696,0.484-1.016,0.763c-2.121,1.853-3.46,4.513-3.822,7.294
			c0.397,0.453,0.88,0.85,1.43,1.196C159.604,302.849,160.963,299.404,163.184,296.9z"/>
		<path style="fill:#998B81;" d="M169.694,308.051c-0.804-3.675-0.016-8.096,2.524-10.983c-0.267,0.19-0.525,0.394-0.771,0.613
			c-2.839,2.514-4.502,6.669-4.216,10.531c0.883,0.075,1.739,0.107,2.535,0.111C169.743,308.231,169.714,308.142,169.694,308.051z"
			/>
	</g>
	<path style="fill:#DD6C33;" d="M295.399,221.236c-1.168-1.822-3.057-3.047-4.862-4.161c-1.882-1.161-3.597-2.354-5.069-4.021
		c-7.023-7.956-7.104-19.609-6.013-29.577c0.602-5.498,1.609-10.94,2.368-16.417c0.712-5.141,1.167-10.335,1.223-15.526
		c0.105-9.569-1.387-19.131-5.868-27.68c-2.177-4.152-5.041-8.013-8.177-11.493c-2.89-3.207-6.39-6.158-10.843-6.621
		c-4.443-0.462-8.851,1.696-12.193,4.452c-3.455,2.85-6.254,6.38-8.686,10.122c-5.397,6.234-8.684,13.818-11.05,21.683
		c-2.974,9.887-4.383,20.263-4.186,30.584c0.374,19.489,6.228,39.797,20.715,53.515c3.425,3.243,7.248,5.89,11.415,8.085
		c3.583,1.887,7.188,3.799,10.416,6.263c3.101,2.366,5.868,5.356,7.255,9.06c1.693,4.522,1.679,9.831,1.228,14.573
		c-0.464,4.883-1.657,9.903-3.89,14.297c-1.611,3.172-4.935,5.103-6.684,8.215c-0.466,0.829-0.785,1.755-0.94,2.699
		c0.201,0.512,0.464,1.005,0.817,1.462c1.382,1.79,3.615,2.687,5.76,3.159c2.699,0.594,5.523,0.59,8.264,0.336
		c2.581-0.24,5.145-0.745,7.634-1.475c2.657-1.733,4.581-4.341,5.683-7.312c2.436-6.569,1.443-13.939,1.353-20.779
		c-0.061-4.632,0.549-9.214,1.397-13.761c1.009-5.418,2.16-10.835,3.369-16.212C296.81,230.379,297.974,225.251,295.399,221.236z"/>
	<path style="fill:#4A4B4C;" d="M292.673,249.851c-1.506,1.82-2.527,4.097-3.434,6.239c-0.951,2.243-1.723,4.552-2.595,6.826
		c-0.1,0.261-0.504,0.388-0.653,0.085c-1.741-3.527-2.146-7.468-2.896-11.289c-0.896,3.769-0.972,7.691-1.512,11.52
		c-0.054,0.383-0.585,0.293-0.689,0c-1.333-3.761-1.984-7.84-3.836-11.394c0.538,4.415,0.958,8.897,0.097,13.292
		c-0.067,0.342-0.621,0.34-0.689,0c-0.283-1.415-0.573-2.829-0.906-4.232c-0.65-2.739-1.482-5.558-2.793-8.087
		c0.734,3.684,0.652,7.639,0.307,11.266c-0.464,4.883-1.657,9.903-3.89,14.297c-1.611,3.171-4.935,5.103-6.684,8.215
		c-0.466,0.829-0.785,1.755-0.94,2.699c0.201,0.513,0.464,1.005,0.817,1.462c1.382,1.79,3.615,2.687,5.76,3.159
		c2.699,0.594,5.523,0.59,8.264,0.336c2.582-0.24,5.145-0.745,7.634-1.475c2.657-1.733,4.581-4.341,5.683-7.313
		c2.436-6.569,1.443-13.939,1.353-20.778c-0.061-4.632,0.55-9.214,1.397-13.761C292.534,250.562,292.605,250.206,292.673,249.851z"
		/>
	<path style="opacity:0.37;fill:#828589;" d="M295.399,221.236c-1.168-1.822-3.057-3.047-4.862-4.161
		c-1.882-1.161-3.597-2.354-5.069-4.021c-7.023-7.956-7.104-19.609-6.013-29.577c0.602-5.498,1.609-10.94,2.368-16.417
		c0.712-5.141,1.167-10.335,1.223-15.526c0.105-9.569-1.387-19.131-5.868-27.68c-2.177-4.152-5.041-8.013-8.177-11.493
		c-2.89-3.207-6.39-6.158-10.843-6.621c-4.443-0.462-8.851,1.696-12.193,4.452c-3.455,2.85-6.254,6.38-8.686,10.122
		c-2.746,3.172-4.944,6.694-6.754,10.425c0.906-1.546,1.842-3.07,2.817-4.557c3.083-4.705,6.824-9.279,11.787-12.088
		c4.265-2.413,9.61-3.473,14.265-1.549c4.083,1.687,6.97,5.301,8.894,9.165c2.102,4.223,3.272,8.904,3.789,13.579
		c1.718,15.542-1.016,31.038-2.215,46.507c-0.307,3.958-0.513,7.927-0.513,11.899c-0.001,3.278,0.235,6.558,1.204,9.708
		c1.632,5.306,5.359,9.487,8.827,13.682c0.188,0.228,0.08,0.614-0.253,0.611c-2.772-0.033-5.56-0.901-8.319-0.592
		c0.4,0.135,0.797,0.277,1.188,0.434c6.136,2.464,10.378,7.56,12.675,13.657c2.49,6.608,2.925,13.911,2.56,20.903
		c-0.347,6.641-1.447,13.279-3.227,19.687c-0.617,2.222-1.216,4.482-1.966,6.663c-0.698,2.029-1.646,3.884-3.145,5.438
		c-2.011,2.085-5.012,3.164-7.784,3.757c-2.553,0.546-6.139,0.791-9.073-0.055c-0.216,0.549-0.381,1.12-0.476,1.701
		c0.201,0.512,0.464,1.005,0.817,1.462c1.382,1.79,3.615,2.687,5.76,3.159c2.699,0.594,5.523,0.59,8.264,0.336
		c2.581-0.24,5.145-0.745,7.634-1.475c2.657-1.733,4.581-4.341,5.683-7.312c2.436-6.569,1.443-13.939,1.353-20.779
		c-0.061-4.632,0.549-9.214,1.397-13.761c1.009-5.418,2.16-10.835,3.369-16.212C296.81,230.379,297.974,225.251,295.399,221.236z"/>
	<path style="fill:#998B81;" d="M268.201,284.426c-0.833,0.212-1.601,0.688-2.248,1.265c-0.867,0.773-1.581,1.709-2.169,2.708
		c-0.553,0.939-0.753,1.968-0.806,3.021c0.158,0.155,0.326,0.3,0.498,0.44C263.875,288.844,265.654,286.087,268.201,284.426z"/>
	<path style="fill:#998B81;" d="M272.012,289.723c-0.764,1.425-1.203,2.976-1.38,4.565c0.751,0.071,1.506,0.108,2.262,0.113
		c-0.32-2.571,0.086-5.374,1.36-7.644C273.37,287.628,272.606,288.616,272.012,289.723z"/>
	<path style="fill:#F0EBC8;" d="M165.072,164.931c-0.627-3.124-1.487-6.327-2.696-9.279c-2.521-6.157-7.006-10.993-12.326-14.88
		c-1.573-1.15-3.201-2.217-4.853-3.247c4.728,1.533,9.004,5.122,13.068,7.589c0.884,0.537,2.088-0.323,2.208-1.254
		c0.226-1.757-0.969-3.482-1.985-4.798c-1.196-1.549-2.587-2.934-3.969-4.314c-1.769-1.767-3.6-3.413-5.65-4.853
		c-0.48-0.337-0.969-0.657-1.461-0.974c4.904,1.923,9.159,5.469,13.816,8.101c1.057,0.597,2.532-0.493,2.369-1.66
		c-0.503-3.604-2.626-6.766-5.118-9.322c-2.657-2.724-5.744-4.989-8.998-6.945c-3.071-1.846-6.37-3.243-9.478-5.021
		c-3.087-1.765-6.029-3.843-8.482-6.43c-1.39-1.465-2.561-3.069-3.53-4.785c-0.277-1.304-0.851-2.486-1.318-3.733
		c-0.469-1.251-0.908-2.514-1.401-3.756c-0.41-1.032-1.729-0.702-2.346-0.043c-1.044,1.117-1.21,2.427-1.281,3.892
		c-0.052,1.095-0.248,2.193-1.375,2.648c-1.093,0.442-2.396,0.311-3.543,0.236c-1.767-0.116-3.531-0.278-5.292-0.462
		c-6.968-0.727-13.884-1.878-20.782-3.094c-5.027-0.886-10.05-1.935-15.136-2.434c-4.828-0.474-9.907-0.487-14.518,1.203
		c-2.324,0.852-4.807,2.335-6.212,4.436c-0.622,0.93-0.82,2.068-1.04,3.144c-0.104,0.509-0.18,1.024-0.295,1.53
		c-0.042,0.185-0.106,0.364-0.149,0.548c-0.01,0.042-0.015,0.062-0.023,0.093c-0.405,0.226-0.715,0.655-0.282,0.98
		c0.08,0.059,0.157,0.099,0.234,0.134c-0.616,2.499-1.211,5.005-1.773,7.513c-0.679,3.032-1.395,6.152-2.622,9.016
		c-2.172,5.067-5.986,9.224-8.102,14.334c-0.443,1.07,0.984,1.156,1.593,0.755c2.54-1.675,4.71-3.796,6.968-5.813
		c-3.835,9.093-4.104,19.993-0.424,29.081c0.409,1.009,1.685,0.443,2.145-0.217c0.244-0.35,0.436-0.716,0.603-1.089
		c0.512,2.415,1.226,4.809,1.955,7.19c1.282,4.188,2.671,8.515,5.027,12.242c1.129,1.786,2.605,3.555,4.672,4.247
		c0.695,0.233,1.557-0.37,1.776-1.011c0.21-0.613,0.34-1.221,0.411-1.826c0.738,1.466,1.567,2.895,2.535,4.269
		c1.34,1.902,2.691,3.825,4.288,5.523c1.569,1.668,3.427,3.268,5.801,3.474c0.831,0.072,1.808-0.827,1.627-1.68
		c-0.185-0.876-0.449-1.722-0.758-2.551c0.334,0.336,0.677,0.665,1.03,0.984c3.313,2.992,7.533,4.982,11.51,6.931
		c3.928,1.925,7.977,3.669,11.944,5.563c0.549,0.156,1.098,0.312,1.642,0.486c5.479,1.751,10.736,4.346,15.372,7.76
		c1.911,1.407,3.722,2.976,5.376,4.692c-0.23-1.447-0.847-2.776-1.543-4.079c3.606,2.445,6.892,5.357,9.737,8.652
		c1.644,0.961,3.202,2.07,4.6,3.366c0.546,0.506,1.057,1.046,1.547,1.605c0.152-0.25,0.234-0.518,0.201-0.758
		c-0.528-3.892-2.699-7.461-5.035-10.717c0.76,0.401,1.497,0.847,2.215,1.295c2.158,1.347,4.207,2.858,6.295,4.309
		c2.116,1.471,4.315,2.76,6.294,4.425c0.46,0.387,0.912,0.783,1.365,1.178c1.429,0.61,2.859,1.216,4.291,1.818
		c-0.56-2.014-0.948-4.076-1.264-6.14c-0.311-2.034-0.606-4.087-0.806-6.136c-0.099-1.01-0.123-2.016-0.102-3.019
		c-0.033-0.217-0.075-0.434-0.102-0.652c-0.278-2.295-0.28-4.625-0.224-6.933c0.108-4.469,0.258-8.932,0.333-13.403
		c0.036-2.177,0.007-4.443,0.34-6.6c0.138-0.894,0.569-1.915,0.963-2.854c0.663,2.033,1.15,4.126,1.505,6.237
		c0.102,0.609,0.866,0.76,1.362,0.658c0.649-0.134,1.267-0.637,1.488-1.266c1.806-5.137,1.899-10.538,0.698-15.822
		c-0.116-0.508-0.248-1.012-0.382-1.514c0.76,1.299,1.602,2.541,2.621,3.66c0.857,0.94,2.292,0.078,2.695-0.888
		C166.155,171.503,165.687,167.994,165.072,164.931z"/>
	<path style="opacity:0.39;fill:#C0C2C4;" d="M165.072,164.931c-0.627-3.124-1.487-6.327-2.696-9.279
		c-2.521-6.157-7.006-10.993-12.326-14.88c-1.573-1.15-3.201-2.217-4.853-3.247c4.728,1.533,9.004,5.122,13.068,7.589
		c0.884,0.537,2.088-0.323,2.208-1.254c0.226-1.757-0.969-3.482-1.985-4.798c-1.196-1.549-2.587-2.934-3.969-4.314
		c-1.769-1.767-3.6-3.413-5.65-4.853c-0.48-0.337-0.969-0.657-1.461-0.974c4.904,1.923,9.159,5.469,13.816,8.101
		c1.057,0.597,2.532-0.493,2.369-1.66c-0.503-3.604-2.626-6.766-5.118-9.322c-2.657-2.724-5.744-4.989-8.998-6.945
		c-3.071-1.846-6.37-3.243-9.478-5.021c-3.087-1.765-6.029-3.843-8.482-6.43c-1.39-1.465-2.561-3.069-3.53-4.785
		c-0.277-1.304-0.851-2.486-1.318-3.733c-0.469-1.251-0.908-2.514-1.401-3.756c-0.41-1.032-1.729-0.702-2.346-0.043
		c-1.044,1.117-1.21,2.427-1.281,3.892c-0.052,1.095-0.248,2.193-1.375,2.648c-1.093,0.442-2.396,0.311-3.543,0.236
		c-1.767-0.116-3.531-0.278-5.292-0.462c-6.968-0.727-13.884-1.878-20.782-3.094c-5.027-0.886-10.05-1.935-15.136-2.434
		c-4.828-0.474-9.907-0.487-14.518,1.203c-2.324,0.852-4.807,2.335-6.212,4.436c-0.622,0.93-0.82,2.068-1.04,3.144
		c-0.104,0.509-0.18,1.024-0.295,1.53c-0.042,0.185-0.106,0.364-0.149,0.548c-0.01,0.042-0.015,0.062-0.023,0.093
		c-0.405,0.226-0.715,0.655-0.282,0.98c0.08,0.059,0.157,0.099,0.234,0.134c-0.616,2.499-1.211,5.005-1.773,7.513
		c-0.113,0.503-0.228,1.009-0.344,1.515c2.901,4.021,6.777,7.251,11.243,9.539c5.99,3.068,12.735,4.487,19.412,4.938
		c6.762,0.456,13.594-0.047,20.248-1.303c3.336-0.63,6.6-1.526,9.874-2.415c3.317-0.901,6.673-1.783,10.107-2.092
		c3.091-0.278,6.28-0.017,9.096,1.376c3.307,1.637,5.6,4.654,7.172,7.915c0.133,0.276-0.085,0.606-0.404,0.525
		c-3.305-0.841-6.758-2.679-10.248-2.405c1.853,0.755,3.646,1.648,5.352,2.695c7.561,4.643,13.237,11.902,16.406,20.146
		c0.133,0.346-0.361,0.586-0.598,0.348c-2.032-2.042-3.795-4.333-5.786-6.414c-1.769-1.849-3.761-3.613-6.157-4.57
		c1.005,1.804,2.095,3.559,3.217,5.292c2.204,3.404,4.513,6.759,6.314,10.402c1.881,3.804,3.095,7.868,3.337,12.118
		c0.017,0.292-0.419,0.497-0.61,0.253c-2.102-2.684-4.009-5.623-6.314-8.15c0.767,2.174,1.335,4.417,1.667,6.708
		c0.989,6.81,0.018,13.717-1.857,20.291c-0.952,3.337-1.883,6.743-2.185,10.212c-0.31,3.562,0.188,7.088,1.658,10.36
		c0.159,0.354-0.257,0.738-0.561,0.433c-1.252-1.252-2.505-2.502-3.781-3.728c-2.428-2.332-4.94-4.597-7.661-6.585
		c-2.298-1.68-4.771-3.197-7.459-4.164c1.806,3.23,3.77,6.369,5.546,9.616c0.188,0.344-0.296,0.756-0.561,0.433
		c-1.311-1.598-2.715-3.117-4.186-4.569c-5.032-4.969-10.843-9.387-17.184-12.588c4.088,4.628,8.255,9.231,11.493,14.509
		c0.214,0.348-0.282,0.724-0.561,0.433c-3.417-3.558-7.8-5.94-12.261-7.935c-3.956-1.77-8.038-3.252-11.954-5.114
		c-3.605-1.715-7.085-3.751-10.196-6.264c-2.805-2.265-5.246-4.942-7.251-7.939c-1.915-2.861-3.422-5.968-4.702-9.159
		c-0.436,5.746,1.514,11.38,3.311,16.768c0.112,0.336-0.361,0.61-0.597,0.348c-1.858-2.062-3.599-4.233-5.156-6.533
		c-2.514-3.712-4.506-7.754-5.93-12.004c-1.289-3.846-2.113-7.824-2.689-11.835c-1.265,5.602-0.453,11.471-0.164,17.15
		c0.018,0.345-0.512,0.499-0.666,0.18c-1.085-2.241-2.107-4.512-3.025-6.827c-1.596-4.022-2.867-8.183-3.582-12.456
		c-0.598-3.571-0.791-7.191-0.586-10.8c-1.608,4.52-2.335,9.345-2.895,14.087c-0.046,0.392-0.569,0.496-0.702,0.095
		c-0.602-1.811-1.173-3.656-1.647-5.524c0.337,3.47,1.13,6.876,2.418,10.057c0.409,1.009,1.685,0.443,2.145-0.217
		c0.244-0.35,0.436-0.716,0.603-1.089c0.512,2.415,1.226,4.809,1.955,7.19c1.282,4.188,2.671,8.515,5.027,12.242
		c1.129,1.786,2.605,3.555,4.672,4.247c0.695,0.233,1.557-0.37,1.776-1.011c0.21-0.613,0.34-1.221,0.411-1.826
		c0.738,1.466,1.567,2.895,2.535,4.269c1.34,1.902,2.691,3.825,4.288,5.523c1.569,1.668,3.427,3.268,5.801,3.474
		c0.831,0.072,1.808-0.827,1.627-1.68c-0.185-0.876-0.449-1.722-0.758-2.551c0.334,0.336,0.677,0.665,1.03,0.984
		c3.313,2.992,7.533,4.982,11.51,6.931c3.928,1.925,7.977,3.669,11.944,5.563c0.549,0.156,1.098,0.312,1.642,0.486
		c5.479,1.751,10.736,4.346,15.372,7.76c1.911,1.407,3.722,2.976,5.376,4.692c-0.23-1.447-0.847-2.776-1.543-4.079
		c3.606,2.445,6.892,5.357,9.737,8.652c1.644,0.961,3.202,2.07,4.6,3.366c0.546,0.506,1.057,1.046,1.547,1.605
		c0.152-0.25,0.234-0.518,0.201-0.758c-0.528-3.892-2.699-7.461-5.035-10.717c0.76,0.401,1.497,0.847,2.215,1.295
		c2.158,1.347,4.207,2.858,6.295,4.309c2.116,1.471,4.315,2.76,6.294,4.425c0.46,0.387,0.912,0.783,1.365,1.178
		c1.429,0.61,2.859,1.216,4.291,1.818c-0.56-2.014-0.948-4.076-1.264-6.14c-0.311-2.034-0.606-4.087-0.806-6.136
		c-0.099-1.01-0.123-2.016-0.102-3.019c-0.033-0.217-0.075-0.434-0.102-0.652c-0.278-2.295-0.28-4.625-0.224-6.933
		c0.108-4.469,0.258-8.932,0.333-13.403c0.036-2.177,0.007-4.443,0.34-6.6c0.138-0.894,0.569-1.915,0.963-2.854
		c0.663,2.033,1.15,4.126,1.505,6.237c0.102,0.609,0.866,0.76,1.362,0.658c0.649-0.134,1.267-0.637,1.488-1.266
		c1.806-5.137,1.899-10.538,0.698-15.822c-0.116-0.508-0.248-1.012-0.382-1.514c0.76,1.299,1.602,2.541,2.621,3.66
		c0.857,0.94,2.292,0.078,2.695-0.888C166.155,171.503,165.687,167.994,165.072,164.931z"/>
	<g>
		<g>
			<path style="fill:#AF5D30;" d="M149.158,12.601c0.086-1.262,0.081-2.537-0.075-3.794c-0.116-0.934-0.306-1.87-0.866-2.647
				c-0.6-0.833-1.5-1.267-2.467-1.465c-0.961,0.181-1.919,0.378-2.869,0.609c-5.137,1.25-10.094,3.175-14.818,5.538
				c-3.918,1.96-7.726,4.204-11.423,6.552c-3.906,2.48-7.731,5.181-11.07,8.399c-1.052,1.014-2.081,2.117-3.02,3.292
				c1.83-0.087,3.669,0.063,5.483,0.473c0.342,0.077-2.56,1.684-3.832,2.269c2.912,0.353,8.638,3.133,8.326,3.237
				c-0.838,0.278-1.709,0.286-2.58,0.316c2.009,0.801,5.469,3.759,5.2,3.742c-0.89-0.057-1.78-0.264-2.67-0.262
				c2.044,1.592,23.891,18.9,25.232,17.438c0.152-0.167,0.291-0.343,0.434-0.517c1.583-3.347,2.89-6.826,3.985-10.361
				c1.752-5.658,2.987-11.46,4.048-17.282C147.118,22.957,148.799,17.878,149.158,12.601z"/>
			<path style="fill:#EDE5D3;" d="M145.447,16.533c0.01-0.625-0.038-1.25-0.112-1.871c-0.1-0.841-0.259-1.689-0.764-2.389
				c-0.523-0.725-1.306-1.102-2.147-1.275c-0.837,0.158-1.671,0.329-2.497,0.53c-4.47,1.088-8.785,2.763-12.895,4.82
				c-3.41,1.705-6.723,3.659-9.941,5.702c-3.399,2.158-6.728,4.509-9.634,7.309c-0.915,0.882-1.811,1.842-2.628,2.865
				c1.593-0.075,3.193,0.055,4.771,0.412c0.297,0.067-2.228,1.465-3.335,1.974c2.534,0.308,7.517,2.727,7.245,2.817
				c-0.729,0.242-1.488,0.249-2.246,0.275c1.748,0.697,4.76,3.272,4.526,3.257c-0.774-0.05-1.549-0.23-2.323-0.228
				c1.779,1.385,20.791,16.448,21.958,15.175c0.133-0.145,0.253-0.299,0.377-0.45c1.377-2.913,2.515-5.941,3.468-9.017
				c1.524-4.924,2.6-9.973,3.523-15.04C143.694,26.452,145.368,21.611,145.447,16.533z"/>
			<path style="fill:#433F37;" d="M142.43,17.153c-2.153,1.513-4.011,3.425-5.995,5.169c0.944-0.371,1.887-0.74,2.818-1.141
				c0.319-0.137,0.651,0.318,0.395,0.568c-2.395,2.33-4.852,4.608-7.049,7.125c1.18-0.653,2.381-1.269,3.65-1.727
				c0.374-0.135,0.682,0.421,0.326,0.629c-2.132,1.252-3.959,2.95-5.559,4.823c-3.191,3.737-5.568,8.146-7.497,12.644
				c-0.229,0.534-0.452,1.072-0.67,1.612c3.482,2.617,7.19,5.316,10.039,7.17c3.041-4.799,5.076-10.236,6.563-15.692
				c0.786-2.883,1.381-5.803,1.979-8.729c0.445-2.177,0.874-4.359,1.118-6.57C142.753,21.161,142.951,19.026,142.43,17.153z"/>
			<path style="fill:#AF5D30;" d="M137.812,43.146c-2.13-3.035-4.437-6.014-7.119-8.586c-2.418-2.318-5.087-4.377-7.979-6.07
				c-4.584-2.683-9.708-4.363-14.979-4.65c-0.739,0.632-1.465,1.279-2.164,1.954c-1.052,1.014-2.081,2.117-3.02,3.292
				c1.83-0.086,3.669,0.064,5.483,0.474c0.342,0.077-2.56,1.684-3.832,2.269c2.912,0.353,8.638,3.133,8.326,3.237
				c-0.838,0.278-1.709,0.286-2.58,0.316c2.009,0.801,5.469,3.759,5.2,3.742c-0.89-0.057-1.78-0.264-2.67-0.262
				c2.044,1.592,23.891,18.9,25.232,17.438c0.152-0.166,0.291-0.343,0.434-0.517c1.167-2.467,2.181-5.006,3.074-7.585
				C140.096,46.502,138.978,44.808,137.812,43.146z"/>
		</g>
		<g>
			<path style="fill:#AF5D30;" d="M26.585,12.601c-0.086-1.262-0.081-2.537,0.075-3.794c0.116-0.934,0.306-1.87,0.866-2.647
				c0.601-0.833,1.5-1.267,2.467-1.465c0.961,0.181,1.92,0.378,2.869,0.609c5.137,1.25,10.094,3.175,14.818,5.538
				c3.918,1.96,7.726,4.204,11.423,6.552c3.906,2.48,7.732,5.181,11.07,8.399c1.052,1.014,2.081,2.117,3.02,3.292
				c-1.83-0.087-3.669,0.063-5.483,0.473c-0.342,0.077,2.56,1.684,3.833,2.269c-2.912,0.353-8.638,3.133-8.326,3.237
				c0.838,0.278,1.709,0.286,2.58,0.316c-2.009,0.801-5.469,3.759-5.2,3.742c0.89-0.057,1.78-0.264,2.669-0.262
				c-2.044,1.592-23.891,18.9-25.231,17.438c-0.153-0.167-0.291-0.343-0.434-0.517c-1.583-3.347-2.89-6.826-3.985-10.361
				c-1.752-5.658-2.987-11.46-4.047-17.282C28.626,22.957,26.944,17.878,26.585,12.601z"/>
			<path style="fill:#EDE5D3;" d="M30.296,16.533c-0.01-0.625,0.038-1.25,0.112-1.871c0.1-0.841,0.259-1.689,0.764-2.389
				c0.523-0.725,1.306-1.102,2.147-1.275c0.837,0.158,1.67,0.329,2.497,0.53c4.471,1.088,8.785,2.763,12.895,4.82
				c3.41,1.705,6.723,3.659,9.941,5.702c3.399,2.158,6.728,4.509,9.633,7.309c0.915,0.882,1.811,1.842,2.629,2.865
				c-1.593-0.075-3.193,0.055-4.771,0.412c-0.297,0.067,2.228,1.465,3.335,1.974c-2.534,0.308-7.517,2.727-7.245,2.817
				c0.729,0.242,1.488,0.249,2.246,0.275c-1.748,0.697-4.76,3.272-4.526,3.257c0.774-0.05,1.549-0.23,2.323-0.228
				c-1.779,1.385-20.791,16.448-21.958,15.175c-0.133-0.145-0.253-0.299-0.377-0.45c-1.377-2.913-2.515-5.941-3.468-9.017
				c-1.525-4.924-2.6-9.973-3.523-15.04C32.049,26.452,30.375,21.611,30.296,16.533z"/>
			<path style="fill:#433F37;" d="M33.313,17.153c2.153,1.513,4.011,3.425,5.995,5.169c-0.943-0.371-1.887-0.74-2.818-1.141
				c-0.319-0.137-0.651,0.318-0.394,0.568c2.395,2.33,4.852,4.608,7.049,7.125c-1.18-0.653-2.381-1.269-3.65-1.727
				c-0.374-0.135-0.682,0.421-0.327,0.629c2.132,1.252,3.959,2.95,5.559,4.823c3.191,3.737,5.568,8.146,7.497,12.644
				c0.229,0.534,0.452,1.072,0.67,1.612c-3.482,2.617-7.19,5.316-10.039,7.17c-3.041-4.799-5.076-10.236-6.563-15.692
				c-0.786-2.883-1.381-5.803-1.979-8.729c-0.444-2.177-0.874-4.359-1.118-6.57C32.99,21.161,32.793,19.026,33.313,17.153z"/>
			<path style="fill:#AF5D30;" d="M68.266,24.063c-2.854,0.914-5.645,2.021-8.336,3.342c-4.243,2.082-8.226,4.684-11.822,7.751
				c-0.915,0.78-1.805,1.589-2.67,2.424c-0.711,0.687-1.48,1.371-2.085,2.156c-0.879,1.137-1.658,2.355-2.489,3.527
				c-0.981,1.382-1.985,2.777-3.161,4.001c-0.778,0.81-1.749,1.752-2.966,1.49c-0.002-0.001-0.004-0.002-0.007-0.002
				c0.845,2.388,1.79,4.741,2.872,7.03c0.143,0.174,0.281,0.351,0.434,0.517c1.341,1.462,23.188-15.846,25.232-17.438
				c-0.89-0.002-1.78,0.204-2.67,0.262c-0.269,0.017,3.191-2.941,5.2-3.742c-0.871-0.03-1.743-0.038-2.58-0.316
				c-0.312-0.103,5.414-2.883,8.326-3.237c-1.272-0.585-4.174-2.192-3.833-2.269c1.814-0.41,3.652-0.56,5.483-0.474
				c-0.939-1.175-1.969-2.278-3.02-3.292C69.554,25.198,68.915,24.625,68.266,24.063z"/>
		</g>
		<path style="fill:#AF5D30;" d="M174.408,86.787c-0.426-1.492-1.085-2.912-1.9-4.23c-2.459-3.979-6.338-7.359-10.725-9.177
			c3.028-0.087,6.207-0.581,8.253-2.924c0.297-0.339-0.372-0.849-0.695-0.725c-0.893,0.344-1.821,0.598-2.771,0.723
			c-3.889,0.511-7.777-0.877-11.075-2.852c-3.281-1.965-6.161-4.572-8.827-7.295c-5.247-5.362-9.648-11.466-14.67-17.027
			c-2.54-2.814-5.248-5.485-8.232-7.829c-2.629-2.065-5.493-3.774-8.544-5.14c-6.306-2.823-13.215-4.324-20.097-4.735
			c-1.709-0.102-3.425-0.136-5.139-0.098c-1.714-0.038-3.429-0.004-5.138,0.098c-6.882,0.411-13.791,1.911-20.097,4.735
			c-3.051,1.366-5.915,3.075-8.543,5.14c-2.984,2.344-5.692,5.016-8.232,7.829c-5.022,5.562-9.423,11.666-14.67,17.027
			c-2.666,2.724-5.545,5.33-8.827,7.295c-3.298,1.975-7.185,3.363-11.075,2.852c-0.95-0.125-1.877-0.379-2.771-0.723
			c-0.323-0.124-0.992,0.386-0.696,0.725c2.046,2.343,5.225,2.837,8.253,2.924c-4.388,1.817-8.267,5.197-10.725,9.177
			c-0.815,1.319-1.474,2.738-1.9,4.23c-0.129,0.453,0.384,0.506,0.673,0.319c2.438-1.581,4.564-3.652,7.197-4.926
			c1.792-0.868,3.711-1.408,5.637-1.921c-1.166,0.792-2.248,1.717-3.253,2.675c-2.265,2.16-4.266,4.669-5.8,7.399
			c-0.732,1.304-1.373,2.68-1.754,4.13c-0.112,0.424,0.381,0.544,0.668,0.317c2.472-1.952,4.516-4.623,7.134-6.406
			c-2.601,2.464-4.789,5.549-5.3,9.067c-0.057,0.394,0.485,0.359,0.688,0.207c2.109-1.584,3.585-3.816,5.535-5.569
			c0.925-0.831,1.928-1.561,2.947-2.272c-2.849,3.504-4.734,7.851-5.453,12.254c-0.279,1.706-0.366,3.44-0.221,5.163
			c0.031,0.368,0.425,0.393,0.684,0.205c2.707-1.967,5.82-3.408,9.194-3.648c2.967-0.21,5.892,0.46,8.628,1.577
			c6.007,2.453,11.125,6.703,16.41,10.37c5.567,3.862,11.55,7.138,18.031,9.183c6.732,2.124,13.842,2.91,20.88,2.943
			c0.632,0.003,1.265-0.003,1.897-0.013c0.632,0.01,1.265,0.016,1.897,0.013c7.037-0.033,14.148-0.819,20.88-2.943
			c6.48-2.045,12.464-5.322,18.031-9.183c5.286-3.666,10.403-7.917,16.411-10.37c2.735-1.117,5.661-1.788,8.628-1.577
			c3.373,0.24,6.486,1.681,9.194,3.648c0.259,0.188,0.652,0.162,0.683-0.205c0.145-1.723,0.058-3.457-0.221-5.163
			c-0.719-4.403-2.604-8.75-5.453-12.254c1.019,0.711,2.023,1.441,2.947,2.272c1.951,1.753,3.426,3.985,5.536,5.569
			c0.203,0.152,0.745,0.187,0.688-0.207c-0.511-3.518-2.698-6.603-5.3-9.067c2.618,1.783,4.661,4.454,7.133,6.406
			c0.287,0.227,0.78,0.108,0.669-0.317c-0.381-1.45-1.022-2.827-1.754-4.13c-1.534-2.731-3.535-5.24-5.8-7.399
			c-1.005-0.958-2.087-1.883-3.253-2.675c1.926,0.513,3.845,1.053,5.637,1.921c2.632,1.274,4.759,3.345,7.197,4.926
			C174.025,87.293,174.538,87.24,174.408,86.787z"/>
		<path style="fill:#F0EBC8;" d="M172.508,82.556c-1.35-2.184-3.137-4.175-5.191-5.838c-6.262-1.748-13.121-1.83-19.486-1.314
			c3.859,1.62,7.162,4.048,8.602,8.222c0.098,0.285-0.274,0.583-0.525,0.404c-5.298-3.773-11.759-5.109-18.147-5.55
			c2.677,1.516,5.321,3.545,6.617,6.326c0.121,0.26-0.081,0.634-0.404,0.525c-3.072-1.031-6.082-2.246-9.204-3.124
			c-2.736-0.769-5.67-1.353-8.505-0.895c1.833,0.805,3.634,1.698,5.089,3.104c0.231,0.223,0.047,0.597-0.253,0.61
			c-3.25,0.142-6.519,0.071-9.756,0.441c-2.836,0.324-5.546,1.085-8.055,2.384c2.804-0.322,5.629-0.268,8.417,0.269
			c0.292,0.056,0.359,0.527,0.085,0.653c-5.531,2.551-10.808,5.618-16.366,8.112c-4.798,2.154-9.813,3.806-15.063,4.367
			c-5.529,0.59-11.201,0.263-16.616-0.994c-5.137-1.192-9.92-3.201-14.144-6.373c-3.799-2.853-7.654-6.362-12.639-6.645
			c-0.457-0.026-0.463-0.718,0-0.715c2.818,0.019,5.598,0.464,8.386,0.816c-7.832-6.62-19.124-9.361-28.766-5.21
			c-0.424,0.182-0.733-0.34-0.361-0.617c3.334-2.483,6.948-4.526,10.685-6.326c-5.051,0.02-10.33,1.527-14.436,4.413
			c-0.349,0.245-0.69-0.277-0.433-0.561c2.399-2.657,5.393-4.658,8.491-6.416c-1.786-0.026-3.576,0.259-5.308,0.673
			c-4.637,1.108-9.104,3.14-13.085,5.751c-1.642,1.077-3.327,2.323-4.815,3.755c-0.746,1.249-1.357,2.582-1.757,3.982
			c-0.129,0.453,0.384,0.506,0.673,0.319c2.438-1.581,4.564-3.652,7.197-4.926c1.792-0.868,3.711-1.408,5.637-1.921
			c-1.166,0.792-2.248,1.717-3.253,2.675c-2.265,2.16-4.266,4.669-5.8,7.399c-0.732,1.304-1.373,2.68-1.754,4.13
			c-0.112,0.424,0.381,0.544,0.668,0.317c2.472-1.952,4.516-4.623,7.134-6.406c-2.601,2.464-4.789,5.549-5.3,9.067
			c-0.057,0.394,0.485,0.359,0.688,0.207c2.109-1.584,3.585-3.816,5.535-5.569c0.925-0.831,1.928-1.561,2.947-2.272
			c-2.849,3.504-4.734,7.851-5.453,12.254c-0.279,1.706-0.366,3.44-0.221,5.163c0.031,0.368,0.425,0.393,0.684,0.205
			c2.707-1.967,5.82-3.408,9.194-3.648c2.967-0.21,5.892,0.46,8.628,1.577c6.007,2.453,11.125,6.703,16.41,10.37
			c5.567,3.862,11.55,7.138,18.031,9.183c6.732,2.124,13.842,2.91,20.88,2.943c0.632,0.003,1.265-0.003,1.897-0.013
			c0.632,0.01,1.265,0.016,1.897,0.013c7.037-0.033,14.148-0.819,20.88-2.943c6.48-2.045,12.464-5.322,18.031-9.183
			c5.286-3.666,10.403-7.917,16.411-10.37c2.735-1.117,5.661-1.788,8.628-1.577c3.373,0.24,6.486,1.681,9.194,3.648
			c0.259,0.188,0.652,0.162,0.683-0.205c0.145-1.723,0.058-3.457-0.221-5.163c-0.719-4.403-2.604-8.75-5.453-12.254
			c1.019,0.711,2.023,1.441,2.947,2.272c1.951,1.753,3.426,3.985,5.536,5.569c0.203,0.152,0.745,0.187,0.688-0.207
			c-0.511-3.518-2.698-6.603-5.3-9.067c2.618,1.783,4.661,4.454,7.133,6.406c0.287,0.227,0.78,0.108,0.669-0.317
			c-0.381-1.45-1.022-2.827-1.754-4.13c-1.534-2.731-3.535-5.24-5.8-7.399c-1.005-0.958-2.087-1.883-3.253-2.675
			c1.926,0.513,3.845,1.053,5.637,1.921c2.632,1.274,4.759,3.345,7.197,4.926c0.289,0.188,0.802,0.134,0.673-0.319
			C173.982,85.295,173.323,83.875,172.508,82.556z"/>
		<path style="opacity:0.39;fill:#C0C2C4;" d="M164.449,104.205c-1.429-1.286-3.284-1.979-5.15-2.333
			c-2.242-0.426-4.565-0.384-6.827-0.16c-2.546,0.253-5.065,0.771-7.537,1.424c-4.773,1.26-9.444,3.02-13.87,5.208
			c-1.589,0.785-3.165,1.625-4.635,2.618c-1.223,0.827-2.413,1.702-3.662,2.489c-1.452,0.915-3.044,1.797-4.779,1.98
			c-1.646,0.174-3.145-0.525-4.254-1.722c-0.719-0.776-1.238-1.697-1.797-2.587c-0.532-0.848-1.073-1.69-1.634-2.519
			c-0.818-1.206-1.693-2.357-2.631-3.447c-0.001,0.955-0.129,1.912-0.376,2.836c-1.004,3.756-3.805,6.979-7.262,8.706
			c-4.642,2.319-9.891,2.816-14.986,2.081c-2.537-0.366-5.034-1.041-7.401-2.027c-1.929-0.804-3.808-1.686-5.35-3.131
			c-2.659-2.492-3.45-6.058-3.875-9.541c-1.032,0.623-2.001,1.338-2.877,2.171c-3.381,3.217-5.133,7.687-7.439,11.652
			c-0.075,0.129-0.257,0.217-0.404,0.164c-4.335-1.567-7.8-4.591-11.263-7.528c-2.788-2.366-5.663-4.526-9.009-6.04
			c-2.845-1.288-5.917-2.185-9.032-2.469c-2.969-0.27-6.062,0.016-8.791,1.283c-2.063,0.958-3.746,2.431-5.054,4.219
			c0.128,0.017,0.274-0.018,0.394-0.104c2.707-1.967,5.82-3.408,9.194-3.648c2.967-0.21,5.892,0.46,8.628,1.577
			c6.007,2.453,11.125,6.703,16.41,10.37c5.567,3.862,11.55,7.138,18.031,9.183c6.732,2.124,13.842,2.91,20.88,2.943
			c0.632,0.003,1.265-0.003,1.897-0.013c0.632,0.01,1.265,0.016,1.897,0.013c7.037-0.033,14.148-0.819,20.88-2.943
			c6.48-2.045,12.464-5.322,18.031-9.183c5.286-3.666,10.403-7.917,16.411-10.37c2.735-1.117,5.661-1.788,8.628-1.577
			c3.373,0.24,6.486,1.681,9.194,3.648c0.259,0.188,0.652,0.162,0.683-0.205c0.041-0.48,0.059-0.962,0.064-1.443
			C165.406,105.207,164.97,104.674,164.449,104.205z"/>
		<g style="opacity:0.38;">
			<path style="fill:#AF5D30;" d="M113.303,76.145c-0.387,0-0.778-0.051-1.145-0.16c-23.975-7.108-46.679-0.09-46.905-0.018
				c-1.203,0.381-2.716,0.133-3.382-0.553c-0.667-0.686-0.233-1.55,0.969-1.931c1.02-0.323,25.294-7.822,51.613-0.018
				c1.22,0.362,1.695,1.219,1.061,1.915C115.07,75.866,114.202,76.145,113.303,76.145z"/>
		</g>
		<g>
			<g>
				<path style="fill:#3C3631;" d="M79.847,69.908c0,0-3.784-17.354-18.462-13.491l-11.752,4.486c0,0,7.295,16.547,19.374,13.178
					C81.086,70.711,79.847,69.908,79.847,69.908z"/>
				<g>
					<defs>
						<path id="SVGID_1_" d="M79.847,69.908c0,0-4.051-15.032-17.66-11.451l-10.858,4.599c0,0,6.406,14.174,17.606,11.049
							S79.847,69.908,79.847,69.908z"/>
					</defs>
					<use xlink:href="#SVGID_1_"  style="overflow:visible;fill:#3C3631;"/>
					<clipPath id="SVGID_00000169532820994202027800000010321474013825979576_">
						<use xlink:href="#SVGID_1_"  style="overflow:visible;"/>
					</clipPath>
					<g style="clip-path:url(#SVGID_00000169532820994202027800000010321474013825979576_);">
						<g>
							<path style="fill:#E6A66B;" d="M75.383,64.463c1.608,5.258-1.351,10.824-6.609,12.433
								c-5.258,1.608-10.825-1.351-12.433-6.609c-1.608-5.258,1.351-10.824,6.609-12.433C68.208,56.246,73.774,59.205,75.383,64.463
								z"/>
							<g>
								<path style="fill:#312017;" d="M71.995,65.499c1.036,3.387-0.87,6.973-4.257,8.009c-3.387,1.036-6.973-0.87-8.009-4.257
									c-1.036-3.387,0.87-6.973,4.257-8.009C67.373,60.206,70.959,62.112,71.995,65.499z"/>
								<path style="fill:#FFFFFF;" d="M63.019,63.988c0.378,1.237-0.318,2.548-1.555,2.926c-1.237,0.379-2.547-0.318-2.926-1.555
									c-0.378-1.238,0.318-2.548,1.555-2.926C61.331,62.054,62.641,62.75,63.019,63.988z"/>
							</g>
						</g>
					</g>
				</g>
			</g>
			<g>
				<path style="fill:#3C3631;" d="M97.595,70.201c0,0,3.445-17.424,18.196-13.848l11.838,4.256c0,0-6.972,16.686-19.115,13.552
					C96.371,71.028,97.595,70.201,97.595,70.201z"/>
				<g>
					<defs>
						<path id="SVGID_00000009555745276964666670000004018179420538093488_" d="M97.595,70.201c0,0,3.757-15.108,17.434-11.792
							l10.945,4.387c0,0-6.13,14.295-17.388,11.39C97.327,71.28,97.595,70.201,97.595,70.201z"/>
					</defs>
					<use xlink:href="#SVGID_00000009555745276964666670000004018179420538093488_"  style="overflow:visible;fill:#3C3631;"/>
					<clipPath id="SVGID_00000070831185350459640570000009939935216764084378_">
						<use xlink:href="#SVGID_00000009555745276964666670000004018179420538093488_"  style="overflow:visible;"/>
					</clipPath>
					<g style="clip-path:url(#SVGID_00000070831185350459640570000009939935216764084378_);">
						<g>
							<path style="fill:#E6A66B;" d="M101.952,64.67c-1.506,5.288,1.561,10.796,6.849,12.302
								c5.288,1.506,10.796-1.561,12.302-6.849c1.506-5.288-1.561-10.796-6.849-12.302C108.966,56.315,103.458,59.382,101.952,64.67
								z"/>
							<g>
								<path style="fill:#312017;" d="M105.359,65.64c-0.97,3.407,1.006,6.955,4.412,7.925c3.407,0.97,6.955-1.006,7.925-4.412
									c0.97-3.407-1.006-6.955-4.412-7.925C109.877,60.257,106.329,62.233,105.359,65.64z"/>
								<path style="fill:#FFFFFF;" d="M105.895,61.56c-0.354,1.244,0.367,2.541,1.612,2.895c1.245,0.354,2.541-0.367,2.895-1.612
									c0.354-1.245-0.367-2.541-1.612-2.895C107.546,59.594,106.25,60.315,105.895,61.56z"/>
							</g>
						</g>
					</g>
				</g>
			</g>
		</g>
		<g>
			<path style="fill:#DD6C33;" d="M98.117,89.968c-3.792-17.794-9.095-19.325-11.17-19.177c-2.074-0.148-7.378,1.382-11.17,19.177
				c-2.344,10.997-13.263,12.497-13.145,24.412c0.101,10.193,4.181,11.99,22.418,12.328h3.792
				c18.237-0.337,22.317-2.135,22.418-12.328C111.38,102.466,100.46,100.965,98.117,89.968z"/>
			<path style="fill:#EEECDD;" d="M104.666,100.819c0.539,1.156,1.279,2.222,1.858,3.358c0.803,1.577,1.194,3.262,0.607,4.984
				c-0.098,0.287-0.488,0.359-0.654,0.085c-0.692-1.144-1.49-2.218-2.366-3.224c-0.312,1.095-0.842,2.115-1.698,2.941
				c-0.178,0.171-0.55,0.118-0.598-0.158c-0.207-1.211-0.556-2.415-1.25-3.423c-0.141,1.424-0.603,2.894-1.711,3.818
				c-0.179,0.149-0.557,0.136-0.598-0.158c-0.131-0.95-0.205-1.908-0.322-2.859c-0.512,1.814-1.637,3.368-3.168,4.533
				c-2.011,1.529-4.503,2.374-6.97,2.805c-2.634,0.46-5.349,0.481-7.989,0.052c-2.221-0.36-4.525-1.054-6.334-2.44
				c-1.069-0.819-1.871-1.914-2.171-3.173c-0.448,1.225-0.843,2.469-1.298,3.691c-0.113,0.304-0.608,0.373-0.69,0
				c-0.363-1.658-0.6-3.467-0.287-5.162c-1.035,1.412-1.788,3.037-2.344,4.687c-0.101,0.299-0.633,0.377-0.689,0
				c-0.389-2.617-0.087-5.209,0.796-7.673c-2.352,2.781-4.206,5.931-4.157,10.877c0.101,10.193,4.181,11.99,22.418,12.328h3.792
				c18.237-0.337,22.317-2.135,22.418-12.328C111.327,107.803,108.028,104.398,104.666,100.819z"/>
			<g>
				<g>
					<path style="fill:#5F463B;" d="M101.615,114.34c-0.044,0-0.089-0.01-0.13-0.034c-0.129-0.071-0.177-0.235-0.105-0.364
						c0.057-0.104,5.867-10.321,20.13-8.724c0.147,0.017,0.253,0.149,0.237,0.297c-0.016,0.147-0.139,0.245-0.297,0.237
						c-7.265-0.816-12.203,1.523-15.068,3.627c-3.109,2.285-4.52,4.797-4.534,4.822C101.801,114.29,101.71,114.34,101.615,114.34z"
						/>
					<path style="fill:#5F463B;" d="M102.195,115.64c-0.085,0-0.169-0.041-0.221-0.117c-0.084-0.122-0.052-0.289,0.07-0.373
						c0.091-0.063,9.367-6.269,23.985-3.333c0.145,0.029,0.239,0.17,0.209,0.316c-0.029,0.145-0.165,0.243-0.316,0.21
						c-14.389-2.887-23.486,3.189-23.576,3.251C102.3,115.624,102.247,115.64,102.195,115.64z"/>
					<path style="fill:#5F463B;" d="M123.108,122.479c-0.047,0-0.094-0.012-0.136-0.037c-12.419-7.308-20.601-4.695-20.681-4.668
						c-0.14,0.047-0.293-0.028-0.34-0.168c-0.047-0.14,0.028-0.293,0.168-0.34c0.341-0.115,8.475-2.729,21.125,4.714
						c0.128,0.075,0.17,0.24,0.095,0.367C123.289,122.431,123.2,122.479,123.108,122.479z"/>
				</g>
				<g>
					<path style="fill:#5F463B;" d="M71.111,114.34c-0.094,0-0.186-0.05-0.235-0.138c-0.056-0.101-5.704-10.014-19.601-8.449
						c-0.159,0.006-0.281-0.089-0.297-0.237c-0.016-0.147,0.089-0.28,0.237-0.297c7.451-0.834,12.523,1.575,15.467,3.744
						c3.195,2.354,4.605,4.873,4.663,4.979c0.072,0.129,0.024,0.292-0.105,0.364C71.2,114.33,71.155,114.34,71.111,114.34z"/>
					<path style="fill:#5F463B;" d="M70.531,115.64c-0.052,0-0.105-0.015-0.152-0.047c-0.09-0.062-9.193-6.137-23.575-3.251
						c-0.15,0.032-0.287-0.065-0.316-0.21c-0.029-0.145,0.064-0.287,0.209-0.316c14.621-2.936,23.892,3.271,23.985,3.333
						c0.122,0.084,0.154,0.251,0.07,0.373C70.7,115.599,70.617,115.64,70.531,115.64z"/>
					<path style="fill:#5F463B;" d="M49.618,122.479c-0.091,0-0.181-0.048-0.231-0.132c-0.076-0.128-0.033-0.292,0.095-0.367
						c12.649-7.444,20.785-4.829,21.125-4.714c0.14,0.047,0.215,0.2,0.168,0.34c-0.048,0.14-0.2,0.215-0.34,0.168
						c-0.08-0.027-8.264-2.641-20.681,4.668C49.712,122.467,49.665,122.479,49.618,122.479z"/>
				</g>
			</g>
			<g>
				<g>
					<g>
						<path style="fill:#AB6E29;" d="M86.947,120.712c-0.262,0-0.474-0.212-0.474-0.474v-8.176c0-0.262,0.212-0.474,0.474-0.474
							s0.474,0.212,0.474,0.474v8.176C87.421,120.5,87.209,120.712,86.947,120.712z"/>
						<path style="fill:#AB6E29;" d="M81.419,125.989c-0.219,0-0.416-0.153-0.464-0.376c-0.054-0.256,0.109-0.508,0.365-0.563
							c1.549-0.329,5.152-1.505,5.152-5.309c0-0.262,0.212-0.474,0.474-0.474s0.474,0.212,0.474,0.474
							c0,3.12-2.207,5.452-5.903,6.237C81.485,125.986,81.451,125.989,81.419,125.989z"/>
						<path style="fill:#AB6E29;" d="M92.475,125.989c-0.033,0-0.066-0.003-0.099-0.01c-3.696-0.785-5.903-3.117-5.903-6.237
							c0-0.262,0.212-0.474,0.474-0.474s0.474,0.212,0.474,0.474c0,3.804,3.603,4.98,5.152,5.309
							c0.256,0.054,0.42,0.306,0.366,0.563C92.891,125.836,92.694,125.989,92.475,125.989z"/>
					</g>
				</g>
			</g>
			<path style="fill:#312017;" d="M93.326,108.349c-2.722-2.012-4.87-2.305-6.379-2.068c-1.509-0.237-3.657,0.056-6.379,2.068
				c-5.7,4.214-1.127,12.478,4.458,12.306h3.843C94.453,120.827,99.026,112.563,93.326,108.349z"/>
		</g>
	</g>
</g>
</svg>
