<?xml version="1.0" encoding="utf-8"?>
<!-- Generator: Adobe Illustrator 27.5.0, SVG Export Plug-In . SVG Version: 6.00 Build 0)  -->
<svg version="1.1" xmlns="http://www.w3.org/2000/svg" xmlns:xlink="http://www.w3.org/1999/xlink" x="0px" y="0px"
	 viewBox="0 0 500 500" style="enable-background:new 0 0 500 500;" xml:space="preserve">
<g id="BACKGROUND">
	<rect style="fill:#5F6ADE;" width="500" height="500"/>
	<path style="fill:#FFFFFF;" d="M421.895,451.795H76.416c-19.243,0-34.843-15.6-34.843-34.843V67.93
		c0-19.243,15.6-34.843,34.843-34.843h345.478c19.243,0,34.843,15.6,34.843,34.843v349.022
		C456.737,436.195,441.138,451.795,421.895,451.795z"/>
</g>
<g id="OBJECTS">
	<g>
		<defs>
			<rect id="SVGID_1_" width="500" height="500"/>
		</defs>
		<clipPath id="SVGID_00000027600177091167067270000008757762938966850225_">
			<use xlink:href="#SVGID_1_"  style="overflow:visible;"/>
		</clipPath>
		<g style="clip-path:url(#SVGID_00000027600177091167067270000008757762938966850225_);">
			<path style="fill:#8D67DF;" d="M79.091,540.956c0,0,37.728-2.986,34.956-49.36c-4.23-70.77-88.125-94.035-132.54-107.43
				c0,57.105-1.689,66.502,5.64,95.175C-1.657,523.149,32.483,555.473,79.091,540.956z"/>
			<path style="fill:#9D72DE;" d="M134.174,509.916c0,0,42.519,2.526,46.625-49.597c6.267-79.544-83.642-118.497-131.074-140.321
				c-8.862,63.656-12.202,73.868-8.482,106.968C46.927,477.536,79.967,518.866,134.174,509.916z"/>
			<path style="fill:#AA82DE;" d="M176.812,489.239c0,0,40.666,12.668,57.176-36.941c25.196-75.708-52.72-135.123-93.518-167.704
				c-23.897,59.662-29.594,68.772-33.936,101.796C99.901,436.844,122.042,484.902,176.812,489.239z"/>
		</g>
		<g style="clip-path:url(#SVGID_00000027600177091167067270000008757762938966850225_);">
			<path style="fill:#8D67DF;" d="M419.863,540.956c0,0-37.728-2.986-34.956-49.36c4.23-70.77,88.125-94.035,132.54-107.43
				c0,57.105,1.689,66.502-5.64,95.175C500.611,523.149,466.471,555.473,419.863,540.956z"/>
			<path style="fill:#9D72DE;" d="M364.78,509.916c0,0-42.519,2.526-46.625-49.597c-6.267-79.544,83.642-118.497,131.073-140.321
				c8.862,63.656,12.202,73.868,8.482,106.968C452.027,477.536,418.987,518.866,364.78,509.916z"/>
			<path style="fill:#AA82DE;" d="M322.142,489.239c0,0-40.666,12.668-57.176-36.941c-25.196-75.708,52.72-135.123,93.518-167.704
				c23.897,59.662,29.594,68.772,33.936,101.796C399.053,436.844,376.912,484.902,322.142,489.239z"/>
		</g>
		<g id="nCKCnM_1_" style="clip-path:url(#SVGID_00000027600177091167067270000008757762938966850225_);">
			<g>
				<g>
					<path style="fill:#D851B5;" d="M132.667,517.794c0.77-1.85-0.889-2.785-1.599-4.023c-3.794-6.609-3.157-15.432,1.397-21.558
						c3.474-4.674,8.24-7.551,13.591-10.523c7.906,3.133,15.292,1.107,21.589-3.904c3.145-0.346,5.425,0.553,7.563,1.971
						c2.862,1.899,6.065,3.337,8.799,5.32c8.931,6.478,19.211,10.392,28.731,15.73c10.486,5.88,21.117,11.494,32.349,15.867
						c0.576,0.224,1.181,0.411,1.354,1.12C208.516,517.794,170.591,517.794,132.667,517.794z"/>
					<path style="fill:#B051B5;" d="M206.133,517.794c-13.528-13.587-30.788-23.368-49.328-28.206
						c-4.898-1.278-12.341-3.768-18.334-3.209c-2.26,1.659-4.292,3.526-6.006,5.834c-4.554,6.127-5.191,14.949-1.397,21.558
						c0.71,1.237,2.369,2.173,1.599,4.023C157.156,517.794,181.644,517.794,206.133,517.794z"/>
				</g>
				<g>
					<path style="fill:#D851B5;" d="M257.723,517.794c0.239-0.92,1.099-1.038,1.788-1.301c13.331-5.098,25.442-12.652,38.202-18.889
						c10.399-5.083,20.236-11.098,30.08-16.998c10.068,3.242,20.104,3.242,30.537,1.307c5.186,2.68,10.338,5.82,13.896,11.053
						c4.367,6.42,4.267,13.07,1.314,19.972c-0.69,1.613-2.698,2.683-2.044,4.856C333.572,517.794,295.648,517.794,257.723,517.794z"
						/>
				</g>
				<path style="fill:#B051B5;" d="M303.231,508.609c-5.755,3.147-11.629,6.142-17.833,8.311c-0.76,0.266-1.493,0.561-2.174,0.874
					c27.119,0,54.238,0,81.356,0c0.817-5.212,0.953-10.614-0.629-15.635c-1.673-5.309-5.495-10.146-10.745-11.997
					c-5.151-1.816-10.863-0.598-16.026,1.184C325.113,495.508,314.366,502.521,303.231,508.609z"/>
				<g>
					<path style="fill:#50AEEF;" d="M297.405,428.721c2.107,2.724,1.749,5.282,1.884,7.765c0.137,2.526,0.242,2.55,3.401,3.147
						c1.478-0.626,1.321-2.418,2.351-3.351c1.11-0.583,2.224-0.548,3.039,0.332c1.145,1.234,1.259,2.846,0.988,4.429
						c-0.66,3.851-1.3,7.708-2.109,11.529c-2.406,11.359-15.606,24.368-31.664,22.404c-6.896-0.844-13.074-3.134-18.888-6.549
						c-4.454-2.616-6.84-7.203-9.443-11.496c-4.377-7.221-6.453-15.225-7.943-23.409c-1.034-5.679-1.927-11.387-2.73-17.103
						c-0.326-2.317,0.017-4.677,0.135-7.024c0.559-11.107,0.711-22.196-2.205-33.094c-1.021-3.815-3.023-7.156-4.662-10.668
						c-0.541-1.161-1.448-2.394-3.668-2.676c5.124,12.713,7.729,25.529,5.934,39.221c-4.869-1.533-7.467-4.946-8.902-8.84
						c-0.16-2.685,2.628-4.99-0.794-7.013c-1.868,2.379-3.868,4.675-6.332,6.202c0.138,2.63,2.293,1.934,3.447,2.554
						c2.764,5.674,5.782,10.951,12.394,12.204c0.835,2.027,0.017,3.668,0.245,5.566c-4.353,0.466-8.378-0.124-12.349-0.49
						c-10.208-0.942-20.026-3.408-29.055-8.508c-8.085-4.566-12.658-11.515-13.757-20.636c-0.828-6.873-0.357-13.782,0.657-20.608
						c1.23-8.281,0.808-16.549,0.382-24.84c-0.136-2.646-0.021-5.304-0.021-8.382c4.613-3.125,10.174-4.672,15.739-6.079
						c11.376-2.877,22.893-3.232,34.489-1.477c1.391,0.21,2.817,0.187,4.21,0.384c3.717,0.526,7.171,1.084,9.561,4.847
						c1.878,2.959,5.296,4.382,9.026,3.915c2.299-0.288,4.653,0.588,6.907-0.475c2.301-1.085,4.448-2.342,5.786-4.605
						c0.835-1.413,1.903-2.427,3.589-2.749c19.462-3.716,38.596-3.582,57.03,4.819c0.835,0.38,1.605,0.903,2.457,1.389
						c0.351,5.145-0.122,10.137-0.452,15.108c-0.417,6.293,0.101,12.491,0.835,18.724c0.807,6.846,1.424,13.759,0.463,20.62
						c-1.221,8.714-5.646,15.483-13.396,19.874c-10.01,5.672-20.9,8.196-32.29,8.889c-2.345,0.143-4.69,0.31-7.026,0.555
						c-2.089,0.219-4.027-0.105-6.153-1.375c-0.745-8.569-0.473-17.288,0.097-26.044c0.564-8.671,3.991-16.516,6.888-24.98
						c-3.142,0.068-4.214,1.984-5.256,3.81c-2.511,4.403-4.036,9.213-4.792,14.162c-1.393,9.116-2.553,18.225-1.404,27.552
						c0.781,6.336,0.178,12.82,1.256,19.182c1.201,7.09,2.028,14.244,6.31,20.423c5.35,7.722,15.401,7.333,19.939-0.925
						c0.978-1.78,1.594-3.702,2.106-5.694C294.538,435.824,295.204,432.295,297.405,428.721z M298.466,345.607
						c-2.022,0.053-4.016,0.048-6.019,0.674c-6.87,2.147-10.302,7.481-12.323,13.739c-3.373,10.448,3.314,19.346,14.267,19.461
						c8.023,0.084,17.875-6.272,21.022-13.563c2.692-6.238,0.69-13.109-4.967-16.963
						C306.835,346.497,302.831,345.403,298.466,345.607z M206.44,345.523c-2.039,0.105-3.314,0.037-4.538,0.256
						c-6.207,1.112-11.361,3.854-13.573,10.151c-2.1,5.977,0.099,11.013,4.157,15.471c3.607,3.964,8.184,6.339,13.223,7.707
						c8.609,2.336,17.968-3.85,19.094-12.156C225.953,358.458,218.034,344.296,206.44,345.523z M224.43,344.154
						c0.37-3.968-2.139-7.334-7.134-9.746c-6.165-2.977-14.169-2.367-18.233,1.391c0.253,0.135,0.498,0.366,0.76,0.388
						c0.931,0.077,1.87,0.127,2.804,0.107c6.98-0.151,13.408,0.961,17.788,7.259C221.273,344.786,222.63,345.262,224.43,344.154z
						 M279.995,344.367c1.939,0.931,3.185,0.077,4.167-1.278c3.764-5.196,9.128-6.691,15.183-6.777
						c1.927-0.027,3.938,0.35,5.989-0.467c-6.433-5.658-20.176-3.983-25.533,4.771C279.107,341.751,278.971,342.95,279.995,344.367z
						 M260.585,357.989c-2.484-2.124-7.407-2.444-14.283-1.521c-1.142,0.153-2.142,0.438-2.285,2.449
						C249.631,360.96,255.085,359.797,260.585,357.989z M259.662,369.739c-3.965-2.811-10.515-3.179-14.116-0.839
						c1.495,2.045,1.494,2.065,9.444,2.621C256.772,371.645,258.762,372.062,259.662,369.739z M246.257,378.993
						c3.877,3.432,8.975,3.189,12.715-0.583C254.518,377.52,250.755,377.29,246.257,378.993z M248.979,389.879
						c3.168,2.442,4.01,2.462,6.934,0.232C253.61,388.403,251.463,388.649,248.979,389.879z M255.18,401.881
						c-2.786-0.833-4.784-1.736-6.906,0.431C250.711,404.203,252.59,403.564,255.18,401.881z"/>
					<path style="fill:#2F9AEF;" d="M270.759,449.772c9.312,5.442,17.248,14.202,19.165,24.816c-2.84,1.641-6.273,1.812-9.552,1.788
						c-8.805-0.065-17.86-1.333-25.469-5.764c-6.19-3.605-20.721-18.842-16.23-27.356
						C243.046,434.966,265.399,446.64,270.759,449.772z"/>
					<path style="fill:#2F9AEF;" d="M268.222,409.487c0.556,1.758,1.215,3.558,2.519,4.861c2.797,2.795,7.387,2.345,11.246,1.485
						c10.728-2.391,21.084-6.442,30.587-11.964c5.969-3.469,12.139-8.391,12.776-15.265c0.424-4.574-1.927-9.207-5.652-11.896
						c-3.725-2.689-8.651-3.491-13.142-2.524c-3.855,0.829-7.69,2.885-11.526,1.976c-6.033-1.43-8.076-9.13-7.351-15.288
						c0.448-3.802,1.58-7.664,4.12-10.528c2.54-2.864,6.724-4.493,10.332-3.214c1.43,0.507,3.437,1.228,4.118-0.128
						c0.313-0.622,0.089-1.37-0.17-2.016c-3.068-7.66-12.107-13.512-20.224-9.143c-6.212,3.343-10.712,12.944-13.579,19.031
						C264.329,371.751,262.581,391.638,268.222,409.487z"/>
					<path style="fill:#2F9AEF;" d="M219.178,356.605c1.961,1.985,3.614,4.37,4.261,7.085c1.529,6.411-3.355,13.229-9.681,15.078
						c-6.326,1.849-13.35-0.556-18.3-4.908c-2.321-2.041-4.502-4.607-7.543-5.161c-3.434-0.626-6.826,1.639-8.827,4.498
						c-4.922,7.029-3.177,17.219,2.246,23.869c5.423,6.65,13.714,10.311,22.01,12.504c8.375,2.214,17.102,3.174,25.743,2.563
						c1.113-0.079,2.314-0.222,3.123-0.99c0.626-0.593,0.902-1.458,1.132-2.289c5.307-19.204-2.177-39.37-9.544-57.882
						c-3.66-9.198-13.941-26.263-24.35-13.508c-1.521,1.863-3.712,5.538-3.603,8.034c0.213,4.848,1.229,3.229,5.19,3.749
						C208.024,350.166,213.966,351.329,219.178,356.605z"/>
					<ellipse style="fill:#D851B5;" cx="300.128" cy="391.323" rx="12.495" ry="8.507"/>
					<ellipse style="fill:#D851B5;" cx="200.697" cy="391.323" rx="12.495" ry="8.507"/>
				</g>
				<g>
					<path style="fill:#88CFFF;" d="M176.621,395.806c-3.317,6.195-8.976,9.857-13.53,14.79c-2.634-0.61-5.235-0.6-7.599,1.055
						c-3.291-1.682-6.466-3.304-9.818-5.017c0.743-2.771,1.533-5.359,0.863-7.991c-0.682-2.68-2.951-3.895-5.18-4.86
						c0.525-5.59-0.05-6.445-5.348-8.24c-1.305-6.043-3.997-7.375-9.555-4.695c-1.116,0.538-2.178,1.189-3.398,1.861
						c-5.144-5.934-6.473-13.93-10.869-19.469c-2.379-0.84-4.055-0.762-5.668-0.221c-2.16,1.904-2.077,4.383-1.853,6.758
						c-1.52,0.943-2.232,0.161-2.558-1.014c-0.793-2.858-1.783-5.71-2.135-8.632c-0.628-5.206-1.636-10.397-0.328-15.723
						c1.081-4.401,2.968-8.196,6.18-11.367c1.663-1.641,3.675-2.493,5.952-2.275c11.728,1.121,23.478,0.257,35.215,0.481
						c6.892,0.131,13.79,0.014,20.685-0.005c2.184-0.006,4.363-0.01,6.544,0.798c0.301,6.767,0.46,13.448,0.205,20.141
						c-0.518,0-0.715,0.063-0.808-0.009c-7.105-5.489-15.456-6.275-23.991-6.372c-5.642-0.064-11.278,0-16.917,0.311
						c-3.275,0.181-6.574,0.035-9.858-0.063c-3.382-0.102-6.499-0.928-8.851-3.634c-0.508-0.584-1.223-0.966-2.347-0.822
						c-1.584,1.563-0.508,2.979,0.622,4.267c2.901,3.307,6.846,4.357,10.989,4.469c5.635,0.152,11.279-0.059,16.919-0.064
						c6.885-0.006,13.782-0.359,20.623,0.892c1.873,0.343,3.639,0.89,5.361,1.643c3.774,1.652,5.729,4.415,6.149,8.646
						c0.453,4.558,0.033,9.071-0.073,13.59C172.075,382.358,172.656,389.443,176.621,395.806z"/>
					<path style="fill:#50AEEF;" d="M157.459,341.863c-2.71,4.438-8.164,6.274-13.248,7.364c8.84,7.345,13.472,19.442,11.797,30.813
						c-1.674,11.371-9.596,21.619-20.178,26.105c6.043,3.504,12.51,6.276,19.215,8.236c1.228,0.359,2.522,0.693,3.773,0.424
						c1.598-0.343,2.819-1.595,3.929-2.795c4.508-4.871,8.88-9.867,13.11-14.982c0.78-0.943,1.58-1.94,1.831-3.138
						c0.377-1.793-0.546-3.568-1.296-5.24c-7.613-16.978,1.083-36.84-1.536-55.262c-0.14-0.985-0.336-2.018-0.983-2.773
						c-0.791-0.925-2.073-1.231-3.27-1.456c-3.084-0.581-10.88-3-12.992,0.279C155.399,332.871,160.052,337.618,157.459,341.863z"/>
					<path style="fill:#88CFFF;" d="M113.637,394.914c-1.243-2.582-2.157-4.481-3.171-6.587
						C114.138,389.007,115.095,390.805,113.637,394.914z"/>
				</g>
				<g>
					<path style="fill:#88CFFF;" d="M329.942,352.874c-0.652-7.359-0.227-14.043-0.019-20.768c2.309-0.979,4.659-0.858,6.992-0.858
						c16.136,0.004,32.272,0.019,48.409,0.005c2.028-0.002,4.052,0.08,6.081-0.34c3.028-0.627,5.402,0.6,7.561,2.747
						c4.817,4.788,5.794,10.915,6.27,17.222c0.248,3.289,0.007,6.566-1.121,9.741c-1.057,1.104-2.5,1.125-4.004,1.371
						c-1.351-2.358-0.368-5.701-3.412-7.832c-5.271-1.187-6.859,3.754-9.948,6.986c-3.336-2.253-5.928-6.541-11.079-5.062
						c-3.652,5.679-3.339,10.997,1.52,23.484c-1.811,0.829-4.148,0.077-5.647,1.733c-1.277,1.062-0.769,2.646-1.191,3.942
						c-5.767,2.376-6.127,2.903-5.716,8.341c-5.756,3.54-6.251,4.939-4.319,12.929c-4.776,2.597-9.659,5.252-14.444,7.853
						c-6.134-4.165-15.59-13.84-18.216-18.676c5.073-8.065,4.448-17.235,4.052-26.309c-0.117-2.68,0.132-5.298,0.197-7.945
						c0.104-4.27,2.331-6.978,6.091-8.649c3.935-1.748,8.106-2.385,12.351-2.409c9.711-0.054,19.422-0.002,29.133,0.046
						c3.027,0.015,5.893-0.591,8.666-1.786c1.94-0.836,3.452-2.152,4.583-3.894c0.627-0.966,0.873-2.02,0-2.934
						c-0.682-0.459-1.401-0.377-1.799,0.063c-4.176,4.609-9.778,4.606-15.232,4.422c-7.828-0.264-15.649-0.714-23.484-0.444
						c-4.698,0.161-9.356,0.681-13.888,2.047C335.316,348.808,332.901,350.839,329.942,352.874z"/>
					<path style="fill:#50AEEF;" d="M352.399,348.426c-4.32,7.313-5.298,16.515-2.611,24.573c2.686,8.058,8.99,14.832,16.833,18.091
						c1.304,0.542,2.774,1.103,3.38,2.379c0.392,0.826,0.33,1.791,0.176,2.692c-1.711,10.065-12.538,15.501-22.153,18.936
						c-1.208,0.431-2.467,0.863-3.743,0.729c-1.295-0.135-2.454-0.838-3.534-1.564c-5.314-3.576-9.923-8.195-13.487-13.517
						c-0.675-1.008-1.32-2.056-1.677-3.216c-0.632-2.052-0.311-4.259-0.025-6.387c2.626-19.487,1.974-39.249,1.317-58.901
						c4.8-1.94,17.413-7.886,19.75-1.443c1.093,3.015-1.372,7.049-0.584,10.31C346.28,342.095,351.489,349.967,352.399,348.426z"/>
				</g>
				<g>
					<path style="fill:#50AEEF;" d="M372.385,454.446c0.324-6.564-1.411-11.714-3.634-16.768c-1.05-2.388-2.652-4.491-4.817-5.574
						c-2.082-1.042-3.453-2.515-4.806-4.195c-1.873-2.327-4.103-4.294-6.252-6.352c-1.201-1.15-2.837-2.003-3.344-3.923
						c4.479-3.202,9.715-4.96,14.481-7.893c1.959,1.266,3.011,3.849,5.71,3.767c1.052-0.032,1.764-0.539,2.388-1.966
						c-1.23-4.613-7.898-6.434-7.725-12.015c1.289-2.779,4.287-1.193,5.804-2.781c1.61-2.551-1.853-3.821-1.399-6.195
						c2.197-2.341,4.917,2.505,7.462-0.925c1.013-1.65-1.886-2.957-1.611-5.047c1.946-0.881,3.258,0.378,4.647,1.326
						c1.972,1.346,3.532,3.088,4.773,5.113c0.974,1.591,2.13,2.926,3.544,4.226c3.029,2.785,3.3,6.632,2.383,10.442
						c-1.234,5.124-3.098,9.891-8.514,12.172c-0.988,0.416-1.832,1.2-2.653,2.64c0.678,8.967,0.349,18.311-2.584,27.384
						C375.567,449.955,374.614,451.893,372.385,454.446z"/>
					<path style="fill:#2F9AEF;" d="M361.621,425.061c5.699-0.68,10.769-5.094,12.227-10.646c0.153-0.583,0.275-1.189,0.595-1.7
						c0.77-1.23,2.382-1.533,3.752-2.013c6.659-2.335,9.219-10.221,10.888-17.078c3.289,3.661,4.721,8.911,3.746,13.735
						c-0.975,4.824-4.334,9.105-8.788,11.2c-0.872,0.41-1.842,0.791-2.346,1.612c-0.419,0.682-0.426,1.531-0.407,2.332
						c0.156,6.557,1.198,13.161,0.156,19.637c-1.042,6.475-4.769,13.073-10.999,15.124c0.689-7.981-3.313-15.69-8.453-21.834
						c-3.898-4.659-8.811-8.456-12.628-13.106C352.813,421.523,357.241,425.583,361.621,425.061z"/>
				</g>
				<g>
					<path style="fill:#50AEEF;" d="M135.761,396.613c1.393,1.735,4.087,0.218,5.936,2.898c0.664,1.227-0.488,2.835-1.625,4.293
						c-1.34,1.718-2.861,3.306-4.407,4.846c-1.207,1.203-1.959,2.404-1.047,4.213c3.492,1.942,4.932-1.212,7.271-3.066
						c2.004,1.046,4.147,2.165,6.611,3.452c-1.258,2.083-2.791,3.674-3.238,5.936c-2.127,0.143-4.14-0.546-6.379,0.284
						c-3.312,2.602-2.797,6.594-2.224,10.15c0.457,2.835,0.019,5.164-1.057,7.641c-1.866,4.295-3.584,8.652-4.253,13.433
						c-4.553-9.695-4.772-19.975-4.142-30.164c-1.096-1.878-2.426-3.054-4.237-3.826c-2.936-1.251-4.61-3.635-5.376-6.683
						c-0.902-3.591-2.641-7.1-1.079-10.94c0.175-0.43,0.101-1.028,0.377-1.34c3.769-4.246,6.111-9.766,11.314-12.727
						c0.531-0.302,1.127-0.543,1.723-0.66c0.419-0.082,0.888,0.094,1.469,0.173c0.313,2.089-2.586,3.397-1.077,5.876
						c2.005,2.414,4.373-1.595,6.725-0.137c0.801,1.351-0.249,2.274-0.892,3.263C135.524,394.497,135.088,395.447,135.761,396.613z"
						/>
					<path style="fill:#2F9AEF;" d="M120.48,402.334c0.58,3.459,2.444,6.881,5.567,8.479c2.444,1.251,5.633,1.439,7.236,3.668
						c1.52,2.114,0.877,5.129,1.993,7.482c0.682,1.439,1.968,2.51,2.738,3.904c1.469,2.662,0.821,5.949,0.064,8.894
						c-1.475,5.74-3.216,11.411-5.218,16.989c-7.957-6.092-10.415-17.073-10.213-27.092c0.019-0.952,0.051-1.94-0.323-2.816
						c-0.523-1.224-1.722-1.988-2.769-2.81c-4.255-3.343-6.722-8.84-6.39-14.241c0.289-4.701,2.929-10.449,7.291-12.532
						C120.943,395.473,119.914,398.954,120.48,402.334z"/>
				</g>
				<path style="fill:#FFFFFF;" d="M328.784,448.506c-1.221-0.699-2.102-1.675-3.533-1.835c-5.438,0.471-5.249,5.632-7.257,9.559
					c-1.775-1.918-1.996-3.751-1.512-5.756c1.561-6.458,4.253-12.425,8.37-17.63c3.5-4.425,8.685-4.959,13.264-1.707
					c0.89,0.632,1.825,1.249,2.565,2.036c4.887,5.207,8.015,11.389,10.426,18.395c-3.378,0.845-6.37,1.608-8.647,3.725
					c-1.73-1.668-2.046-3.566-2.711-5.26C337.157,443.431,333.514,442.792,328.784,448.506z"/>
				<path style="fill:#7572DE;" d="M235.602,252.582c1.535-10.732,9.144-16.485,16.482-22.964
					c7.34,6.481,14.946,12.236,16.478,22.971C257.467,251.473,246.689,251.477,235.602,252.582z"/>
				<g>
					<path style="fill:#F9F9F9;" d="M100.675,397.594c-8.995-3.257-18.277-21.739-11.629-28.884
						c2.809,1.556,4.713,4.391,7.702,5.797c2.919,1.373,5.832,1.993,9.04,0.783c1.258,2.559,2.416,4.915,3.719,7.568
						C104.672,386.551,101.215,391.027,100.675,397.594z"/>
					<path style="fill:#7572DE;" d="M108.518,366.323c2.379,0.516,2.757,2.01,3.253,3.19c1.81,4.305,3.84,8.486,6.071,12.593
						c0.894,1.647,2.506,3.752-0.254,5.847C112.832,381.44,109.887,374.471,108.518,366.323z"/>
				</g>
				<g>
					<path style="fill:#D851B5;" d="M384.711,383.286c-4.997-7.169-9.693-14.322-6.9-23.618c4.479,1.489,7.867,6.413,9.408,13.156
						c0.766,3.355-0.536,6.446-0.896,9.655C386.26,383.039,385.559,383.422,384.711,383.286z"/>
					<path style="fill:#D851B5;" d="M406.023,365.334c0.45,7.085-6.869,16.584-16.253,21.469c-1.02-1.519,0.057-2.783,0.75-3.827
						c2.172-3.274,3.902-6.771,5.654-10.265C398.164,368.743,401.147,366.074,406.023,365.334z"/>
					<path style="fill:#D851B5;" d="M394.417,390.79c3.705-6.282,11.131-8.409,18.843-5.548c-0.294,2.512-2.282,3.568-4.208,4.32
						C404.384,391.384,399.57,392.049,394.417,390.79z"/>
					<path style="fill:#D851B5;" d="M390.992,371.45c-0.124-4.501-0.938-9.177,3.556-13.195
						C395.479,363.735,394.881,368.013,390.992,371.45z"/>
					<path style="fill:#D851B5;" d="M405.388,379.628c2.052-3.869,2.052-3.869,4.81-4.439c1.154,0.829,0.584,1.891,0.559,2.8
						C409.191,379.643,407.396,379.54,405.388,379.628z"/>
				</g>
				<g>
					<path style="fill:#D851B5;" d="M243.484,460.324c7.263,13.266,19.01,18.015,32.759,19.316
						c12.26,1.161,25.829-6.524,31.931-18.207c1.428-0.13,1.683,1.028,1.365,1.811c-3.176,7.816-0.626,15.819-1.173,24.174
						c-8.97,4.431-18.38,9-27.468,14.18c-9.121,5.199-18.842,9.103-28.518,13.134c-18.834-6.377-35.498-17.209-53.938-26.095
						c8.539-3.812,16.309-7.304,23.447-12.14C229.141,471.585,235.926,466.085,243.484,460.324z"/>
					<path style="fill:#B051B5;" d="M255.514,488.768c-6.645,1.461-13.565,0.299-20.218-1.122c-1.52-0.325-3.644-0.316-4.017,1.193
						c-0.128,0.518,0.027,1.064,0.247,1.55c2.271,5.014,11.035,6.421,10.429,11.892c-0.399,3.607-4.801,5.077-8.403,5.516
						c7.911,1.086,14.346,8.947,22.26,7.877c1.965-0.266,3.806-1.083,5.616-1.891c15.183-6.777,30.366-13.555,45.548-20.332
						c1.103-0.492,2.248-1.016,3.006-1.956c1.068-1.323,1.143-3.163,1.168-4.864c0.176-11.548,0.351-23.097,0.527-34.645
						c-4.171,7.617-9.729,14.687-17.115,19.254c-3.382,2.091-7.165,3.607-11.079,4.334c-3.335,0.62-8.995-1.074-11.823,0.217
						c-2.596,1.185-3.68,5.323-5.658,7.349C263.207,486.001,259.397,487.914,255.514,488.768z"/>
					<path style="fill:#D851B5;" d="M319.792,405.272c6.548,2.396,12.571,4.506,17.553,9.353c-2.388,3.229-4.668,6.31-7.203,9.739
						c-7.91,1.701-10.988,8.961-15.56,15.912c-0.413-3.584-1.29-5.975-3.314-7.711c-2.233-1.917-5.015-1.289-7.591-1.339
						c-0.872-1.588-1.524-3.195-2.537-4.529c-2.05-2.7-5.001-2.695-7.11-0.08c-1.593,1.975-2.589,4.286-3.114,6.75
						c-0.593,2.781-1.804,5.313-2.895,7.898c-0.948,2.248-2.398,4.01-4.757,4.832c-7.828-1.139-11.706-6.402-12.614-17.259
						c1.191-2.203,2.977-4.168,4.737-6.137c1.661-1.858,3.24-3.818,5.717-5.434C294.598,416.258,307.911,413.282,319.792,405.272z"
						/>
					<path style="fill:#B051B5;" d="M286.013,441.41c4.84-6.306,7.412-14.316,7.147-22.261c-0.034-1.011-0.084-2.119,0.527-2.925
						c0.46-0.607,1.204-0.914,1.913-1.195c6.882-2.723,13.763-5.446,20.645-8.169c1.032-0.409,2.097-0.823,3.207-0.815
						c1.262,0.01,2.447,0.563,3.586,1.106c3.792,1.806,7.585,3.613,11.377,5.419c1.005,0.479,2.102,1.055,2.481,2.102
						c0.23,0.634,0.149,1.339-0.018,1.993c-1.622,6.364-9.72,8.289-14.114,13.17c-4.389,4.876-4.655,12.248-8.214,17.759
						c-1.801-2.271-1.654-5.45-1.877-8.34c-0.223-2.89-1.35-6.24-4.144-7.011c-2.604-0.718-5.142,1.212-7.07,3.104
						c-0.07-3.039-1.018-6.054-2.7-8.586c-4.372,2.126-4.732,8.025-6.102,12.69c-1.099,3.741-3.366,7.305-6.818,9.117
						c-3.452,1.813-8.166,1.451-10.756-1.467c-4.282-4.827,1.796-2.309,2.402-2.377C281.414,444.281,282.921,445.439,286.013,441.41
						z"/>
					<path style="fill:#D851B5;" d="M310.604,460.635c-0.538-1.108-0.828-1.416-0.769-1.626c0.535-1.889,1.131-3.762,1.868-6.154
						C312.828,455.958,311.06,457.761,310.604,460.635z"/>
				</g>
				<g>
					<g>
						<path style="fill:#50AEEF;" d="M241.136,455.918c-3.732,4.27-8.125,7.064-12.171,10.229
							c-7.399,5.79-15.057,11.233-23.358,15.7c-0.551,0.296-1.06,0.671-1.616,0.956c-5.843,2.999-11.536,4.741-17.099-0.795
							c-1.973-1.963-5.159-2.219-7.59-4.328c6.217-4.803,12.89-9.149,15.725-17.134c-1.463-1.958-2.767-1.267-3.959,0.331
							c-2.77,3.714-6.316,6.602-9.91,9.449c-2.105,1.668-4.451,2.902-6.903,3.956c-0.74,0.318-1.474,0.431-2.169-0.198
							c0.407-1.905,2.155-2.591,3.466-3.609c5.203-4.039,7.584-9.405,7.708-15.879c0.027-1.408,0.036-2.825-0.079-4.227
							c-0.261-3.164-0.122-6.23,1.27-9.186c1.349-2.866,0.704-5.507-1.381-7.8c-2.209-2.43-4.845-2.532-7.722-1.342
							c-1.266,0.524-2.59,0.909-4.235,1.478c-1.139-6.338-2.376-12.438-4.807-18.612c4.961-4.865,11.252-7.102,17.794-9.537
							c7.265,4.155,14.821,7.845,23.165,9.682c8.123,1.788,16.409,2.039,24.958,2.755c-0.193,6.83,1.696,13.149,2.901,19.577
							C236.304,443.69,237.748,449.933,241.136,455.918z"/>
						<path style="fill:#2F9AEF;" d="M191.22,446.218c1.815-8.16,1.201-16.664,0.025-24.94c4.141,3.809,8.283,7.618,12.424,11.427
							c2.568,2.362,5.195,4.763,8.375,6.197c6.631,2.988,14.436,1.254,21.133-1.583c0.881-0.373,1.862-0.771,2.765-0.454
							c1.099,0.386,1.586,1.638,1.941,2.747c1.498,4.683,2.995,9.366,4.493,14.049c0.551,1.722,1.089,3.659,0.273,5.273
							c-0.609,1.205-1.842,1.942-3.012,2.616c-10.054,5.785-17.985,13.318-28.039,19.103c-2.98,1.715-9.406,4.567-12.761,5.317
							c-7.044,1.574-8.813-0.815-15.42-3.722c-7.915-3.483-12.479-12.046-5.792-16.385
							C184.944,461.11,189.271,454.979,191.22,446.218z"/>
						<path style="fill:#50AEEF;" d="M141.899,422.959c1.773,2.12,2.665,3.876,3.099,6.115c0.941,4.849,1.759,9.803,4.712,14.181
							c1.126-2.894,1.303-6.09,0.55-9.903c-0.484-2.452-0.966-4.91-1.593-7.327c-0.718-2.771,0.034-5.263,1.187-7.708
							c0.353-0.749,0.973-1.202,2.579-1.008c2.454,7.958,1.702,17.262,7.272,24.52c1.189-1.238,1.14-2.904,0.959-4.4
							c-0.574-4.741-1.109-9.444-2.933-14.012c-1.166-2.92-1.319-6.451,1.582-9.047c4.36,2.93,6.135,7.564,8.671,22.465
							c-4.666,5.797-8.262,11.962-6.194,20.681c2.457-2.719,2.386-5.544,2.845-7.916c1.546-7.996,6.774-12.056,13.572-14.587
							c2.636,0.991,3.185,2.865,2.295,4.691c-2.029,4.164-1.945,8.537-1.646,12.888c0.796,11.571-7.949,17.024-16.651,17.374
							c-3.189,0.128-5.892-0.829-8.177-2.863c-2.592-2.308-4.743-5.032-5.885-8.367c-3.395-9.916-6.404-19.933-7.505-30.418
							C140.409,426.136,140.394,426.137,141.899,422.959z"/>
						<path style="fill:#50AEEF;" d="M319.055,468.304c-0.597-1.801-1.519-3.83-0.822-6.17c1.734,0.74,1.035,2.729,1.951,3.796
							c1.086,1.265,2.421,2.045,4.293,0.409c-0.718-4.906-3.872-10.163,0.399-15.356c3.705,14.097,5.684,17.047,10.944,16.059
							c-0.685-3.182-4.107-5.124-3.885-8.696c0.198-3.191-0.862-6.553,1.798-9.876c2.912,3.037,2.683,7.439,5.932,10.993
							c0.332,0.259,1.518,0.973,3.216,1.078c1.762-1.45,3.272-3.608,5.979-3.894c2.442-0.258,4.639,0.344,6.575,1.6
							c1.473,1.302,0.823,3.964,3.215,4.449c3.384-3.379,2.632-5.868-2.766-9.444c-2.301-12.713-9.445-21.904-20.12-29.214
							c-0.1-2.506,2.365-4.128,3.56-6.66c6.621,3.758,11.99,8.942,16.877,14.576c4.429,5.106,8.155,10.849,9.785,17.458
							c2.091,8.477,1.897,16.774-4.756,23.634c-1.219,1.257-2.548,2.197-4.283,2.72c-10.137,3.056-20.058,2.527-29.785-1.607
							C324.114,472.864,321.364,471.098,319.055,468.304z"/>
						<path style="fill:#2F9AEF;" d="M163.462,474.564c-8.01,6.565-12.835,4.958-18.177,0.595
							c-5.144-4.201-8.327-9.691-9.004-16.432c-0.566-5.635-0.674-11.245,1.27-16.689c0.142-0.397,0.464-0.731,1.018-1.576
							c0.877,1.806,1.515,3.279,1.609,4.923c0.298,5.215,2.19,10.014,3.841,14.868c1.339,3.941,3.863,7.154,6.817,9.994
							C154.262,473.541,158.438,475.016,163.462,474.564z"/>
						<path style="fill:#2F9AEF;" d="M313.269,466.255c1.882,5.383,5.736,8.99,10.37,12.151c-3.866,0.836-6.957,2.986-11.07,3.979
							C313.507,476.692,311.308,471.526,313.269,466.255z"/>
						<path style="fill:#50AEEF;" d="M274.068,417.566c-1.175,2.177-2.415,3.604-4.294,5.228c-0.572-1.827-0.783-3.25-0.562-4.778
							C270.653,417.052,272.11,417.623,274.068,417.566z"/>
					</g>
					<path style="fill:#50AEEF;" d="M327.442,403.592c-1.864,0.108-2.9-0.495-3.986-0.898c-0.155-1.075,0.354-1.7,1.281-2.062
						C325.968,401.12,326.364,402.315,327.442,403.592z"/>
					<path style="fill:#50AEEF;" d="M179.357,400.586c0.94,0.443,1.302,0.912,1.403,2.047c-0.922,0.616-2.135,0.914-3.58,1.02
						C177.463,402.243,178.253,401.389,179.357,400.586z"/>
				</g>
				<path style="fill:#F9F9F9;" d="M95.726,367.248c1.245,0.412,1.989,1.086,1.713,1.317
					C96.596,369.271,96.331,368.334,95.726,367.248z"/>
				<g>
					<path style="fill:#FFFFFF;" d="M336.582,326.61c-3.506,1.049-6.265,0.164-8.961-1.188c-15.56-7.802-31.968-10.368-49.193-8.039
						c-3.679,0.497-7.39,0.751-11.328,1.141c-0.158-3.907-0.817-7.536-1.627-11.07c13.04-5.249,56.207-4.22,71.014,5.178
						C336.992,317.09,336.502,321.735,336.582,326.61z"/>
					<path style="fill:#FFFFFF;" d="M177.277,326.109c-3.098-0.095-6.168,1.063-9.444-0.139c-0.692-4.271-0.075-8.638-0.472-12.96
						c2.056-1.824,4.39-2.841,6.728-3.512c7.203-2.071,14.501-3.614,22.011-4.379c7.187-0.732,14.357-0.929,21.542-0.762
						c6.867,0.16,13.691,0.951,20.629,2.339c0.486,3.974-1.687,7.587-0.808,11.883c-4.636-0.495-8.777-0.876-12.902-1.388
						c-14.911-1.851-29.277,0.235-43.162,5.874c-0.862,0.35-1.73,0.752-2.482,1.288
						C178.305,324.788,177.865,325.462,177.277,326.109z"/>
					<g>
						<path style="fill:#D851B5;" d="M241.693,318.174c0.91-9.324,2.434-18.464,10.455-25.648
							c6.238,7.746,10.089,16.096,10.221,25.989c-2.127,2.699-3.5,5.747-5.993,7.794
							C248.814,328.448,248.595,328.33,241.693,318.174z M258.471,315.594c-0.049-3.775-3.282-7.522-6.45-7.474
							c-3.183,0.048-6.354,3.855-6.328,7.598c0.024,3.515,3.278,6.661,6.686,6.466C255.666,321.995,258.513,318.915,258.471,315.594
							z"/>
						<path style="fill:#FFFFFF;" d="M258.471,315.594c0.043,3.321-2.805,6.401-6.092,6.589c-3.408,0.195-6.662-2.951-6.686-6.466
							c-0.026-3.742,3.145-7.549,6.328-7.598C255.188,308.072,258.422,311.819,258.471,315.594z"/>
					</g>
				</g>
				<path style="fill:#F9F9F9;" d="M302.057,350.632c7.704-0.18,12.936,8.052,9.186,14.273c-3.983,6.609-9.995,10.232-17.883,10.098
					c-5.844-0.099-9.356-3.519-9.741-9.269c-0.132-1.976,0.209-3.909,1.001-6.516c4.36,5.722,9.317,8.344,15.583,4.739
					C304.118,361.705,304.538,357.643,302.057,350.632z"/>
				<path style="fill:#F9F9F9;" d="M218.847,360.08c3.598,5.455,0.99,13.101-5.099,14.629c-8.695,2.182-18.582-4.261-21.415-10.841
					c-1.838-4.269,0.74-10.643,5.084-12.825c1.356-0.681,2.776-1.274,4.617-1.253c-1.366,5.359-3.684,10.931,2.587,14.594
					C209.256,367.091,214.208,365.451,218.847,360.08z"/>
				<g>
					<path style="fill:#7572DE;" d="M263.619,302.804c-3.207-5.7-7.526-10.203-10.263-15.763c-0.694-0.531-1.449-0.471-2.521-0.136
						c-2.103,5.746-7.835,9.354-9.847,15.865c-21.934-3.821-43.593-3.65-65.226,1.925c-0.061-3.183,1.245-5.378,2.102-7.652
						c3.339-8.858,8.031-16.945,14.331-24.047c6.698-7.55,15.19-12.015,25.025-13.712c16.218-2.797,32.535-4.587,49.02-2.801
						c7.606,0.824,15.225,1.618,22.719,3.255c9.315,2.035,17.211,6.528,23.446,13.759c7.671,8.897,12.939,19.094,16.461,31.188
						C306.931,299.375,285.307,298.712,263.619,302.804z"/>
					<path style="fill:#FFFFFF;" d="M200.254,294.904c-0.273-3.274-6.631-14.939-9.548-20.143
						c-5.548,6.669-9.774,14.145-12.841,22.282c-0.857,2.274-2.163,4.469-2.102,7.652c21.633-5.575,43.293-5.746,65.226-1.925
						c2.012-6.511,7.744-10.119,9.847-15.865c1.072-0.336,1.827-0.395,2.521,0.136c2.737,5.56,7.055,10.064,10.263,15.763
						c21.688-4.092,43.311-3.43,65.249,1.881c-3.15-10.817-7.711-20.109-14.126-28.318c-3.564,2.957-8.457,8.731-10.981,19.246
						c-2.369-13.2-5.711-24.137-10.328-34.664c-0.645-0.208-1.299-0.402-1.959-0.584c-4.064,3.047-16.425,13.969-18.198,35.248
						c0,0-1.033-22.836-16.116-39.766c-1.179-0.04-2.358-0.063-3.536-0.072c-11.912,6.156-23.594,38.421-23.594,38.421
						c0-18.787-12.809-34.911-12.809-34.911S200.254,273.281,200.254,294.904z"/>
				</g>
				<g>
					<path style="fill:#181818;" d="M127.025,517.794c0.72-1.028-0.143-1.731-0.552-2.493c-5.597-10.418-2.747-23.298,7.322-30.962
						c2.587-1.969,5.5-3.509,8.538-5.418c-5.695-5.253-9.551-11.347-10.494-18.986c-10.472-10.562-9.886-24.091-10.276-37.626
						c-1.453-1.73-4.082-2.347-5.617-4.465c-2.695-3.719-4.052-7.896-3.768-12.34c0.284-4.451-1.818-7.643-4.353-11.589
						c-0.615,2.034-0.988,3.459-1.475,4.844c-1.306,3.717-4.229,4.999-7.799,3.24c-2.827-1.392-5.33-3.349-7.367-5.748
						c-5.375-6.329-9.514-13.151-9.101-21.973c0.188-4.021,1.061-7.593,3.445-10.284c1.655-1.304,3.183,0.236,4.304-0.796
						c2.101,0.591,2.725,3.849,5.777,2.51c0.655-1.428,0.482-3.086,0.152-4.763c-1.227-6.229-1.157-12.469,0.252-18.635
						c1.385-6.059,4.809-10.777,10.088-14.135c1.779-1.132,3.71-1.892,5.764-1.661c9.841,1.108,19.706,0.271,29.556,0.49
						c5.637,0.125,11.279,0.044,16.918,0.019c1.542-0.007,3.119,0.229,5.104-0.496c0-3.324,0.296-6.76-0.072-10.122
						c-0.504-4.603,1.17-7.531,5.483-9.073c0.724-0.259,1.365-0.749,2.082-1.154c2.172-10.411,6.548-19.838,12.302-28.732
						c8.432-13.033,20.324-20.505,35.564-22.829c3.84-0.586,7.695-1.073,11.233-1.563c1.164-1.34,1.002-2.682,1.211-3.878
						c1.43-8.191,7.1-13.43,12.985-18.391c2.46-2.074,4.621-4.691,7.752-5.831c11.105,7.826,19.29,13.526,21.959,28.088
						c3.769,0.517,7.642,0.923,11.467,1.602c5.551,0.985,10.939,2.423,16.079,4.947c10.004,4.913,16.613,13.016,22.183,22.292
						c4.556,7.588,7.626,15.727,9.593,24.253c7.445,4.323,7.445,4.323,7.449,13.138c0.001,2.339,0,4.679,0,6.783
						c1.41,1.435,2.892,0.953,4.225,0.956c13.942,0.035,27.884,0.022,41.826,0.016c0.939,0,1.931,0.144,2.808-0.103
						c5.058-1.426,8.802,0.88,12.208,4.171c4.362,4.215,6.659,9.449,7.136,15.423c0.386,4.836,0.522,9.697-0.385,14.742
						c1.604,2.764,2.793,5.802,0.865,9.182c1.683,1.419,3.918,1.57,4.915,3.586c0.992,2.007,1.061,3.829-0.143,5.605
						c1.08,2.274,3.762,3.297,3.775,6.256c-0.64,4.102-3.679,6.413-7.385,8.08c-3.187,1.433-6.556,2.028-10.055,1.931
						c-1.705-0.047-3.413-0.008-4.742-0.008c-1.677,1.05-1.969,2.487-2.607,3.498c1.598,9.512,0.743,17.858-8.926,22.725
						c0.638,7.411-0.142,14.543-1.526,21.615c-0.724,3.701-1.833,7.282-3.953,10.478c-1.651,2.489-3.262,4.997-6.584,6.054
						c-0.296,7.602-5.663,12.874-9.204,19.114c2.396,1.588,4.37,2.819,6.263,4.164c8.715,6.195,12.42,14.547,10.874,25.204
						c-0.3,2.068-1.097,3.882-1.94,5.74c-0.47,1.036-1.858,1.856-1.02,3.31c-1.881,0-3.761,0-5.642,0
						c-0.654-2.173,1.354-3.243,2.044-4.856c2.953-6.901,3.052-13.552-1.314-19.972c-3.559-5.232-8.71-8.373-13.896-11.053
						c-10.433,1.935-20.469,1.935-30.537-1.307c-9.844,5.899-19.681,11.915-30.08,16.998c-12.761,6.237-24.872,13.791-38.202,18.889
						c-0.688,0.263-1.548,0.381-1.788,1.301c-3.761,0-7.522,0-11.283,0c-0.174-0.709-0.778-0.896-1.354-1.12
						c-11.232-4.373-21.862-9.987-32.349-15.867c-9.52-5.339-19.8-9.252-28.731-15.73c-2.734-1.983-5.936-3.421-8.799-5.32
						c-2.138-1.418-4.418-2.317-7.563-1.971c-6.297,5.011-13.684,7.037-21.589,3.904c-5.351,2.972-10.117,5.849-13.591,10.523
						c-4.554,6.127-5.191,14.949-1.397,21.558c0.71,1.238,2.369,2.173,1.599,4.023C130.786,517.794,128.906,517.794,127.025,517.794
						z M297.405,428.721c-2.201,3.574-2.867,7.103-3.745,10.514c-0.512,1.992-1.128,3.914-2.106,5.694
						c-4.539,8.258-14.589,8.647-19.939,0.925c-4.281-6.179-5.109-13.333-6.31-20.423c-1.078-6.362-0.475-12.846-1.256-19.182
						c-1.149-9.328,0.011-18.437,1.404-27.552c0.756-4.95,2.281-9.759,4.792-14.162c1.042-1.826,2.114-3.742,5.256-3.81
						c-2.897,8.464-6.324,16.309-6.888,24.98c-0.57,8.757-0.843,17.475-0.097,26.044c2.126,1.27,4.064,1.594,6.153,1.375
						c2.336-0.245,4.681-0.413,7.026-0.555c11.39-0.693,22.28-3.217,32.29-8.889c7.749-4.391,12.174-11.16,13.396-19.874
						c0.961-6.861,0.343-13.774-0.463-20.62c-0.734-6.232-1.252-12.431-0.835-18.724c0.329-4.971,0.803-9.962,0.452-15.108
						c-0.853-0.486-1.623-1.008-2.457-1.389c-18.434-8.401-37.568-8.535-57.03-4.819c-1.686,0.322-2.753,1.336-3.589,2.749
						c-1.338,2.263-3.485,3.519-5.786,4.605c-2.254,1.063-4.608,0.187-6.907,0.475c-3.73,0.467-7.148-0.957-9.026-3.915
						c-2.389-3.763-5.844-4.321-9.561-4.847c-1.394-0.197-2.819-0.174-4.21-0.384c-11.595-1.754-23.113-1.399-34.489,1.477
						c-5.565,1.407-11.126,2.954-15.739,6.079c0,3.078-0.115,5.737,0.021,8.382c0.426,8.291,0.848,16.559-0.382,24.84
						c-1.014,6.826-1.485,13.735-0.657,20.608c1.099,9.121,5.672,16.07,13.757,20.636c9.029,5.099,18.848,7.566,29.055,8.508
						c3.97,0.366,7.996,0.956,12.349,0.49c-0.228-1.898,0.59-3.539-0.245-5.566c-6.612-1.253-9.63-6.531-12.394-12.204
						c-1.154-0.62-3.309,0.076-3.447-2.554c2.465-1.527,4.464-3.823,6.332-6.202c3.422,2.023,0.633,4.328,0.794,7.013
						c1.435,3.894,4.033,7.307,8.902,8.84c1.795-13.692-0.81-26.508-5.934-39.221c2.221,0.283,3.127,1.516,3.668,2.676
						c1.639,3.513,3.642,6.854,4.662,10.668c2.916,10.898,2.765,21.987,2.205,33.094c-0.118,2.347-0.461,4.707-0.135,7.024
						c0.803,5.716,1.696,11.424,2.73,17.103c1.49,8.184,3.567,16.188,7.943,23.409c2.602,4.294,4.989,8.881,9.443,11.496
						c5.814,3.414,11.992,5.705,18.888,6.549c16.057,1.965,29.258-11.044,31.664-22.404c0.809-3.821,1.45-7.678,2.109-11.529
						c0.271-1.583,0.157-3.194-0.988-4.429c-0.816-0.88-1.93-0.915-3.039-0.332c-1.03,0.933-0.873,2.725-2.353,3.349
						c-3.157-0.595-3.262-0.619-3.4-3.145C299.154,434.003,299.512,431.445,297.405,428.721z M263.619,302.804
						c21.688-4.092,43.311-3.43,65.249,1.881c-3.522-12.094-8.79-22.291-16.461-31.188c-6.235-7.231-14.131-11.724-23.446-13.759
						c-7.494-1.637-15.113-2.431-22.719-3.255c-16.485-1.786-32.802,0.004-49.02,2.801c-9.836,1.696-18.327,6.162-25.025,13.712
						c-6.3,7.101-10.992,15.188-14.331,24.047c-0.857,2.274-2.163,4.469-2.102,7.652c21.633-5.575,43.293-5.746,65.226-1.925
						c2.011-6.511,7.744-10.119,9.847-15.865c1.072-0.336,1.827-0.395,2.521,0.137C256.093,292.601,260.412,297.104,263.619,302.804
						z M176.621,395.806c-3.965-6.363-4.545-13.448-4.373-20.772c0.106-4.518,0.527-9.031,0.073-13.59
						c-0.421-4.231-2.375-6.994-6.149-8.646c-1.722-0.754-3.488-1.301-5.361-1.643c-6.842-1.251-13.738-0.898-20.623-0.892
						c-5.64,0.005-11.284,0.216-16.919,0.064c-4.143-0.112-8.087-1.162-10.989-4.469c-1.13-1.288-2.206-2.703-0.622-4.267
						c1.125-0.144,1.839,0.238,2.347,0.822c2.352,2.706,5.469,3.532,8.851,3.634c3.285,0.099,6.583,0.244,9.858,0.063
						c5.639-0.311,11.275-0.375,16.917-0.311c8.535,0.097,16.886,0.883,23.991,6.372c0.093,0.072,0.29,0.009,0.808,0.009
						c0.256-6.694,0.097-13.374-0.205-20.141c-2.182-0.808-4.36-0.804-6.544-0.798c-6.895,0.019-13.792,0.136-20.685,0.005
						c-11.737-0.224-23.487,0.64-35.215-0.481c-2.277-0.218-4.289,0.634-5.952,2.275c-3.212,3.171-5.099,6.965-6.18,11.367
						c-1.308,5.326-0.3,10.518,0.328,15.723c0.352,2.922,1.342,5.774,2.135,8.632c0.326,1.175,1.037,1.957,2.558,1.014
						c-0.224-2.375-0.308-4.854,1.853-6.758c1.613-0.541,3.289-0.618,5.668,0.221c4.396,5.539,5.725,13.535,10.869,19.469
						c1.22-0.672,2.282-1.322,3.398-1.861c5.558-2.681,8.25-1.348,9.555,4.695c5.298,1.795,5.873,2.65,5.348,8.24
						c2.229,0.966,4.498,2.18,5.18,4.86c0.67,2.632-0.12,5.22-0.863,7.991c3.352,1.713,6.527,3.335,9.818,5.017
						c2.363-1.655,4.964-1.665,7.599-1.055C167.645,405.663,173.304,402.001,176.621,395.806z M241.136,455.918
						c-3.387-5.985-4.831-12.228-6.012-18.53c-1.204-6.429-3.094-12.748-2.901-19.577c-8.548-0.716-16.835-0.967-24.958-2.755
						c-8.344-1.837-15.9-5.527-23.165-9.682c-6.542,2.435-12.833,4.672-17.794,9.537c2.431,6.174,3.668,12.274,4.807,18.612
						c1.645-0.568,2.969-0.954,4.235-1.478c2.878-1.19,5.513-1.088,7.722,1.342c2.085,2.294,2.73,4.934,1.381,7.8
						c-1.391,2.956-1.53,6.022-1.27,9.186c0.115,1.402,0.106,2.818,0.079,4.227c-0.125,6.474-2.505,11.84-7.708,15.879
						c-1.311,1.018-3.059,1.704-3.466,3.609c0.695,0.629,1.429,0.516,2.169,0.198c2.452-1.055,4.798-2.289,6.903-3.956
						c3.593-2.847,7.139-5.736,9.91-9.449c1.192-1.599,2.496-2.289,3.959-0.331c-2.835,7.985-9.508,12.331-15.725,17.134
						c2.431,2.109,5.617,2.364,7.59,4.328c5.563,5.535,11.257,3.794,17.099,0.795c0.556-0.285,1.065-0.66,1.616-0.956
						c8.301-4.467,15.959-9.91,23.358-15.7C233.01,462.981,237.404,460.188,241.136,455.918z M329.942,352.874
						c2.959-2.035,5.374-4.066,8.389-4.974c4.531-1.366,9.19-1.886,13.888-2.047c7.834-0.269,15.655,0.18,23.484,0.444
						c5.454,0.184,11.056,0.187,15.232-4.422c0.399-0.44,1.117-0.522,1.799-0.063c0.874,0.915,0.628,1.968,0,2.934
						c-1.131,1.743-2.644,3.059-4.583,3.894c-2.773,1.195-5.639,1.801-8.666,1.786c-9.711-0.048-19.423-0.1-29.133-0.046
						c-4.246,0.024-8.417,0.661-12.351,2.409c-3.761,1.671-5.987,4.379-6.091,8.649c-0.065,2.647-0.313,5.266-0.197,7.945
						c0.396,9.074,1.021,18.243-4.052,26.309c2.626,4.836,12.082,14.511,18.216,18.676c4.785-2.602,9.668-5.257,14.444-7.853
						c-1.932-7.991-1.437-9.389,4.319-12.929c-0.412-5.438-0.051-5.966,5.716-8.341c0.422-1.297-0.085-2.88,1.191-3.942
						c1.499-1.656,3.835-0.904,5.647-1.733c-4.859-12.486-5.173-17.805-1.52-23.484c5.151-1.48,7.743,2.808,11.079,5.062
						c3.089-3.232,4.677-8.173,9.948-6.986c3.044,2.132,2.061,5.474,3.412,7.832c1.504-0.246,2.947-0.267,4.004-1.371
						c1.128-3.175,1.369-6.452,1.121-9.741c-0.476-6.308-1.453-12.434-6.27-17.222c-2.159-2.147-4.533-3.374-7.561-2.747
						c-2.029,0.42-4.053,0.338-6.081,0.34c-16.136,0.014-32.272-0.002-48.409-0.005c-2.333-0.001-4.683-0.121-6.992,0.858
						C329.715,338.831,329.29,345.515,329.942,352.874z M243.484,460.324c-7.558,5.761-14.343,11.262-21.595,16.174
						c-7.138,4.836-14.908,8.328-23.447,12.14c18.439,8.886,35.103,19.718,53.938,26.095c9.676-4.031,19.397-7.935,28.518-13.134
						c9.088-5.18,18.497-9.749,27.468-14.18c0.547-8.355-2.004-16.358,1.173-24.174c0.318-0.783,0.063-1.941-1.365-1.811
						c-6.101,11.682-19.671,19.367-31.931,18.207C262.495,478.339,250.747,473.59,243.484,460.324z M319.792,405.272
						c-11.881,8.01-25.194,10.987-38.687,11.995c-2.476,1.615-4.055,3.575-5.717,5.434c-1.76,1.968-3.546,3.934-4.737,6.137
						c0.908,10.858,4.785,16.12,12.614,17.259c2.359-0.822,3.809-2.584,4.757-4.832c1.09-2.585,2.302-5.117,2.895-7.898
						c0.525-2.464,1.521-4.775,3.114-6.75c2.109-2.615,5.06-2.62,7.11,0.08c1.012,1.334,1.664,2.941,2.537,4.529
						c2.576,0.05,5.358-0.578,7.591,1.339c2.023,1.737,2.901,4.128,3.314,7.711c4.572-6.951,7.65-14.211,15.56-15.912
						c2.536-3.428,4.815-6.51,7.203-9.739C332.363,409.777,326.34,407.668,319.792,405.272z M141.899,422.959
						c-1.505,3.178-1.49,3.176-1.261,5.359c1.101,10.485,4.11,20.502,7.505,30.418c1.142,3.335,3.293,6.059,5.885,8.367
						c2.285,2.034,4.988,2.991,8.177,2.863c8.702-0.35,17.447-5.803,16.651-17.374c-0.299-4.351-0.383-8.724,1.646-12.888
						c0.89-1.826,0.34-3.7-2.295-4.691c-6.798,2.531-12.026,6.591-13.572,14.587c-0.459,2.372-0.387,5.197-2.845,7.916
						c-2.068-8.719,1.528-14.884,6.194-20.681c-2.535-14.902-4.311-19.536-8.671-22.465c-2.901,2.596-2.748,6.127-1.582,9.047
						c1.824,4.568,2.359,9.271,2.933,14.012c0.181,1.496,0.23,3.162-0.959,4.4c-5.571-7.258-4.818-16.562-7.272-24.52
						c-1.607-0.194-2.226,0.259-2.579,1.008c-1.152,2.445-1.905,4.936-1.187,7.708c0.626,2.418,1.108,4.875,1.593,7.327
						c0.753,3.813,0.576,7.009-0.55,9.903c-2.953-4.378-3.771-9.332-4.712-14.181C144.564,426.836,143.672,425.079,141.899,422.959z
						 M319.055,468.304c2.309,2.794,5.059,4.56,8.107,5.855c9.727,4.134,19.649,4.663,29.785,1.607
						c1.734-0.523,3.063-1.463,4.283-2.72c6.654-6.86,6.847-15.157,4.756-23.634c-1.63-6.609-5.356-12.352-9.785-17.458
						c-4.887-5.634-10.256-10.818-16.877-14.576c-1.195,2.533-3.659,4.155-3.56,6.66c10.675,7.31,17.819,16.501,20.12,29.214
						c5.398,3.577,6.15,6.065,2.766,9.444c-2.392-0.486-1.742-3.147-3.215-4.449c-1.936-1.255-4.133-1.858-6.575-1.6
						c-2.707,0.286-4.217,2.444-5.979,3.894c-1.698-0.105-2.885-0.819-3.216-1.078c-3.249-3.554-3.02-7.956-5.932-10.993
						c-2.66,3.323-1.601,6.684-1.798,9.876c-0.222,3.572,3.201,5.514,3.885,8.696c-5.26,0.988-7.239-1.962-10.944-16.059
						c-4.27,5.193-1.116,10.45-0.399,15.356c-1.871,1.636-3.207,0.856-4.293-0.409c-0.917-1.068-0.217-3.056-1.951-3.796
						C317.536,464.474,318.459,466.503,319.055,468.304z M372.385,454.446c2.229-2.553,3.182-4.491,3.852-6.565
						c2.933-9.073,3.262-18.418,2.584-27.384c0.822-1.44,1.665-2.224,2.653-2.64c5.416-2.28,7.28-7.047,8.514-12.172
						c0.917-3.81,0.646-7.657-2.383-10.442c-1.414-1.3-2.57-2.635-3.544-4.226c-1.241-2.025-2.801-3.766-4.773-5.113
						c-1.39-0.949-2.701-2.207-4.647-1.326c-0.275,2.09,2.624,3.397,1.611,5.047c-2.545,3.43-5.265-1.416-7.462,0.925
						c-0.454,2.374,3.009,3.644,1.399,6.195c-1.518,1.587-4.515,0.002-5.804,2.781c-0.173,5.58,6.495,7.402,7.725,12.015
						c-0.624,1.428-1.336,1.935-2.388,1.966c-2.698,0.082-3.75-2.501-5.71-3.767c-4.767,2.933-10.002,4.691-14.481,7.893
						c0.507,1.92,2.143,2.772,3.344,3.923c2.149,2.058,4.379,4.026,6.252,6.352c1.353,1.68,2.724,3.153,4.806,4.195
						c2.165,1.084,3.766,3.187,4.817,5.574C370.973,442.732,372.709,447.882,372.385,454.446z M336.582,326.61
						c-0.081-4.875,0.41-9.52-0.095-13.978c-14.808-9.398-57.974-10.427-71.014-5.178c0.81,3.534,1.468,7.163,1.627,11.07
						c3.938-0.39,7.65-0.643,11.328-1.141c17.225-2.329,33.634,0.237,49.193,8.039C330.318,326.774,333.076,327.659,336.582,326.61z
						 M177.277,326.109c0.588-0.648,1.029-1.321,1.639-1.756c0.752-0.536,1.62-0.938,2.482-1.288
						c13.884-5.639,28.251-7.725,43.162-5.874c4.125,0.512,8.266,0.893,12.902,1.388c-0.878-4.296,1.294-7.908,0.808-11.883
						c-6.938-1.388-13.762-2.18-20.629-2.339c-7.185-0.167-14.354,0.03-21.542,0.762c-7.509,0.765-14.808,2.308-22.011,4.379
						c-2.337,0.672-4.671,1.689-6.728,3.512c0.397,4.322-0.22,8.689,0.472,12.96C171.109,327.172,174.178,326.014,177.277,326.109z
						 M135.761,396.613c-0.673-1.167-0.237-2.117,0.391-3.082c0.643-0.988,1.693-1.912,0.892-3.263
						c-2.352-1.458-4.719,2.551-6.725,0.137c-1.508-2.48,1.39-3.788,1.077-5.876c-0.582-0.079-1.051-0.255-1.469-0.173
						c-0.596,0.117-1.192,0.358-1.723,0.66c-5.203,2.96-7.545,8.48-11.314,12.727c-0.276,0.311-0.202,0.91-0.377,1.34
						c-1.562,3.84,0.178,7.349,1.079,10.94c0.765,3.048,2.44,5.432,5.376,6.683c1.811,0.772,3.141,1.948,4.237,3.826
						c-0.63,10.189-0.41,20.468,4.142,30.164c0.669-4.781,2.387-9.138,4.253-13.433c1.076-2.477,1.514-4.806,1.057-7.641
						c-0.573-3.556-1.088-7.548,2.224-10.15c2.24-0.83,4.252-0.141,6.379-0.284c0.447-2.263,1.98-3.853,3.238-5.936
						c-2.464-1.287-4.607-2.406-6.611-3.452c-2.338,1.854-3.779,5.008-7.271,3.066c-0.912-1.809-0.16-3.01,1.047-4.213
						c1.546-1.54,3.068-3.129,4.407-4.846c1.137-1.458,2.289-3.066,1.625-4.293C139.848,396.831,137.154,398.348,135.761,396.613z
						 M328.784,448.506c4.73-5.714,8.374-5.075,10.965,1.527c0.665,1.695,0.98,3.592,2.711,5.26
						c2.277-2.116,5.269-2.879,8.647-3.725c-2.411-7.006-5.539-13.188-10.426-18.395c-0.739-0.788-1.675-1.404-2.565-2.036
						c-4.579-3.252-9.764-2.718-13.264,1.707c-4.116,5.205-6.809,11.172-8.37,17.63c-0.484,2.005-0.263,3.837,1.512,5.756
						c2.007-3.927,1.818-9.089,7.257-9.559C326.682,446.831,327.563,447.807,328.784,448.506z M235.602,252.582
						c11.088-1.105,21.866-1.109,32.96,0.007c-1.532-10.735-9.138-16.49-16.478-22.971
						C244.745,236.098,237.137,241.85,235.602,252.582z M241.693,318.174c6.902,10.156,7.121,10.273,14.683,8.135
						c2.492-2.047,3.866-5.095,5.993-7.794c-0.132-9.893-3.983-18.243-10.221-25.989C244.127,299.71,242.603,308.85,241.693,318.174
						z M100.675,397.594c0.54-6.567,3.997-11.043,8.832-14.737c-1.304-2.652-2.462-5.009-3.719-7.568
						c-3.209,1.21-6.121,0.59-9.04-0.783c-2.989-1.406-4.893-4.241-7.702-5.797C82.399,375.855,91.68,394.337,100.675,397.594z
						 M163.462,474.564c-5.024,0.452-9.2-1.023-12.628-4.318c-2.954-2.84-5.477-6.053-6.817-9.994
						c-1.65-4.855-3.543-9.654-3.841-14.868c-0.094-1.644-0.732-3.117-1.609-4.923c-0.554,0.845-0.876,1.179-1.018,1.576
						c-1.945,5.444-1.837,11.055-1.27,16.689c0.678,6.742,3.86,12.232,9.004,16.432
						C150.627,479.521,155.452,481.129,163.462,474.564z M384.711,383.286c0.848,0.135,1.549-0.247,1.612-0.808
						c0.36-3.208,1.663-6.299,0.896-9.655c-1.54-6.742-4.929-11.667-9.408-13.156C375.018,368.964,379.714,376.118,384.711,383.286z
						 M406.023,365.334c-4.876,0.74-7.859,3.41-9.849,7.378c-1.752,3.494-3.483,6.991-5.654,10.265
						c-0.692,1.044-1.77,2.308-0.75,3.827C399.154,381.918,406.473,372.419,406.023,365.334z M394.417,390.79
						c5.152,1.259,9.966,0.593,14.634-1.228c1.926-0.751,3.914-1.807,4.208-4.32C405.548,382.382,398.122,384.508,394.417,390.79z
						 M313.269,466.255c-1.961,5.271,0.238,10.436-0.7,16.13c4.113-0.993,7.203-3.143,11.07-3.979
						C319.004,475.245,315.151,471.638,313.269,466.255z M108.518,366.323c1.369,8.148,4.314,15.117,9.07,21.63
						c2.76-2.095,1.148-4.2,0.254-5.847c-2.231-4.107-4.261-8.288-6.071-12.593C111.275,368.332,110.897,366.839,108.518,366.323z
						 M390.992,371.45c3.889-3.437,4.487-7.714,3.556-13.195C390.054,362.273,390.868,366.949,390.992,371.45z M274.068,417.566
						c-1.957,0.057-3.415-0.514-4.856,0.45c-0.221,1.529-0.009,2.952,0.562,4.778C271.653,421.17,272.892,419.743,274.068,417.566z
						 M405.388,379.628c2.009-0.087,3.803,0.015,5.369-1.64c0.025-0.909,0.595-1.971-0.559-2.8
						C407.439,375.758,407.439,375.758,405.388,379.628z M113.637,394.914c1.457-4.109,0.5-5.907-3.171-6.587
						C111.481,390.433,112.395,392.332,113.637,394.914z M310.604,460.635c0.455-2.874,2.224-4.677,1.1-7.78
						c-0.737,2.393-1.333,4.265-1.868,6.154C309.776,459.219,310.066,459.527,310.604,460.635z M327.442,403.592
						c-1.078-1.277-1.474-2.472-2.706-2.96c-0.927,0.362-1.435,0.987-1.281,2.062C324.542,403.097,325.578,403.7,327.442,403.592z
						 M179.357,400.586c-1.103,0.803-1.894,1.657-2.177,3.066c1.445-0.106,2.658-0.404,3.58-1.02
						C180.659,401.498,180.297,401.029,179.357,400.586z M95.726,367.248c0.605,1.086,0.87,2.023,1.713,1.317
						C97.715,368.333,96.971,367.66,95.726,367.248z"/>
					<path style="fill:#181818;" d="M298.466,345.607c4.365-0.204,8.369,0.889,11.979,3.349c5.657,3.853,7.66,10.725,4.967,16.963
						c-3.147,7.291-12.999,13.647-21.022,13.563c-10.953-0.115-17.64-9.014-14.267-19.461c2.021-6.258,5.453-11.592,12.323-13.739
						C294.451,345.655,296.444,345.66,298.466,345.607z M302.057,350.632c2.48,7.012,2.06,11.073-1.854,13.325
						c-6.266,3.605-11.224,0.983-15.583-4.739c-0.791,2.608-1.133,4.54-1.001,6.516c0.385,5.75,3.897,9.169,9.741,9.269
						c7.888,0.134,13.9-3.489,17.883-10.098C314.994,358.683,309.762,350.452,302.057,350.632z"/>
					<path style="fill:#181818;" d="M206.44,345.523c11.594-1.228,19.513,12.935,18.362,21.429
						c-1.125,8.305-10.485,14.491-19.094,12.156c-5.039-1.367-9.616-3.743-13.223-7.707c-4.057-4.458-6.257-9.493-4.157-15.471
						c2.212-6.297,7.366-9.039,13.573-10.151C203.126,345.56,204.401,345.628,206.44,345.523z M218.847,360.08
						c-4.639,5.372-9.591,7.011-14.226,4.304c-6.271-3.663-3.953-9.235-2.587-14.594c-1.841-0.021-3.261,0.572-4.617,1.253
						c-4.344,2.182-6.922,8.556-5.084,12.825c2.832,6.58,12.72,13.023,21.415,10.841
						C219.837,373.181,222.445,365.535,218.847,360.08z"/>
					<path style="fill:#181818;" d="M224.43,344.154c-1.8,1.109-3.157,0.632-4.015-0.602c-4.38-6.298-10.809-7.41-17.788-7.259
						c-0.934,0.02-1.872-0.03-2.804-0.107c-0.262-0.022-0.507-0.253-0.76-0.388c4.064-3.757,12.068-4.368,18.233-1.391
						C222.291,336.819,224.8,340.186,224.43,344.154z"/>
					<path style="fill:#181818;" d="M279.995,344.367c-1.024-1.418-0.889-2.616-0.194-3.751c5.357-8.754,19.099-10.429,25.533-4.771
						c-2.051,0.817-4.062,0.44-5.989,0.467c-6.055,0.086-11.419,1.582-15.183,6.777C283.18,344.445,281.934,345.298,279.995,344.367
						z"/>
					<path style="fill:#181818;" d="M260.585,357.989c-5.5,1.808-10.954,2.971-16.568,0.927c0.142-2.011,1.143-2.295,2.285-2.449
						C253.178,355.546,258.1,355.865,260.585,357.989z"/>
					<path style="fill:#181818;" d="M259.662,369.739c-0.9,2.323-2.89,1.906-4.672,1.781c-7.95-0.555-7.948-0.575-9.444-2.621
						C249.147,366.56,255.697,366.928,259.662,369.739z"/>
					<path style="fill:#181818;" d="M246.257,378.993c4.499-1.703,8.262-1.473,12.715-0.583
						C255.231,382.182,250.134,382.425,246.257,378.993z"/>
					<path style="fill:#181818;" d="M248.979,389.879c2.484-1.23,4.631-1.477,6.934,0.232
						C252.989,392.341,252.147,392.322,248.979,389.879z"/>
					<path style="fill:#181818;" d="M255.18,401.881c-2.591,1.683-4.469,2.322-6.906,0.431
						C250.396,400.145,252.395,401.049,255.18,401.881z"/>
				</g>
			</g>
		</g>
	</g>
	<g>
		<g>
			<g>
				
					<text transform="matrix(1.0923 0 0 1 105.8892 137.6929)" style="fill:#D851B5; font-family:'KomikaTitle'; font-size:51.6768px; letter-spacing:5.493;">Kids</text>
				
					<text transform="matrix(1.0923 0 0 1 105.8892 184.5757)" style="fill:#D851B5; font-family:'KomikaTitle'; font-size:51.6768px;">Sale!</text>
			</g>
			<rect x="227.716" y="97.221" style="fill:#D851B5;" width="3.111" height="86.383"/>
			<g>
				
					<text transform="matrix(1.0923 0 0 1 243.1118 183.0659)" style="fill:#D851B5; font-family:'KomikaTitle'; font-size:112.4206px;">70</text>
				
					<text transform="matrix(1.0923 0 0 1 348.5098 152.4976)" style="fill:#D851B5; font-family:'KomikaTitle'; font-size:69.6331px;">%</text>
				
					<text transform="matrix(1.0923 0 0 1 345.3848 184.3804)" style="fill:#D851B5; font-family:'KomikaTitle'; font-size:36.1029px;">OFF</text>
			</g>
		</g>
		<text transform="matrix(1 0 0 1 100.877 83.0083)" style="font-family:'KomikaTitle'; font-size:39.0317px; letter-spacing:2;">Ganesh Chaturthi</text>
		<g>
			<path style="fill:#5F6ADE;" d="M378.275,225.11H266.684c-7.913,0-14.328-6.415-14.328-14.328v-4.039
				c0-7.913,6.415-14.328,14.328-14.328h111.591c7.913,0,14.328,6.415,14.328,14.328v4.039
				C392.603,218.695,386.189,225.11,378.275,225.11z"/>
			
				<text transform="matrix(1 0 0 1 269.8848 214.9756)" style="fill:#FFFFFF; font-family:'KomikaTitle'; font-size:17.6305px; letter-spacing:2;">get it now!</text>
		</g>
		
			<text transform="matrix(1 0 0 1 100.6255 217.0718)" style="fill:#181818; font-family:'KomikaTitle'; font-size:18.5669px; letter-spacing:1;">1-10 August 2020</text>
	</g>
</g>
</svg>
